<svg width="27" height="28" fill="none" xmlns="http://www.w3.org/2000/svg"><path fill-rule="evenodd" clip-rule="evenodd" d="M20.36 16.754a.553.553 0 01.37-.153c.147 0 .295.077.368.153.074.077.074.23.074.383 0 .076-.074.306-.074.382-.073.077-.22.077-.368.077s-.296-.077-.37-.077c-.073-.076-.147-.306-.147-.382-.074-.153 0-.23.148-.383zm-.884 1.76c.294.306.737.535 1.254.535.516 0 .959-.153 1.254-.535a1.88 1.88 0 00.516-1.3c0-.536-.148-.995-.516-1.301a1.748 1.748 0 00-1.254-.536c-.517 0-.96.23-1.255.536a1.88 1.88 0 00-.516 1.3c0 .46.148.918.517 1.3zm-3.91-1.76c.073-.076.22-.153.295-.153.147 0 .295.077.369.153.073.077.147.23.147.383 0 .076-.074.306-.147.382-.074.077-.222.077-.37.077-.073 0-.294-.077-.294-.077-.074-.076-.148-.306-.148-.382 0-.153.074-.23.148-.383zm-.886 1.76c.295.306.738.535 1.18.535.517 0 .96-.153 1.255-.535a1.88 1.88 0 00.516-1.3 1.88 1.88 0 00-.516-1.301 1.748 1.748 0 00-1.254-.536c-.443 0-.96.23-1.18.536a1.88 1.88 0 00-.517 1.3c0 .46.221.918.516 1.3zM5.902 21.65a.553.553 0 01.368-.153c.148 0 .296.077.37.153.073.077.147.23.147.383 0 .076-.074.306-.148.382-.073.077-.221.077-.369.077-.147 0-.295-.077-.368-.077-.074-.076-.074-.306-.074-.382 0-.153.074-.23.074-.383zm-.812 1.683a1.75 1.75 0 001.254.536c.517 0 .96-.153 1.254-.536a1.88 1.88 0 00.517-1.3c0-.536-.148-.995-.517-1.3a1.749 1.749 0 00-1.254-.536c-.516 0-.959.153-1.254.535a1.88 1.88 0 00-.516 1.3c0 .536.147.995.516 1.301zm.812-6.579a.553.553 0 01.368-.153c.148 0 .296.077.37.153.073.077.147.23.147.383 0 .076-.074.306-.148.382-.073.077-.221.077-.369.077-.147 0-.295-.077-.368-.077-.074-.076-.074-.306-.074-.382 0-.153.074-.23.074-.383zm-.812 1.76c.295.306.738.535 1.254.535.517 0 .96-.153 1.254-.535a1.88 1.88 0 00.517-1.3c0-.536-.148-.995-.517-1.301a1.749 1.749 0 00-1.254-.536c-.516 0-.959.23-1.254.536a1.88 1.88 0 00-.516 1.3c0 .46.147.918.516 1.3zm10.476 3.136c.073-.076.22-.153.295-.153.147 0 .295.077.369.153.073.077.147.23.147.383 0 .076-.074.306-.147.382-.074.077-.222.077-.37.077-.073 0-.294-.077-.294-.077-.074-.076-.148-.306-.148-.382 0-.153.074-.23.148-.383zm-.886 1.683c.295.306.738.536 1.18.536.517 0 .96-.153 1.255-.536a1.88 1.88 0 00.516-1.3 1.88 1.88 0 00-.516-1.3 1.748 1.748 0 00-1.254-.536c-.443 0-.96.153-1.18.535a1.88 1.88 0 00-.517 1.3c0 .536.221.995.516 1.301zM24.934 7.115H2.14V2.142h1.992V3.75c0 .612.517 1.07 1.033 1.07.59 0 1.033-.458 1.033-1.07V2.142h3.467V3.75c0 .612.443 1.07 1.033 1.07.516 0 1.033-.458 1.033-1.07V2.142h3.467V3.75c0 .612.516 1.07 1.033 1.07.59 0 1.032-.458 1.032-1.07V2.142h3.468V3.75c0 .612.516 1.07 1.032 1.07.517 0 1.033-.458 1.033-1.07V2.142h1.992v4.973h.147zm0 18.666H2.14V8.415h22.795v17.366zM25.967 0H1.033C.443 0 0 .459 0 1.071v25.858C0 27.541.443 28 1.033 28h24.934c.59 0 1.033-.459 1.033-1.071V1.071C27 .459 26.557 0 25.967 0zM10.771 21.65a.553.553 0 01.368-.153c.074 0 .295.077.295.153.074.077.148.23.148.383 0 .076-.074.306-.148.382-.073.077-.22.077-.295.077-.147 0-.295-.077-.368-.077-.074-.076-.148-.306-.148-.382 0-.153 0-.23.148-.383zm-.886 1.683a1.75 1.75 0 001.254.536c.517 0 .96-.153 1.254-.536a1.88 1.88 0 00.517-1.3 1.88 1.88 0 00-.517-1.3 1.749 1.749 0 00-1.254-.536c-.516 0-.959.153-1.254.535a1.88 1.88 0 00-.516 1.3c-.074.536.147.995.516 1.301zm5.68-11.475c.074-.077.222-.153.296-.153.147 0 .295.076.369.153a.6.6 0 01.147.382.596.596 0 01-.147.383c-.074.077-.222.077-.37.077-.073 0-.294-.077-.294-.077a.596.596 0 01-.148-.383c0-.153.074-.23.148-.382zm-.885 1.76c.295.306.738.535 1.18.535.517 0 .96-.153 1.255-.536a1.88 1.88 0 00.516-1.3 1.88 1.88 0 00-.516-1.3 1.748 1.748 0 00-1.254-.536c-.443 0-.96.23-1.18.535a1.88 1.88 0 00-.517 1.3c0 .536.221.919.516 1.301zm5.68-1.76a.553.553 0 01.37-.153c.147 0 .295.076.368.153.074.076.074.23.074.382 0 .153-.074.306-.074.383-.073.077-.22.077-.368.077s-.296-.077-.37-.077a.596.596 0 01-.147-.383c0-.153 0-.23.148-.382zm-.884 1.76c.294.306.737.535 1.254.535.516 0 .959-.153 1.254-.536.295-.382.516-.765.516-1.3 0-.536-.148-.995-.516-1.3-.37-.307-.738-.536-1.254-.536-.517 0-.96.23-1.255.535a1.88 1.88 0 00-.516 1.3c0 .536.148.919.517 1.301zm-8.705 3.136a.553.553 0 01.368-.153c.074 0 .295.077.295.153.074.077.148.23.148.383 0 .076-.074.306-.148.382-.073.077-.22.077-.295.077-.147 0-.295-.077-.368-.077-.074-.076-.148-.306-.148-.382 0-.153 0-.23.148-.383zm-.886 1.76c.295.306.738.535 1.254.535.517 0 .96-.153 1.254-.535a1.88 1.88 0 00.517-1.3 1.88 1.88 0 00-.517-1.301 1.749 1.749 0 00-1.254-.536c-.516 0-.959.23-1.254.536a1.88 1.88 0 00-.516 1.3c-.074.46.147.918.516 1.3zm.886-6.656a.553.553 0 01.368-.153c.074 0 .295.076.295.153.074.076.148.23.148.382a.596.596 0 01-.148.383c-.073.077-.22.077-.295.077-.147 0-.295-.077-.368-.077a.596.596 0 01-.148-.383c0-.153 0-.23.148-.382zm-.886 1.76c.295.306.738.535 1.254.535.517 0 .96-.153 1.254-.536.295-.382.517-.765.517-1.3a1.88 1.88 0 00-.517-1.3 1.749 1.749 0 00-1.254-.536c-.516 0-.959.23-1.254.535a1.88 1.88 0 00-.516 1.3c0 .536.147.919.516 1.301z" fill="#503E3F"/></svg>