<svg width="20" height="20" fill="none" xmlns="http://www.w3.org/2000/svg"><g clip-path="url(#clip0_252_547)"><path d="M13.161 4.98l-3.023 3.024a.252.252 0 01-.356 0L6.76 4.98a1.258 1.258 0 00-1.78 1.779l3.024 3.023a.252.252 0 010 .356L4.98 13.16a1.258 1.258 0 001.779 1.779l3.023-3.024a.252.252 0 01.356 0l3.023 3.024a1.258 1.258 0 001.779-1.779l-3.024-3.023a.252.252 0 010-.356L14.94 6.76a1.258 1.258 0 00-1.78-1.78z" fill="#E30613"/></g><defs><clipPath id="clip0_252_547"><path fill="#fff" transform="rotate(-45 12.023 4.98)" d="M0 0h14.085v14.085H0z"/></clipPath></defs></svg>