<svg width="26" height="24" fill="none" xmlns="http://www.w3.org/2000/svg"><path fill-rule="evenodd" clip-rule="evenodd" d="M12.68 23.785l.07.072h.072l.071.071h.143l.07.072h.286l.071-.072h.142v-.071h.072l.07-.072.072-.072 4.844-4.871c.214-.215.214-.573 0-.86-.285-.215-.641-.215-.855 0l-3.775 3.797V7.881c0-.287-.285-.573-.57-.573-.356 0-.641.286-.641.573v13.898l-3.775-3.797a.746.746 0 00-.926 0c-.214.287-.214.645 0 .86l4.559 4.943zm8.262-7.522c.927 0 1.71-.287 2.28-.932.57-.573.926-1.36.926-2.292 0-.788-.285-1.576-.784-2.078-.498-.573-1.14-1.003-1.923-1.146a1.003 1.003 0 01-.855-1.003c0-1.934-.712-3.654-1.994-4.872a6.765 6.765 0 00-4.844-2.006c-1.425 0-2.778.358-3.775 1.147-1.14.716-1.995 1.79-2.565 3.08-.142.358-.498.573-.926.573-1.282.072-2.35.645-3.205 1.505a4.868 4.868 0 00-1.282 3.295c0 1.362.498 2.508 1.353 3.367.784.789 1.71 1.218 2.778 1.362 1.353.215.997 2.149-.214 2.006-1.567-.215-2.849-.788-3.989-1.935C.713 15.117 0 13.397 0 11.534c0-1.79.712-3.439 1.852-4.656.997-1.075 2.35-1.791 3.847-2.078.712-1.361 1.78-2.58 3.063-3.367C10.186.5 11.896 0 13.677 0c2.422 0 4.63.931 6.268 2.58 1.425 1.432 2.351 3.366 2.565 5.515.926.287 1.71.932 2.28 1.577A5.272 5.272 0 0126 13.039c0 1.433-.57 2.794-1.496 3.725-.855.788-1.923 1.361-3.205 1.505H20.23a.977.977 0 01-.997-1.003c0-.502.427-1.003.997-1.003h.712z" fill="#E30613"/></svg>