<svg width="16" height="16" fill="none" xmlns="http://www.w3.org/2000/svg"><path d="M9.634 15.89c-.078.004-.128.01-.178.01-1.069 0-2.134-.003-3.203.003-.15 0-.19-.04-.19-.19.003-2.488.003-4.979.003-7.466V8.03H4.344V5.375h.168c.47 0 .938-.003 1.407.003.119 0 .15-.034.15-.15-.006-.697-.006-1.397 0-2.094.003-.487.081-.962.306-1.403C6.697 1.11 7.206.706 7.85.456 8.375.25 8.928.175 9.484.166c.907-.013 1.813-.007 2.72-.01.083 0 .152-.003.152.116-.003.86-.003 1.719-.003 2.578 0 .01-.003.019-.015.06h-.172c-.563 0-1.125-.004-1.688 0-.325 0-.587.13-.753.415a.601.601 0 00-.081.294c-.01.531 0 1.062-.007 1.594 0 .125.038.159.16.159.781-.006 1.562-.003 2.344-.003h.228l-.325 2.653h-2.41v7.869z" fill="#fff"/></svg>