<svg width="20" height="20" fill="none" xmlns="http://www.w3.org/2000/svg"><path d="M19.583 5a.833.833 0 00-.834-.833H10a.833.833 0 000 1.667h8.75A.833.833 0 0019.583 5zM1.25 5.833h2.229a2.5 2.5 0 100-1.666h-2.23a.833.833 0 000 1.666zm4.583-1.666a.833.833 0 110 1.666.833.833 0 010-1.666zm12.917 5h-3.063a2.5 2.5 0 100 1.666h3.063a.834.834 0 000-1.666zm-5.417 1.666a.833.833 0 110-1.665.833.833 0 010 1.665zM9.166 9.167H1.249a.833.833 0 000 1.667h7.917a.833.833 0 100-1.667zm9.584 5h-7.083a.833.833 0 100 1.667h7.084a.833.833 0 000-1.667zM7.5 12.5a2.5 2.5 0 00-2.355 1.667H1.25a.834.834 0 000 1.666h3.896A2.5 2.5 0 107.5 12.5zm0 3.333a.833.833 0 11-.001-1.666.833.833 0 010 1.666z" fill="#fff"/></svg>