<svg width="16" height="16" fill="none" xmlns="http://www.w3.org/2000/svg"><path d="M15.783 8.031c0 1.088-.022 2.179.006 3.266.047 1.925-1.162 3.413-2.703 4.075a4.888 4.888 0 01-1.94.406c-2.104.003-4.21.032-6.313-.01-1.584-.03-2.887-.693-3.822-2a3.901 3.901 0 01-.725-2.315V4.735c0-1.829.89-3.107 2.472-3.938.688-.36 1.434-.512 2.213-.516 2.04 0 4.084-.012 6.124.007C12.68.3 14.002.906 14.977 2.18a3.91 3.91 0 01.806 2.432V8.03zm-14.344 0v3.438c0 .512.119.994.385 1.428.697 1.14 1.75 1.697 3.056 1.719 2.097.031 4.197.012 6.297.006.515 0 1.015-.106 1.481-.328 1.269-.606 1.978-1.572 1.972-3.022-.013-2.219-.003-4.437-.003-6.656a2.82 2.82 0 00-.55-1.71c-.719-.971-1.713-1.45-2.9-1.462-2.094-.025-4.188-.01-6.281-.006-.447 0-.879.09-1.297.247-1.15.428-2.22 1.512-2.17 3.109.038 1.081.01 2.16.01 3.237z" fill="#fff"/><path d="M8.05 11.344c-2.016 0-3.64-1.606-3.644-3.606-.003-1.97 1.635-3.582 3.638-3.582 2.01-.003 3.64 1.607 3.643 3.59 0 1.982-1.628 3.595-3.637 3.598zm0-1.156c1.372 0 2.484-1.097 2.481-2.447-.003-1.338-1.115-2.432-2.481-2.432-1.372 0-2.49 1.091-2.49 2.438.003 1.35 1.118 2.444 2.49 2.44zm4.061-7.125c.422 0 .766.359.766.8-.003.44-.35.796-.772.793-.416-.003-.756-.36-.756-.79-.004-.441.34-.804.762-.804z" fill="#fff"/></svg>