<svg width="24" height="24" fill="none" xmlns="http://www.w3.org/2000/svg"><path d="M17.852 15.06a.592.592 0 00-.172-.296c-.237-.233-.756-.355-1.547-.366a12.788 12.788 0 00-1.86.137c-.304-.174-.617-.366-.863-.596-.662-.617-1.213-1.474-1.558-2.417l.06-.244s.371-2.115.274-2.831a.823.823 0 00-.049-.203l-.032-.082c-.101-.235-.3-.482-.611-.469l-.184-.005h-.004c-.348 0-.63.178-.705.442-.225.832.008 2.08.43 3.692l-.109.262c-.302.74-.68 1.482-1.014 2.136l-.043.084a35.424 35.424 0 01-.962 1.769l-.298.157c-.023.011-.535.283-.655.354-1.018.61-1.693 1.3-1.805 1.847-.036.177-.01.4.172.503l.289.146a.887.887 0 00.394.094c.725 0 1.567-.904 2.728-2.929a27.131 27.131 0 014.202-.998c1.018.572 2.27.972 3.061.972.141 0 .263-.013.36-.04a.625.625 0 00.358-.243c.154-.231.184-.55.143-.876zm-11.01 3.564c.131-.361.656-1.078 1.43-1.711.05-.04.17-.152.278-.257-.81 1.292-1.352 1.805-1.708 1.968zm4.586-10.561c.233 0 .366.586.377 1.138.011.55-.118.937-.277 1.224-.133-.424-.197-1.091-.197-1.528 0 0-.01-.835.097-.835zm-1.369 7.526c.164-.29.332-.598.505-.923.422-.797.688-1.42.885-1.931a6.388 6.388 0 001.46 1.813c.074.06.15.122.23.184-1.173.23-2.187.514-3.08.857zm7.394-.066c-.072.043-.276.07-.407.07-.424 0-.95-.194-1.688-.51.283-.021.544-.032.776-.032.426 0 .552-.002.97.105.416.106.422.322.349.367z" fill="#FF402F"/><path d="M19.5 15a4.5 4.5 0 100 9 4.5 4.5 0 000-9zm2.04 3.185l-.02.033-1.544 2.145a.565.565 0 01-.951 0l-1.565-2.178a.564.564 0 01.488-.841h.802v-1.219c0-.31.252-.563.563-.563h.375c.31 0 .562.253.562.563v1.219h.802a.565.565 0 01.488.841z" fill="#FF402F"/><path d="M15.75 23.615l-.01.01h.01v-.01zm5.625-9.178v-.01l-.01.01h.01z" fill="#FF9A30"/><path d="M20.826 8.296L13.454.924A1.863 1.863 0 0012.13.375H4.5A1.877 1.877 0 002.625 2.25v19.5c0 1.034.841 1.875 1.875 1.875h11.24l-.75-.75H4.5c-.62 0-1.125-.505-1.125-1.125V2.25c0-.62.505-1.125 1.125-1.125h7.629c.3 0 .583.117.795.33l7.372 7.37c.209.21.329.5.329.796v4.057l.75.75V9.621c0-.5-.195-.971-.55-1.325z" fill="#FF402F"/><path d="M21.366 14.437l.009-.01-.75-.75" fill="#fff"/></svg>