<svg width="32" height="32" fill="none" xmlns="http://www.w3.org/2000/svg"><path d="M26 31.5H6A2.503 2.503 0 013.5 29V3C3.5 1.621 4.622.5 6 .5h10.172c.668 0 1.296.26 1.767.732l9.829 9.829c.472.472.732 1.1.732 1.767V29c0 1.378-1.122 2.5-2.5 2.5zM6 1.5c-.827 0-1.5.673-1.5 1.5v26c0 .827.673 1.5 1.5 1.5h20c.827 0 1.5-.673 1.5-1.5V12.828c0-.394-.16-.781-.44-1.06l-9.828-9.829a1.49 1.49 0 00-1.06-.439H6z" fill="#FD4233"/><path d="M23.802 20.08c-.017-.127-.12-.287-.23-.395-.315-.31-1.008-.473-2.063-.487a17.04 17.04 0 00-2.48.182c-.404-.232-.822-.488-1.15-.795-.882-.823-1.617-1.965-2.077-3.223.03-.117.055-.22.08-.325 0 0 .495-2.82.365-3.775a1.097 1.097 0 00-.065-.27l-.042-.11c-.136-.312-.4-.642-.816-.624l-.245-.008h-.005c-.464 0-.84.238-.94.59-.3 1.11.01 2.773.573 4.922l-.145.35c-.402.986-.907 1.976-1.352 2.848l-.058.113a47.85 47.85 0 01-1.282 2.357l-.398.21a33.4 33.4 0 00-.872.473c-1.358.812-2.258 1.732-2.408 2.462-.047.235-.012.533.23.67l.385.195c.168.082.345.125.525.125.967 0 2.09-1.205 3.637-3.905a36.184 36.184 0 015.603-1.33c1.358.763 3.027 1.295 4.082 1.295.188 0 .35-.017.48-.052a.834.834 0 00.478-.326c.205-.307.245-.732.19-1.167zm-14.68 4.753c.175-.483.875-1.438 1.908-2.283.065-.053.225-.203.37-.343-1.08 1.723-1.803 2.408-2.278 2.625zm6.115-14.083c.31 0 .488.783.502 1.518.015.734-.157 1.25-.37 1.632-.177-.565-.262-1.455-.262-2.037 0 0-.012-1.113.13-1.113zm-1.825 10.035c.217-.387.442-.797.672-1.23a23.032 23.032 0 001.18-2.575 8.517 8.517 0 001.948 2.418c.098.08.2.162.305.244-1.563.308-2.915.686-4.105 1.143zm9.857-.087c-.095.057-.367.092-.542.092-.565 0-1.268-.258-2.25-.68.378-.027.725-.043 1.035-.043.567 0 .735-.002 1.293.14.555.143.562.43.465.49z" fill="#FF402F"/></svg>