<svg width="31" height="30" fill="none" xmlns="http://www.w3.org/2000/svg"><path fill-rule="evenodd" clip-rule="evenodd" d="M16.222 21.475c1.614.082 3.057.328 4.501.902.17.082.34.082.595.164.85-1.967 1.274-4.344 1.359-6.885h-6.455v5.82zm-1.444 0v-5.737H8.323c.085 2.54.595 4.918 1.36 6.885.17-.082.339-.082.594-.164 1.359-.656 2.887-.902 4.501-.984zm0-12.95c-1.614-.082-3.058-.328-4.501-.902l-.595-.164c-.764 1.967-1.274 4.344-1.359 6.885h6.455v-5.82zm6.54-1.066l-.595.164c-1.444.574-2.972.82-4.501.902v5.737h6.455c-.085-2.459-.595-4.836-1.36-6.803zm3.142 16.885l.34-.328c2.293-2.213 3.652-5.082 3.822-8.36H24.12c-.085 2.787-.595 5.327-1.444 7.459.594.41 1.189.737 1.783 1.23zm-3.822 2.377c.935-.328 1.869-.901 2.633-1.475-.34-.328-.85-.574-1.274-.82-.085.246-.255.492-.34.738-.254.574-.594 1.065-1.019 1.557zm-4.416.902c.51 0 .934-.082 1.444-.082 1.104-.574 2.038-1.721 2.803-3.033.084-.246.254-.41.34-.655l-.595-.165c-1.274-.491-2.548-.737-3.992-.82v4.755zm-8.578-2.377c.85.574 1.698 1.065 2.718 1.475-.34-.492-.765-.983-1.104-1.557-.085-.246-.255-.492-.34-.738-.51.246-.85.492-1.274.82zm-5.35-9.59c.169 3.196 1.613 6.147 3.821 8.36l.34.328c.594-.41 1.189-.82 1.868-1.147-.849-2.131-1.359-4.672-1.444-7.46H2.293v-.081zm4.16-9.918c-.084.082-.169.246-.339.327-2.208 2.214-3.652 5.083-3.822 8.361h4.501c.085-2.787.595-5.328 1.444-7.459-.51-.492-1.189-.82-1.783-1.23zm3.908-2.377c-1.02.328-1.869.901-2.718 1.475.424.328.85.574 1.274.82.085-.246.255-.492.34-.738a10.37 10.37 0 011.104-1.557zm4.416-1.066c-.51.082-.934.082-1.444.164-1.019.574-1.953 1.721-2.803 3.033-.085.246-.254.41-.34.656l.51.163c1.274.492 2.633.738 3.992.82V2.295h.085zm2.888.164c-.51-.082-.934-.082-1.444-.164v4.836c1.444-.082 2.803-.328 3.992-.82l.594-.163c-.085-.246-.255-.41-.34-.656-.764-1.312-1.783-2.377-2.802-3.033zm5.69 2.295a16.486 16.486 0 00-2.633-1.475c.34.491.68.983 1.02 1.557.084.246.254.492.34.738.424-.246.849-.492 1.273-.82zm1.444 1.23l-.34-.328c-.594.41-1.189.82-1.868 1.147.85 2.131 1.359 4.672 1.444 7.46h4.501c-.085-3.197-1.529-6.066-3.737-8.28zM14.778 27.623v-4.836c-1.359.082-2.803.328-3.992.82l-.51.163c.086.246.17.41.34.656.85 1.312 1.784 2.46 2.803 3.033.425.164.85.164 1.359.164zM15.543 0c4.246 0 8.153 1.721 10.956 4.344C29.3 7.05 31 10.82 31 15c0 4.098-1.699 7.869-4.501 10.574A15.831 15.831 0 0115.543 30c-4.247 0-8.154-1.721-11.042-4.426A14.673 14.673 0 010 15c0-4.098 1.699-7.869 4.501-10.656A16.19 16.19 0 0115.543 0z" fill="#503E3F"/></svg>