<svg width="33" height="31" fill="none" xmlns="http://www.w3.org/2000/svg"><path fill-rule="evenodd" clip-rule="evenodd" d="M28.163 28.733l-9.442-9.636 2.314-2.362 9.442 9.636-2.314 2.362zm-20.735-.19l-2.314-2.361 9.72-9.92 3.425-3.495 2.499-2.55c.185-.19.277-.473.185-.85l-.093-.19-.092-.188c-.37-1.512-.185-3.118.555-4.44.648-1.228 1.944-2.268 3.425-2.646.833-.283 1.759-.283 2.592-.094.278.094.555.094.833.189l-.278.094-2.129.662a.843.843 0 00-.555.566l-.555 2.173-.649 2.173c-.092.189 0 .567.186.756l1.573 1.511 1.481 1.512c.186.283.463.378.834.283l2.128-.567.186-.094c-.093.189-.37.378-.556.661-.648.567-1.48.945-2.314 1.228-.648.095-1.296.19-2.036.095-.648-.095-1.296-.19-1.852-.473-.37-.189-.648-.094-.925.095L7.428 28.543zM9.187 9.367c-.278-.283-.74-.283-1.018-.094-.185.095-.37.283-.556.378h-.092c-.185.094-.37.283-.648.378-.093.094-.185.094-.278.189a2.528 2.528 0 00-.555.944c-.093.284-.093.567-.093.85l-.925.945-1.481-1.511-.093-.095v-.094h-.093L1.967 9.744 2.8 8.8c.37 0 .648 0 .926-.095.463-.094.833-.378 1.11-.661.093-.095.093-.189.186-.283.092-.19.092-.378.277-.662.093-.189.185-.378.37-.661.186-.378.093-.756-.092-.945l-.185-.283 2.314-2.362.185.283c.278.284.74.284 1.018.095.278-.189.556-.378.834-.472.277-.095.462-.284.74-.378.093-.095.185-.095.278-.095.925-.85 1.758-1.228 2.684-1.133.37.094.74.094 1.204.378-.093 0-.186.094-.37.094a4.256 4.256 0 00-1.852 1.795c0 .094-.093.094-.093.189-.092.283-.092.661-.37.945v.094c-.093.378-.37.661-.648 1.04-.185.377-.093.755.093.944l5.09 5.196-2.313 2.361-4.999-4.818zm13.052 6.33l1.388-1.417c.648.283 1.204.378 1.944.472.833.095 1.759 0 2.5-.189a9.987 9.987 0 002.961-1.606c.834-.755 1.482-1.794 1.944-2.834.093-.378-.092-.945-.462-1.039-.093-.094-.37-.094-.463-.094l-2.037.66-1.758.379L27.052 8.8 25.85 7.57l.463-1.795.37-1.7 1.759-.472 2.036-.567c.37-.094.648-.567.555-.945 0-.094-.092-.283-.277-.378C29.922 1.054 28.81.486 27.7.297 26.682.014 25.48.11 24.368.392c-1.944.472-3.425 1.795-4.35 3.4-.926 1.607-1.204 3.685-.741 5.574l.092.095v.095l-1.573 1.605-4.629-4.723c.093-.284.278-.472.37-.756.186-.378.37-.85.37-1.228a2.416 2.416 0 011.02-.945c.462-.189 1.11-.283 1.758-.189.278 0 .463-.094.648-.283.277-.283.277-.756 0-1.133C16.13.77 14.833.107 13.445.014c-1.203-.094-2.5.283-3.702 1.322-.278.095-.463.19-.834.378l-.37.284-.37-.378c-.37-.283-.833-.283-1.111 0L3.633 5.115a.717.717 0 000 1.134l.37.378-.092.094v.095l-.278.567c-.092.094-.185.094-.37.094-.093 0-.37.095-.648 0a.99.99 0 00-.648.284L.208 9.46c-.277.378-.277.85 0 1.133l2.037 2.079.092.094h.093v.095l2.036 2.078c.37.378.833.378 1.11 0l1.76-1.7c.092-.095.277-.378.185-.662 0-.189 0-.377.092-.66.093-.095.093-.19.186-.284.092-.095.37-.19.555-.378l.185-.095 4.628 4.724-9.719 9.92c-.278.377-.278.85 0 1.133l3.518 3.495c.277.378.74.378 1.11 0l9.72-9.919 9.997 10.203c.277.378.74.378 1.11 0l3.425-3.496c.278-.283.278-.755 0-1.133l-10.09-10.392z" fill="#503E3F"/></svg>