<svg width="35" height="33" fill="none" xmlns="http://www.w3.org/2000/svg"><path fill-rule="evenodd" clip-rule="evenodd" d="M24.967 13.717l-2.593 1.59 1.537 2.883 2.688-1.59-1.632-2.883zm-4.993-9.145l-2.593 1.59 1.536 2.784 2.593-1.59-1.537-2.784zm-.192 22.265c.384.398.576.895.576 1.392 0 .497-.192.994-.576 1.391-.385.398-.769.597-1.345.597-.48 0-.96-.199-1.248-.597l-.096-.099c-.384-.298-.48-.795-.48-1.292s.192-.994.576-1.392c.288-.397.768-.497 1.248-.497.576-.1 1.056.1 1.345.497zm-1.345-3.38h-.672L6.625 3.48c-.191-.398-.671-.795-1.247-.795H1.344C.672 2.684 0 3.38 0 4.075c0 .796.672 1.392 1.344 1.392H4.61L15.27 24.75l-.097.1a4.82 4.82 0 00-1.344 3.379c0 1.292.384 2.385 1.248 3.28l.096.1c.768.894 1.92 1.391 3.17 1.391 1.247 0 2.4-.497 3.264-1.392a4.819 4.819 0 001.344-3.38c0-.894-.192-1.689-.672-2.385l12.003-7.256c.673-.397.96-1.192.48-1.888-.384-.696-1.248-.994-1.824-.497L20.07 23.855c-.288-.298-.96-.397-1.633-.397zm6.05-21.568l-3.073 1.888 2.016 3.579c.192.397.096.993-.288 1.192l-4.033 2.386c-.384.199-.96.1-1.152-.298L15.94 7.057l-2.976 1.889 6.625 11.928 3.073-1.889-2.016-3.578c-.192-.398-.096-.994.288-1.193l4.033-2.386c.384-.198.864-.1 1.056.299l2.017 3.578 3.073-1.889L24.487 1.89zm-.192-1.79c.384-.198.864-.099 1.152.299l7.394 13.418c.288.398.096.895-.288 1.094v.099l-12.868 7.654c-.384.198-.96.099-1.152-.299l-7.49-13.418c-.192-.398-.096-.895.288-1.094L24.295.1z" fill="#503E3F"/></svg>