<svg width="407" height="113" fill="none" xmlns="http://www.w3.org/2000/svg"><path d="M172.442 113.002h8.342V98.995c0-4.228 2.121-6.074 5.231-6.074s5.245 1.804 5.245 6.074v14.007h8.342V98.995c0-9.132-5.447-13.726-13.587-13.726-8.141 0-13.573 4.637-13.573 13.726v14.007zm46.308-7.652a6.784 6.784 0 01-3.809-.942 6.624 6.624 0 01-2.616-2.881 6.475 6.475 0 01-.521-3.827 6.54 6.54 0 011.751-3.456 6.727 6.727 0 013.423-1.895 6.8 6.8 0 013.914.319 6.67 6.67 0 013.058 2.423 6.504 6.504 0 011.149 3.692 6 6 0 01-.34 2.512 6.086 6.086 0 01-1.349 2.159 6.213 6.213 0 01-2.125 1.434 6.298 6.298 0 01-2.535.462zm0 7.652a14.542 14.542 0 007.405-1.674 14.234 14.234 0 005.494-5.161 14.429 14.429 0 001.964-7.384c0-8.215-6.12-14.232-14.805-14.232-8.686 0-14.863 6.017-14.863 14.232 0 8.216 6.12 14.219 14.805 14.219zm19.162 0h8.341V97.628c0-3.622 1.677-4.707 4.013-4.707s4.013 1.085 4.013 4.707v.211h8.341v-.155c0-8.54-5.001-12.415-12.354-12.415-7.352 0-12.354 3.932-12.354 12.359v15.374zm41.793-7.653a6.79 6.79 0 01-3.809-.942 6.629 6.629 0 01-2.616-2.881 6.485 6.485 0 01-.522-3.827 6.548 6.548 0 011.752-3.457 6.725 6.725 0 013.422-1.895 6.799 6.799 0 013.914.32 6.675 6.675 0 013.059 2.422 6.504 6.504 0 011.149 3.693 5.986 5.986 0 01-.341 2.512 6.081 6.081 0 01-1.349 2.159 6.208 6.208 0 01-2.125 1.434 6.293 6.293 0 01-2.534.462zm0 7.651c8.399 0 14.633-5.411 14.633-14.5V73.445h-8.341v14.768a9.158 9.158 0 00-3.433-2.79 9.321 9.321 0 00-4.364-.874c-6.234 0-13.357 4.481-13.357 13.895.057 8.652 6.177 14.556 14.919 14.556h-.057zm31.943.001a11.077 11.077 0 005.167-1.026 10.897 10.897 0 004.077-3.286 10.801 10.801 0 004.071 3.296 11.007 11.007 0 005.173 1.016c6.679 0 11.795-3.819 11.795-12.528V85.269h-8.341v15.204c0 3.622-1.792 4.876-4.3 4.876s-4.228-1.254-4.228-4.876V85.269h-8.327v15.204c0 3.622-1.791 4.876-4.299 4.876-2.508 0-4.3-1.254-4.3-4.876V85.269h-8.341v15.204c.057 8.709 5.174 12.528 11.853 12.528zm43.469-17.179a5.647 5.647 0 012.26-3.04 5.809 5.809 0 013.702-.962 5.883 5.883 0 013.752.946 5.72 5.72 0 012.311 3.056h-12.025zm5.962 17.121c6.851 0 12.082-3.72 13.859-9.301h-8.599c-1.06 1.41-2.866 1.973-5.231 1.973a5.801 5.801 0 01-3.97-1.131 5.624 5.624 0 01-2.164-3.463h20.767v-2.24a13.546 13.546 0 00-.973-5.573 13.724 13.724 0 00-3.174-4.715 13.995 13.995 0 00-4.835-3.059 14.196 14.196 0 00-5.68-.886c-8.685 0-14.805 6.017-14.805 14.233 0 8.215 6.12 14.218 14.805 14.218v-.056zm15.193.057h9.746l5.504-9.3 5.517 9.3H407l-9.402-13.838 8.958-13.19h-9.746l-5.059 8.597-5.059-8.596h-9.975l8.914 13.19L376.272 113z" fill="#fff"/><path fill-rule="evenodd" clip-rule="evenodd" d="M95.895 36.511h31.989L92.241 9.864H59.75l36.144 26.647zM50.348 15.374v17.192l38.84 28.986v-17.6l-38.84-28.578zm87.755 31.002h-38.84v22.673l38.84 28.986v-51.66zM10.033 76.094l30.24 22.082V37.484l-30.24-22.547v61.157zm40.272 27.042h38.84V73.995l-38.797-29-.043 58.141zM40.273 25.083V4.96a4.873 4.873 0 01.38-1.9 4.94 4.94 0 011.093-1.611A5.036 5.036 0 0143.385.374 5.105 5.105 0 0145.318 0h48.628a5.014 5.014 0 013.039 1.015l49.201 36.722a4.97 4.97 0 011.466 1.744c.346.684.526 1.438.527 2.202v66.371a4.893 4.893 0 01-.752 2.615 5.002 5.002 0 01-2.042 1.83 5.112 5.112 0 01-5.29-.499L99.263 81.52v26.534c0 .651-.13 1.295-.384 1.896a4.95 4.95 0 01-1.094 1.607 5.048 5.048 0 01-1.637 1.071 5.096 5.096 0 01-1.93.372h-48.9a5.075 5.075 0 01-3.01-.972l-1.233-.902h-.802v-.592L2.035 82.52a4.94 4.94 0 01-1.5-1.747A4.85 4.85 0 010 78.546V4.96a4.884 4.884 0 01.751-2.614A5 5 0 012.794.516a5.105 5.105 0 015.29.499l32.189 24.068z" fill="#fff"/></svg>