<svg width="342" height="52" fill="none" xmlns="http://www.w3.org/2000/svg"><path d="M316.381 51.044c5.654-11.026 13.876-19.478 24.663-25.444 0 .03-24.643-24.615-24.643-24.643-12.334 12.357-19.62 19.555-24.658 24.643-.006 0 .048.03 0 0 10.43 5.68 18.534 13.923 24.638 25.444z" fill="#FFEE01"/><path d="M21.787 44.058h-5.585V29.023L.957 7.43h7.068l10.93 16.195L29.964 7.448h6.994l-15.17 21.45v15.16z" fill="#231F20"/><path d="M49.937 6.333c-2.767 0-17.953 1.224-17.953 19.69 0 17.4 15.206 18.984 18.122 19.006 3.063.022 18.088-1.762 18.088-19.47 0-16.79-13.522-19.226-18.257-19.226zm.373 33.863c-5.425 0-12.661-3.157-12.661-14.563 0-10.416 6.89-14.556 12.314-14.556 4.96 0 12.538 3.237 12.538 15.033 0 11.587-8.362 14.086-12.191 14.086zm26.218 3.844h-5.56V7.407l5.905.015v17.333L94.152 7.427h7.589L86.494 22.71l16.449 21.314-7.15.03-13.58-17.946-5.685 5.374V44.04z" fill="#231F20"/><path d="M116.187 6.24c-5.294.18-18.46 2.881-18.46 19.1 0 17.848 14.248 19.652 18.629 19.629 4.901-.03 17.72-3.446 17.784-19.494.074-19.228-18.167-19.233-17.953-19.236zm-.03 33.913c-5.304 0-12.597-2.836-12.597-14.537 0-11.174 7.323-14.554 12.472-14.554 6.463 0 12.235 4.78 12.235 14.314 0 12.316-7.827 14.777-12.11 14.777zm38.641-15.385l15.891.015-.052 19.078h-4.403l-.638-3.533c-3.439 3.354-6.874 4.52-12.424 4.504-8.01-.014-16.766-6.368-16.766-19.404 0-8.86 5.629-18.989 17.394-18.938 6.234 0 14.913 2.077 16.383 11.712l-5.759.022c-.727-2.426-2.795-7.17-10.144-7.17-6.014 0-11.962 3.66-11.962 14.806 0 10.547 6.612 14.452 11.673 14.452 4.95 0 9.627-1.684 11.515-10.493h-10.682l-.026-5.053m35.811-17.285l-7.523.015-11.727 36.528h6.009l3.115-10.138 14.328-.014 4.035 10.067 6.152-.058-14.389-36.4zm-8.715 21.68l4.991-16.42 1.072 2.943 4.995 13.477h-11.058zM198.242 7.43h6.262c4.921 19.881 5.894 23.373 6.979 27.257.863-3.66 2.649-8.455 7.469-27.257h5.669c5.718 20.269 6.571 23.396 7.817 27.476.867-3.394 2.059-7.437 6.945-27.476h5.928l-9.81 36.523-5.869.072c-4.755-16.213-5.34-18.175-7.747-26.714-1.981 6.805-2.369 8.567-7.459 26.681h-6.032L198.242 7.431m61.374-.057h-7.219l-12.952 36.595h5.787l3.331-9.786 14.573.014 3.551 9.753 6.053-.014-13.124-36.562zm-9.317 21.963l5.639-16.214-.005-.074 5.682 16.3-11.316-.012z" fill="#231F20"/></svg>