<svg width="106" height="32" fill="none" xmlns="http://www.w3.org/2000/svg"><path d="M9.763 20.018l-2.74 7.97c-.082.58.053 1.045.402 1.382.532.525 1.335.798 2.407.82v.204H.953v-.204c1.871-.124 3.01-.76 3.42-1.912L13.774.905l11.583 27.527c.414 1.05 1.448 1.634 3.088 1.758l.035.204h-9.159v-.204c.964 0 1.662-.26 2.094-.786.24-.2.305-.554.191-1.058-.697-1.727-1.862-4.505-3.488-8.328H9.763zm.593-1.74h6.995l-3.768-9.233-3.227 9.233zM86.274 3.38v-.154c6.198-.021 10.153.073 11.863.273 1.39.162 2.69.679 3.89 1.553 1.208.879 2.058 1.958 2.547 3.243.309.844.471 1.736.471 2.679 0 1.937-.602 3.575-1.797 4.915-1.561 1.672-3.389 2.508-5.478 2.508a6.88 6.88 0 01-2.285-.392c-.593-.2-.89-.397-.89-.58 1.453.046 2.46.008 3.018-.12.964-.235 1.858-.755 2.687-1.553.833-.806 1.347-1.694 1.535-2.662.1-.44.157-.887.157-1.331 0-2.466-1.112-4.407-3.332-5.82-1.012-.656-2.22-.99-3.611-.99-.78 0-1.522.125-2.216.36v22.457c0 1.357.934 2.163 2.809 2.424v.204h-9.28v-.204c1.334-.18 2.25-.687 2.738-1.52.162-.315.245-1.352.245-3.105V5.547c0-1.08-.703-1.762-2.094-2.048-.222-.021-.55-.06-.977-.12zm-45.408-.154c1.522 0 2.966.457 4.326 1.365 1.37.9 2.355 2.057 2.949 3.465.37.921.558 1.907.558 2.952 0 1.992-.62 3.63-1.85 4.915-.584.627-1.347 1.22-2.285 1.775 2.011 2.457 4.824 5.776 8.444 9.949 1.23 1.433 2.887 2.129 4.971 2.082.035.025.053.076.053.153-.803.444-1.75.666-2.826.666-1.361 0-2.556-.324-3.576-.973-1.584-1.02-3.232-2.598-4.937-4.727-2.757-3.511-4.165-5.294-4.222-5.341-.885-.965-1.914-1.558-3.088-1.775v-.154c2.194.184 3.912-.448 5.147-1.894.846-.986 1.273-2.27 1.273-3.84 0-.793-.118-1.544-.349-2.252-.384-1.123-1.103-2.117-2.146-2.97-1.037-.849-2.15-1.352-3.331-1.502-1.283-.192-2.325-.115-3.123.222V27.92c.065.546.375 1.032.925 1.45.449.367.968.606 1.552.717l.803.102v.205h-9.682v-.204c1.474-.18 2.429-.717 2.86-1.605l.123-.75V5.666c0-.943-.554-1.613-1.657-2.014-.432-.124-1.008-.214-1.727-.273v-.154h10.815zm41.082.154c-1.932.264-2.97.908-3.105 1.928v16.98c-.13 1.63-.71 3.162-1.744 4.59a10.43 10.43 0 01-3.873 3.277c-1.291.623-2.752.939-4.379.939-2.071 0-3.86-.486-5.355-1.45-3.131-1.967-4.693-4.732-4.693-8.294V5.513c0-.794-.484-1.416-1.448-1.86-.117-.022-.658-.111-1.622-.273v-.188h9.525v.154c-1.793.128-2.813.772-3.053 1.928v16.895c0 2.675 1.151 4.697 3.454 6.058 1.042.64 2.268.956 3.663.956 1.767 0 3.358-.619 4.78-1.86 1.417-1.25 2.146-2.74 2.18-4.472l.035-3.157V5.701c0-.883-.527-1.54-1.57-1.963-.209-.077-.745-.196-1.604-.358v-.188h8.81v.188z" fill="#000"/></svg>