<svg width="158" height="34" fill="none" xmlns="http://www.w3.org/2000/svg"><g clip-path="url(#clip0_351_1224)" fill="#2C4255"><path d="M16.733 8l9.423 25.183h7.207L20.918 1.441h-8.043L.727 33.183h6.767l9.24-25.182zm23.034-1.54H30.93l-1.934-5.02H55.59v5.02h-9.35v26.723h-6.472V6.46zm19.76 26.723V1.441h6.477v13.613L77.792 1.44h7.785l-13.25 14.87 13.795 16.872h-8.187l-11.93-14.799v14.8h-6.478zm36.71-31.742h-6.475v31.744h6.475V1.441zm26.155 31.744L109.549 9.932v23.253h-5.936V1.441h7.866l12.771 23.215V1.441h5.935v31.744h-7.793zm32.892-25.611a14.863 14.863 0 00-7.024-1.723c-2.25 0-5.459 1.003-5.459 4.048 0 3.046 3.758 3.863 7.284 5.266 4.251 1.682 7.455 3.866 7.455 9.026 0 6.63-5.456 10.034-12.522 10.034-3.606 0-6.766-.825-9.135-2.01l.799-5.769a15.835 15.835 0 008.226 2.438c3.345 0 5.814-1.293 5.814-4.157 0-2.863-3.485-3.906-6.979-5.302-3.714-1.47-7.679-3.336-7.679-8.852 0-6.592 5.972-9.85 11.828-9.85 3.379 0 5.893.68 8.078 1.723l-.686 5.128z"/></g><defs><clipPath id="clip0_351_1224"><path fill="#fff" d="M0 0h158v34H0z"/></clipPath></defs></svg>