<svg width="172" height="28" fill="none" xmlns="http://www.w3.org/2000/svg"><g clip-path="url(#clip0_351_1283)"><path d="M10.777 23.214c.959-.326 1.686-.749 2.149-1.27.495-.52.793-1.107.991-1.758a8.78 8.78 0 00.265-2.181v-.88c0-1.66-.132-2.864-.364-3.646-.231-.814-.661-1.367-1.256-1.66-.562-.293-1.488-.456-2.744-.554v-.195c1.091-.13 1.918-.424 2.612-.814.694-.423 1.124-.944 1.388-1.53.265-.619.397-1.4.397-2.247V4.884c0-1.172-.198-2.117-.595-2.8-.364-.717-1.124-1.237-2.15-1.564C10.413.163 8.926 0 6.975 0H0v23.67h7.074c1.521 0 2.744-.163 3.703-.456zM5.62 3.288h1.124c.43 0 .86.13 1.256.424.364.293.562.65.562 1.107v3.125c0 .489-.198.88-.562 1.205-.364.325-.86.456-1.421.456h-.96V3.288zm0 16.963v-7.228h1.42c.43 0 .794.163 1.091.489.298.293.463.65.463 1.107l-.033 3.841c0 .456-.165.912-.529 1.238-.33.358-.727.553-1.223.553H5.62zm17.554 1.335l.132 2.084h5.289c0-.033-.033-.228-.066-.586-.066-.391-.1-.651-.1-.847V9.084a4.93 4.93 0 00-.363-1.889c-.231-.586-.562-1.107-1.09-1.53-.497-.423-1.158-.781-1.918-1.01-.76-.227-1.686-.357-2.777-.357-2.314 0-4 .423-5.09 1.302-1.125.912-1.654 2.019-1.654 3.484v2.377h5.322V9.377c0-.391.1-.75.331-1.075.198-.325.496-.488.826-.488.695 0 1.091.488 1.091 1.465 0 .586-.033.88-.132 1.075-.066.162-.231.325-.43.553-.363.326-.793.619-1.223.912-.43.26-1.256.683-2.314 1.302-1.124.586-1.851 1.01-2.182 1.302-.462.489-.826 1.075-.991 1.693-.166.586-.265 1.433-.265 2.507.033 1.368.1 2.442.232 3.126.099.651.529 1.237 1.256 1.725a3.765 3.765 0 002.248.717c.892 0 1.719-.228 2.48-.684a2.909 2.909 0 001.255-1.823h.133v-.098zm-1.19-1.66c-.397 0-.662-.13-.86-.391-.132-.26-.231-.521-.231-.814v-1.986c0-.456.198-.88.561-1.205.1-.13.662-.586 1.653-1.4v4.819c0 .163-.099.39-.264.618-.165.26-.463.359-.86.359zM35.14 0h-5.323v23.67h5.323V0zm2.28 23.67h5.323V8.205h1.587V4.753h-1.587V4.07c0-.489.529-.782 1.62-.782V0H41.09c-.794 0-1.488.163-2.05.488-.529.293-.958.814-1.256 1.53-.264.684-.397 1.596-.397 2.735h-1.09v3.452h1.123V23.67zm20.034-2.377c.396-.879.595-1.953.595-3.19V10.32c0-2.019-.496-3.549-1.554-4.558-1.025-1.01-2.678-1.498-4.926-1.498-1.587 0-2.81.228-3.768.749a4.023 4.023 0 00-2.05 2.051c-.43.912-.628 1.986-.628 3.256v7.781c0 1.303.198 2.345.628 3.256.43.912 1.124 1.563 2.083 2.051.991.456 2.215.684 3.768.684 1.554 0 2.843-.228 3.769-.716.959-.489 1.653-1.172 2.083-2.084zm-4.728-2.019c0 .912-.396 1.368-1.19 1.368-.33 0-.628-.13-.793-.39-.199-.261-.298-.554-.298-.978V9.051c0-.456.1-.781.298-1.074.198-.228.463-.358.826-.358.364 0 .694.13.893.39.165.228.264.586.264 1.042v10.223zm19.538 4.396V4.753h-5.323v14.13c0 .261-.099.457-.33.652-.199.195-.496.293-.827.293-.364 0-.628-.13-.793-.39-.166-.229-.298-.49-.298-.815V4.753h-5.322v15.563c0 .75.132 1.465.43 2.019.297.586.694 1.042 1.19 1.335.496.293 1.124.456 1.785.456.992 0 1.851-.26 2.578-.75a4.968 4.968 0 001.686-1.855v2.181h5.224v-.032zm8.892-13.935v5.177h5.322V8.009c0-1.042-.33-1.953-.991-2.637-.629-.684-1.488-1.01-2.48-1.01-1.884 0-3.272.912-4.198 2.736v-2.28h-5.19v18.884h5.322V9.735c0-.326.132-.554.397-.782.231-.195.496-.293.76-.293a.98.98 0 01.727.293c.232.228.331.489.331.782zM107.174.488C106.116.163 104.628 0 102.678 0h-6.975v23.67h7.107c1.521 0 2.711-.163 3.702-.456.959-.326 1.686-.749 2.149-1.27.496-.52.794-1.107.959-1.758a8.79 8.79 0 00.264-2.181v-.88c0-1.66-.132-2.864-.363-3.646-.232-.814-.661-1.367-1.257-1.66-.562-.293-1.487-.456-2.71-.554v-.195c1.058-.13 1.917-.424 2.578-.814.661-.423 1.124-.944 1.389-1.53.264-.619.396-1.4.396-2.247V4.884c0-1.172-.198-2.117-.595-2.8-.363-.717-1.091-1.237-2.148-1.596zm-5.819 2.8h1.124c.43 0 .86.13 1.257.424.363.293.562.65.562 1.107v3.125c0 .489-.199.88-.562 1.205-.364.325-.86.456-1.422.456h-.926V3.288h-.033zm2.943 15.205c0 .456-.166.912-.562 1.237-.331.358-.728.554-1.224.554h-1.19v-7.26h1.422c.43 0 .76.162 1.091.488.297.293.463.65.463 1.107v3.874zm18.247-12.828c-1.057-.944-2.71-1.4-4.991-1.4-1.521 0-2.711.228-3.67.749-.925.456-1.62 1.14-2.016 2.019-.463.846-.628 1.92-.628 3.158V18.2c0 3.94 2.148 5.926 6.446 5.926 1.124 0 2.083-.13 2.942-.391.793-.293 1.488-.651 2.017-1.14.495-.488.925-1.041 1.157-1.693a5.51 5.51 0 00.363-1.92v-2.67h-5.322v3.125c0 .326-.099.619-.298.88-.198.227-.495.325-.826.325-.298 0-.562-.13-.793-.358-.232-.26-.331-.521-.331-.814v-4.754h7.57V9.28c-.033-1.465-.595-2.67-1.62-3.614zm-3.735 5.86h-2.248V9.28c0-1.107.364-1.628 1.124-1.628.331 0 .628.13.826.358.199.26.298.521.298.814v2.703zm19.504 10.745V9.084a4.93 4.93 0 00-.364-1.889 3.852 3.852 0 00-1.091-1.53c-.495-.423-1.157-.781-1.917-1.01-.793-.227-1.686-.357-2.777-.357-2.281 0-4 .423-5.091 1.302-1.124.912-1.653 2.019-1.653 3.484v2.377h5.323V9.377c0-.391.099-.75.33-1.075a.989.989 0 01.827-.488c.727 0 1.091.488 1.091 1.465 0 .586-.033.88-.133 1.075-.066.162-.231.325-.429.553a7.775 7.775 0 01-1.256.912c-.43.26-1.257.683-2.315 1.302-1.123.586-1.851 1.01-2.181 1.302a4.413 4.413 0 00-.992 1.693c-.165.586-.265 1.433-.265 2.507.034 1.368.1 2.442.232 3.126.099.651.562 1.237 1.256 1.725a3.766 3.766 0 002.248.717c.926 0 1.719-.228 2.479-.684.695-.456 1.124-1.107 1.257-1.823h.165l.132 2.083h5.289c0-.032-.033-.227-.066-.586-.066-.455-.099-.748-.099-.911zm-5.322-3.321c0 .163-.099.39-.265.618-.165.26-.463.359-.859.359-.43 0-.694-.13-.86-.391-.132-.26-.231-.521-.231-.814v-1.986c0-.456.198-.88.562-1.205.099-.13.661-.586 1.653-1.4v4.819zm22.909-17.68h-5.322v3.484h-4.232V1.27h-5.322v3.483h-1.785v3.452h1.785v11.883c0 1.107.33 1.954.992 2.605.661.651 1.553.977 2.644.977h4.033v-3.256h-1.025c-.892 0-1.322-.293-1.322-.88V8.205h4.232v11.884c0 1.107.33 1.986.991 2.605.694.651 1.554.977 2.612.977h4.033v-3.256h-1.025c-.926 0-1.355-.293-1.355-.88V8.205h2.347v-3.45h-2.347V1.27h.066zm11.603 3.484c-.066.489-.165 1.01-.33 1.596-.1.553-.199 1.172-.331 1.758-.099.619-.165 1.205-.264 1.79-.067.587-.1 1.173-.199 1.694-.33 2.246-.595 4.493-.661 6.707h-.132c-.066-1.889-.298-4.037-.694-6.544-.067-.521-.1-.977-.199-1.498-.066-.456-.132-1.042-.231-1.66-.099-.587-.199-1.27-.331-1.987a7.207 7.207 0 00-.099-.65c-.033-.196-.066-.359-.099-.554-.033-.163-.033-.293-.066-.391 0-.098-.033-.163-.033-.228h-5.323c1.488 6.772 2.414 11.2 2.943 13.349.826 3.549 1.256 5.47 1.256 5.828 0 .228-.066.423-.232.52-.165.131-.297.196-.429.196h-3.042V28h5.19a3.28 3.28 0 001.356-.293c.429-.195.793-.39.991-.684.463-.456.827-1.204 1.091-2.181.265-.977.628-2.54 1.091-4.623a1013.86 1013.86 0 013.306-15.498h-4.529v.032z" fill="#005D99"/></g><defs><clipPath id="clip0_351_1283"><path fill="#fff" d="M0 0h172v28H0z"/></clipPath></defs></svg>