<svg width="72" height="39" fill="none" xmlns="http://www.w3.org/2000/svg"><path fill-rule="evenodd" clip-rule="evenodd" d="M0 19.159v19.08h7.822V22.922h16.183v-7.524H7.822V.078H0V19.16zM24.005 3.533v3.533l2.36.005c5.293.012 8.42 1.024 10.945 3.544 2.497 2.491 3.608 5.69 3.34 9.619-.33 4.85-3.484 8.86-8.058 10.244-1.422.43-2.667.574-5.226.602l-3.36.038v3.6l-.001 3.602 3.709-.151c4.538-.185 7.054-.72 10.046-2.14 1.882-.892 2.707-1.503 4.599-3.402 3.879-3.894 5.428-7.73 5.438-13.468.017-9.11-5.223-16.077-13.774-18.313-1.388-.363-3.36-.59-6.04-.693L24.005 0v3.533zm24.005-.158v3.368l5.731.107c6.183.114 6.777.232 8.508 1.687 2.535 2.13 2.7 6.052.362 8.564-1.256 1.349-2.632 1.874-5.263 2.006l-2.395.121-1.284 2.71-1.284 2.71 7.01 7.132c3.855 3.922 7.114 7.17 7.242 7.218.291.108 5.335-4.018 5.363-4.386.011-.148-2.256-2.459-5.037-5.136l-5.058-4.866 1.488-.431c1.89-.548 4.091-2.077 5.543-3.853 3.792-4.638 3.237-12.157-1.217-16.48C64.677.891 62.738.36 54.28.156L48.01.007v3.368z" fill="#4E504F"/></svg>