<svg width="93" height="49" fill="none" xmlns="http://www.w3.org/2000/svg"><path fill-rule="evenodd" clip-rule="evenodd" d="M46.538.068h2.406l2.305.1c55.537 4.286 55.535 44.377 0 48.664l-2.305.099h-4.811C30.17 48.749 5.636 43.288.63 28.216l-.3-1.19-.201-1.288C-.858 9.423 24.335 1.53 37.217.564l4.61-.397 2.306-.099h2.405zm0 2.082h2.206l2.205.099c52.259 3.847 52.259 40.732 0 44.501l-2.206.1h-4.41c-12.85-.05-36.248-5.058-40.996-18.932l-.3-1.09-.1-1.19C1.831 10.573 26.038 3.551 37.716 2.546l2.206-.198 2.205-.1 2.205-.098h2.205zm0 2.775l2.105.099h2.105c48.692 3.558 48.707 35.46 0 38.951l-2.105.1h-4.21c-11.25-.085-33.886-4.309-38.189-16.553l-.3-.99-.1-.992C4.828 11.937 28.124 6.167 38.318 5.321l2.005-.099 2.005-.198h2.104l2.105-.1zm0-.892h2.105l2.105.099c49.767 3.485 49.768 37.298 0 40.735l-2.105.1h-4.21c-11.665.017-34.748-4.601-38.99-17.345l-.302-.991-.2-1.09C4.338 11.328 27.193 5.362 38.119 4.428l2.105-.198 2.105-.099 2.104-.1h2.105zM13.16 32.775V16.323h4.912l6.214 9.713v-9.713h4.51v16.452h-4.81l-6.315-9.91v9.91h-4.51zm18.744 0V16.323h4.711V28.81h5.012v3.964h-9.723zm10.424 0l2.506-16.452h4.711l2.907 10.01 3.007-10.01h4.711l2.506 16.452h-4.61l-1.204-9.514-2.906 9.514h-3.007l-2.807-9.514-1.303 9.514h-4.51zm22.152 0V16.323h4.711v6.938l5.112-6.938h5.513l-6.415 7.929 6.616 8.523h-5.914l-4.912-7.037v7.037" fill="#004696"/></svg>