<svg width="113" height="59" fill="none" xmlns="http://www.w3.org/2000/svg"><path fill-rule="evenodd" clip-rule="evenodd" d="M43.08 44.073v-1.014h-2.544v1.014h-.298v-2.175h.297v.943h2.545v-.944h.294v2.176h-.294zm1.291 0v-2.175h2.534v.216h-2.241v.727h2.182v.215h-2.182v.799h2.241v.218h-2.534zm7.675-.959v-.271c0-.517-.254-.778-1.056-.778h-.874v-.193h-.297v.193h-.863c-.808 0-1.062.217-1.062.778v.27c0 .554.287.746 1.062.746h.863v.214h.297v-.214h.874c.77 0 1.056-.182 1.056-.745zm-.299 0c0 .419-.2.53-.757.53h-.874v-1.361h.874c.53 0 .757.126.757.548v.283zm-1.928.53h-.863c-.559 0-.771-.111-.771-.533v-.29c0-.416.233-.538.77-.538h.864v1.36zm4.488-1.53v1.959h.296v-1.959h1.4v-.216h-3.085v.216h1.389zm5.433 1.958v-2.175h-1.928c-.712 0-1.006.18-1.006.674 0 .409.294.6.855.6l-.974.902h.413l.916-.902h1.426v.902h.299zm-.298-1.117H57.72c-.459 0-.619-.06-.619-.384 0-.338.168-.457.59-.457h1.752v.842zm4.217 1.118v-1.014h-2.543v1.014h-.296v-2.175h.296v.943h2.543v-.944h.297v2.176h-.297zm4.504-.001l-1.483-2.175h-.456l-1.482 2.175h.327l.368-.545h2.014l.364.545h.348zm-.867-.768h-1.698l.847-1.25.85 1.25zm4.246.769v-.902h-1.426l-.92.902h-.407l.967-.902c-.56 0-.85-.191-.85-.6 0-.495.29-.673 1.002-.673h1.932v2.174h-.298v.001zm0-1.959H69.79c-.42 0-.595.12-.595.458 0 .324.162.384.623.384h1.724v-.842zm5.79 1.959h.52l-2.071-1.14 2.024-1.035h-.524l-1.808.933h-.48v-.934h-.298v2.176h.298v-1.024h.493l1.846 1.024zm4.378-.746c0 .426-.14.529-.742.529h-1.253c-.557 0-.765-.11-.765-.529v-.694c0-.423.228-.538.765-.538h1.253c.571 0 .742.108.742.538v.694zm.293 0v-.68c0-.633-.34-.775-1.035-.775h-1.25c-.813 0-1.066.222-1.066.775v.68c0 .559.289.746 1.066.746h1.25c.76 0 1.035-.126 1.035-.746zm4.5-1.429h.638v2.175h-.298v-1.999h-.164l-1.546 1.999h-.151l-1.543-1.999h-.168v1.999h-.294v-2.175h.633l1.451 1.855 1.442-1.855zm2.005 2.175v-1.959h2.536v1.959h.3v-2.175h-3.137v2.175h.3zm6.695-.001l-.364-.545h-2.013l-.374.545h-.327l1.486-2.175h.45l1.483 2.175h-.341zm-1.368-2.02l-.852 1.252h1.7l-.848-1.251zm5.686 2.021v-2.175h-.295v.943h-2.538v-.944h-.301v2.176h.3v-1.014h2.54v1.014h.294zm4.162 0v-2.175h-.578l-2.263 2.006h-.026v-2.007h-.293v2.176h.482l2.268-2.007h.11v2.007h.3zm3.578-1.117h-1.728c-.461 0-.616-.061-.616-.385 0-.338.163-.457.584-.457h1.76v.842zm.291 1.116v-2.175h-1.927c-.708 0-1.005.18-1.005.674 0 .409.297.6.857.6l-.977.902h.417l.912-.902h1.432v.902h.291zm-67.347 3.223s6.446-.088 6.962.263c.516.346 1.032.699 1.118 1.392.085.698-.344 2.874-1.978 2.962-1.631.087-3.52-.088-3.52-.088l-.084 1.743-2.578-.087.08-6.185z" fill="#201C26"/><path fill-rule="evenodd" clip-rule="evenodd" d="M42.876 49.034l-.083 1.048s2.06.434 2.49 0c.429-.435.084-1.133-.601-1.133-.686 0-1.806.085-1.806.085z" fill="#fff"/><path fill-rule="evenodd" clip-rule="evenodd" d="M48.286 48.949c.691-.783 1.893-2.004 4.637-1.83 2.75.175 4.214 1.304 4.214 2.618 0 1.302.082 3.044-1.55 3.564a9.894 9.894 0 01-4.381.355c-1.117-.177-2.92-1.224-3.176-2.616-.259-1.394.256-2.091.256-2.091z" fill="#241C24"/><path fill-rule="evenodd" clip-rule="evenodd" d="M50.865 50.604c-.157-1.126.77-1.83 1.544-1.83.772 0 2.058.088 1.973 1.57-.084 1.48-.167 1.392-.94 1.655-.773.26-2.32.525-2.577-1.395z" fill="#fff"/><path fill-rule="evenodd" clip-rule="evenodd" d="M66.326 49.737c-.427-.788-1.37-2.271-2.833-2.355-1.46-.088-3.437-.264-4.381.084-.947.352-1.714 1.22-1.888 2.003-.17.787-.348 2.53.772 3.313 1.115.784 2.924 1.395 4.64 1.045 1.714-.348 3.348-1.045 3.606-2.527h-2.92s-.776 1.047-1.717.959c0 0-.865.264-1.464-.606-.598-.875-.514-1.658.085-2.443.607-.787 2.236-.525 2.409-.176.17.35.428.871.428.871l3.263-.168z" fill="#241C24"/><path fill-rule="evenodd" clip-rule="evenodd" d="M66.067 47.466h2.665v2.094h2.658v-2.266h2.752v6.272h-2.58v-2.09h-2.744v2.09H65.98l.086-6.1zm8.941-.172l7.645.089v1.567h-4.638v.61h3.866v1.74h-4.04v.789h4.983v1.652h-7.732l-.084-6.447z" fill="#241C24"/><path fill-rule="evenodd" clip-rule="evenodd" d="M86.597 47.294h2.664s-.17.437.177.35c.338-.087 2.658-.178 3.348.697.685.87.945 2.002.255 2.787-.69.785-1.29 1.132-1.716 1.132-.434 0-1.887.087-1.887.087v1.394h-2.841V52.26s-1.805-.088-2.406-.261c-.599-.176-1.718-.871-1.718-2.003 0-1.133.601-2.093 1.463-2.178.856-.087 2.489-.087 2.489-.087l.172-.437z" fill="#241C24"/><path fill-rule="evenodd" clip-rule="evenodd" d="M86.6 49.212l-.086 1.305s-1.373.176-1.373-.344c0-.525.259-1.048 1.459-.962zm2.845.088l.082 1.219s.773.35 1.206-.26c.424-.61-.349-1.047-1.288-.96z" fill="#fff"/><path fill-rule="evenodd" clip-rule="evenodd" d="M94.847 49.213v4.617h2.748v-4.617h2.489l.52-.695-.772-.958h-7.217c.002 0-.345 1.392.428 1.477.772.09 1.803.176 1.803.176z" fill="#241C24"/><path fill-rule="evenodd" clip-rule="evenodd" d="M102.834 47.56v1.74s3.268-.173 3.87.172c.601.35 1.202.874 1.288 1.48.085.614-.086 1.574-.687 2.094-.601.523-1.286.87-1.979.87h-4.978v-6.269l2.486-.087z" fill="#241C24"/><path fill-rule="evenodd" clip-rule="evenodd" d="M103.102 51.128v1.045h1.715c.427 0 1.032-.958.257-1.131-.772-.175-1.972.086-1.972.086z" fill="#fff"/><path fill-rule="evenodd" clip-rule="evenodd" d="M4.984 18.55h4.384v15.07L4.984 29.7V18.55zm5.243-4.966h4.209v24.915l-4.21-4.1V13.585zM15.3 8.617h4.297v23.606H15.3V8.617zm5.15-4.962h4.467v23.693h-4.468V3.655zm5.07 4.699h4.297v23.87H25.52V8.354zm5.328 5.138h4.209v20.821l-4.21 4.186V13.492zm4.98 4.967h4.3v10.89l-4.3 4.27v-15.16z" fill="#241C24"/><path fill-rule="evenodd" clip-rule="evenodd" d="M15.3 32.752h4.297v21.857H15.3V32.752zm5.153-4.705h4.208v26.562h-4.208V28.047zm5.067 4.785h4.297v21.774H25.52V32.832z" fill="#B3B31C"/></svg>