<svg width="151" height="23" fill="none" xmlns="http://www.w3.org/2000/svg"><g clip-path="url(#clip0_351_1285)" fill-rule="evenodd" clip-rule="evenodd" fill="#253561"><path d="M69.43 19.39c0 2-.64 2.68-2.54 2.68-1 0-2.13-.06-2.87-.13V.28h5.27l9.21 13.76a8.936 8.936 0 01-.12-1.71v-12h5.42v21.61c-.91.09-2.22.13-3.46.13a3.51 3.51 0 01-3.65-2c-.84-1.29-7.38-11.2-7.38-11.2.111.708.151 1.425.12 2.14v8.4-.02zM7.12.29C2.07.52.2 3.47.2 6.71c0 3.24 2 6.49 7.15 6.6h4.61a2.08 2.08 0 110 4.15H3.83c-2.63 0-3.4.74-3.4 3.27v1.34c2.52.06 6.9.14 12.1.07 5.2-.07 7.31-3.43 7.31-6.88 0-3.45-2.2-6.82-7.3-6.91H7.68a1.91 1.91 0 010-3.8c.79-.05 7.29 0 7.29 0 2.65 0 3.4-.75 3.4-3.27v-1c-1.48 0-7.39-.18-11.25 0M93.6.29c-5.06.23-6.92 3.19-6.92 6.42s2.05 6.49 7.15 6.6h4.61a2.08 2.08 0 110 4.15h-8.13c-2.65 0-3.4.75-3.4 3.27v1.34c2.52.06 6.9.14 12.1.07 5.2-.07 7.31-3.43 7.31-6.88 0-3.45-2.2-6.82-7.3-6.91h-4.86a1.91 1.91 0 010-3.8c.79-.05 7.29 0 7.29 0 2.65 0 3.4-.75 3.4-3.27v-1c-1.48 0-7.39-.18-11.25 0M54.258 13.45l-2.68-8.48-2.67 8.48a.33.33 0 01.24-.07h4.86a.35.35 0 01.25.07zm9.12 8.49c-.7 0-2.26.13-3.42.13-1.8 0-3.06-.24-3.58-1.89l-.75-2.37h-8.09l-.74 2.39c-.52 1.66-1.66 1.85-3.51 1.89h-4.77c-1.7 0-2.64-.41-3.43-1.33l-7-8.12a.85.85 0 01-.24-.44v7.23c0 2-.64 2.68-2.55 2.68-1 0-2.61-.06-3.36-.13V.28h5.9v9.83a1 1 0 01.24-.6l7.12-9.23h7l-9 10.5 7.5 8.15a.75.75 0 01.18.33c.01-.116.038-.23.08-.34L48.448.28h6.26l8.67 21.66zm77.7-8.49l-2.68-8.48-2.67 8.48a.33.33 0 01.24-.07h4.86a.35.35 0 01.25.07zm9.12 8.49c-.7 0-2.26.13-3.42.13-1.81 0-3.06-.24-3.58-1.89l-.75-2.37h-8.08l-.75 2.39c-.52 1.66-1.66 1.85-3.51 1.89h-4.77c-1.7 0-2.64-.41-3.43-1.33l-7-8.12a.865.865 0 01-.24-.47v7.23c0 2-.64 2.68-2.55 2.68-1 0-2.61-.06-3.36-.13V.28h5.9v9.83a.999.999 0 01.24-.6l7.13-9.23h7l-9 10.49 7.5 8.15a.75.75 0 01.18.33c.01-.116.037-.23.08-.34l7.46-18.64h6.26l8.69 21.67z"/></g><defs><clipPath id="clip0_351_1285"><path fill="#fff" d="M0 0h150.4v22.367H0z"/></clipPath></defs></svg>