<svg width="97" height="34" fill="none" xmlns="http://www.w3.org/2000/svg"><path d="M38.243 7.69v18.8h-2.91v6.304H51.73V26.49h-3.087v-5.852h2.771l6.295 12.156h19.07v-2.239c2.24 2.396 5.586 2.845 8.331 2.845 5.791 0 11.03-3.503 11.15-9.145.094-4.424-2.243-7.756-7.003-9.487-2.308-.838-4.424-1.452-6.578-2.154-2.584-.842-3.829-1.654-3.772-3.434.058-1.852 1.692-2.521 3.603-2.428 2.86.138 3.398 2.042 3.72 3.638h8.07V1.412h-7.787v1.76c-1.522-1.76-3.326-2.48-6.94-2.48-6.484 0-10.65 3.581-10.65 9.08 0 4.464 2.597 7.264 8.197 9.103 1.912.628 4.927 1.586 6.286 2.07 2.292.819 3.063 1.732 3.063 3.233 0 1.809-1.199 2.822-3.77 2.738-1.998-.066-4.406-1.026-5.23-4.64h-8.451v4.214h-3.451l-4.642-7.333c3.847-1.166 5.7-4.23 5.437-8.71-.206-3.475-1.596-5.985-4.517-7.414-2.988-1.462-6.439-1.62-11.818-1.62h-28.71v6.276h2.868v13.015c0 5.121-2.673 5.813-4.671 5.813-2.064 0-4.705-.906-4.705-5.813V7.69h3.048V1.412H.855V7.69h2.926v12.128c0 9.584 4.302 13.61 14.52 13.61 6.039 0 10.046-1.394 12.487-4.973 1.226-1.798 1.899-4.616 1.899-8.637V7.69h5.556zm16.228 6.543c-.862.46-1.971.612-3.373.612h-2.456V7.689H51.3c1.396 0 2.56.107 3.34.614 1.068.694 1.438 1.756 1.438 2.95 0 1.304-.596 2.44-1.608 2.98z" fill="#2A2723"/><path d="M38.243 7.69v18.8h-2.91v6.304H51.73V26.49h-3.087v-5.852h2.771l6.295 12.156h19.07v-2.239c2.24 2.396 5.586 2.845 8.331 2.845 5.791 0 11.03-3.503 11.15-9.145.094-4.424-2.243-7.756-7.003-9.487-2.308-.838-4.424-1.452-6.578-2.154-2.584-.842-3.829-1.654-3.772-3.434.058-1.852 1.692-2.521 3.603-2.428 2.86.138 3.398 2.042 3.72 3.638h8.07V1.412h-7.787v1.76c-1.522-1.76-3.326-2.48-6.94-2.48-6.484 0-10.65 3.581-10.65 9.08 0 4.464 2.597 7.264 8.197 9.103 1.912.628 4.927 1.586 6.286 2.07 2.292.819 3.063 1.732 3.063 3.233 0 1.809-1.199 2.822-3.77 2.738-1.998-.066-4.406-1.026-5.23-4.64h-8.451v4.214h-3.451l-4.642-7.333c3.847-1.166 5.7-4.23 5.437-8.71-.206-3.475-1.596-5.985-4.517-7.414-2.988-1.462-6.439-1.62-11.818-1.62h-28.71v6.276h2.868v13.015c0 5.121-2.673 5.813-4.671 5.813-2.064 0-4.705-.906-4.705-5.813V7.69h3.048V1.412H.855V7.69h2.926v12.128c0 9.584 4.302 13.61 14.52 13.61 6.039 0 10.046-1.394 12.487-4.973 1.226-1.798 1.899-4.616 1.899-8.637V7.69h5.556zm16.228 6.543c-.862.46-1.971.612-3.373.612h-2.456V7.689H51.3c1.396 0 2.56.107 3.34.614 1.068.694 1.438 1.756 1.438 2.95 0 1.304-.596 2.44-1.608 2.98z" fill="#000"/></svg>