<svg width="161" height="42" fill="none" xmlns="http://www.w3.org/2000/svg"><path d="M71.309 15.623v13.122s4.746 1.188 12.176 1.188c7.374 0 12.172-1.183 12.172-1.183v-4.46s-5.155 1.023-12.224 1.023c-3.43 0-5.705-.407-6.927-.53 0-1.075.004-4.11 0-5.193 1.368-.138 3.67-.535 6.98-.535 6.88.028 12.171 1.055 12.171 1.055v-4.492s-4.723-1.183-12.172-1.183c-7.505 0-12.176 1.188-12.176 1.188zm30.129 14.017h5.329V14.68h-5.329v14.96zm-71.328 0h5.329V14.68h-5.33v14.96zm30.136-.005s-3.854-3.139-9.521-6.097c-1.58-.824-2.914-1.373-4.155-1.88v7.977h-5.16V14.709s4.366.852 9.324 3.442c5.668 2.958 9.517 5.827 9.517 5.827V14.68h5.174v14.954h-5.179zM26.548 18.07l-13.22 11.967L.09 18.061l3.957-3.631s8.088 7.839 9.282 8.96c1.193-1.121 9.276-8.96 9.276-8.96l3.943 3.64z" fill="#19458F"/><path d="M118.793 14.69h7.421c2.707-.005 4.408-1.392 5.033-2.055.63-.662 2.086-2.32 2.086-4.246V2.174c0-1.15.926-2.083 2.068-2.083h8.046c1.142 0 2.068.932 2.068 2.087v8.105c0 1.15-.926 2.083-2.068 2.083h-6.171c-1.912 0-3.557 1.467-4.215 2.101-.658.63-2.035 2.344-2.04 5.07v7.475h-12.228V14.69zm42.116 6.551c0-1.979-.794-3.75-2.058-5.037-1.264-1.292-3.041-2.073-5.005-2.073-4.018 0-7.224 3.3-7.224 7.233 0 .72.311 2.083.311 2.665 0 3.096-2.496 5.61-5.569 5.61H135.4a2.073 2.073 0 00-2.068 2.083v8.104c0 1.15.926 2.083 2.068 2.083h8.046a2.075 2.075 0 002.067-2.083v-6.007c0-3.101 2.496-5.61 5.569-5.61.578 0 1.932.313 2.641.313 3.911 0 7.186-3.229 7.186-7.281z" fill="#EB172B"/></svg>