<svg width="179" height="28" fill="none" xmlns="http://www.w3.org/2000/svg"><g clip-path="url(#clip0_351_1260)"><path d="M165.256 26.684c2.954-5.764 7.248-10.183 12.883-13.301 0 .015-12.872-12.868-12.872-12.883-6.443 6.46-10.248 10.223-12.88 12.883-.003 0 .025.015 0 0 5.448 2.969 9.681 7.278 12.869 13.301z" fill="#FFEE01"/><path d="M11.38 23.032H8.463v-7.86L.5 3.884h3.692l5.71 8.466 5.749-8.457h3.653L11.38 15.106v7.926z" fill="#231F20"/><path d="M26.084 3.31c-1.445 0-9.377.64-9.377 10.294 0 9.096 7.943 9.924 9.465 9.936 1.6.011 9.448-.921 9.448-10.179 0-8.777-7.062-10.05-9.536-10.05zm.195 17.703c-2.833 0-6.613-1.65-6.613-7.613 0-5.445 3.598-7.61 6.432-7.61 2.59 0 6.549 1.693 6.549 7.86 0 6.057-4.368 7.363-6.368 7.363zm13.695 2.01H37.07V3.873l3.084.007v9.061l9.026-9.059h3.964l-7.964 7.99 8.592 11.142-3.735.015-7.093-9.38-2.97 2.808v6.566z" fill="#231F20"/><path d="M60.686 3.262c-2.766.095-9.643 1.506-9.643 9.985 0 9.33 7.443 10.273 9.73 10.261 2.56-.015 9.257-1.801 9.29-10.19.039-10.052-9.49-10.055-9.377-10.056zm-.016 17.73c-2.77 0-6.58-1.484-6.58-7.601 0-5.841 3.825-7.608 6.514-7.608 3.376 0 6.391 2.499 6.391 7.483 0 6.438-4.088 7.725-6.325 7.725zm20.187-8.044l8.3.007-.027 9.974h-2.3l-.333-1.847c-1.796 1.753-3.591 2.363-6.49 2.355-4.184-.008-8.757-3.33-8.757-10.144 0-4.632 2.94-9.927 9.085-9.9 3.256 0 7.79 1.085 8.558 6.122l-3.008.012c-.38-1.268-1.46-3.748-5.299-3.748-3.141 0-6.248 1.913-6.248 7.74 0 5.513 3.453 7.554 6.097 7.554 2.586 0 5.028-.88 6.015-5.485h-5.58l-.013-2.641m18.706-9.036l-3.93.008-6.125 19.096h3.139l1.626-5.3 7.484-.008 2.108 5.263 3.213-.03-7.516-19.03zM95.01 15.245l2.607-8.585.56 1.54 2.609 7.045H95.01zm8.541-11.361h3.27c2.571 10.393 3.079 12.218 3.646 14.25.45-1.914 1.384-4.42 3.901-14.25h2.961c2.987 10.596 3.432 12.23 4.083 14.364.453-1.775 1.076-3.888 3.628-14.364h3.096l-5.124 19.093-3.065.038c-2.484-8.476-2.79-9.501-4.047-13.965-1.035 3.557-1.237 4.478-3.896 13.948h-3.151l-5.302-19.114m32.055-.03h-3.77l-6.766 19.131h3.023l1.74-5.116 7.612.008 1.855 5.098 3.161-.007-6.855-19.114zm-4.866 11.482l2.945-8.476-.003-.039 2.968 8.522-5.91-.007z" fill="#231F20"/></g><defs><clipPath id="clip0_351_1260"><path fill="#fff" d="M0 0h178.638v27.184H0z"/></clipPath></defs></svg>