<svg width="47" height="47" fill="none" xmlns="http://www.w3.org/2000/svg"><path d="M23.5 9.792a2.94 2.94 0 00-2.938 2.938 2.94 2.94 0 002.938 2.937 2.94 2.94 0 002.938-2.938A2.94 2.94 0 0023.5 9.793zm-2.056 7.833h4.112c.487 0 .881.438.881.98v19.582c0 .542-.394.98-.88.98h-3.33c-.487 0-.881-.438-.881-.98V22.521h.098c-.487 0-.881-.438-.881-.98v-2.937c0-.541.394-.979.88-.979z" fill="#fff"/><path d="M23.5 0C10.542 0 0 10.542 0 23.5S10.542 47 23.5 47 47 36.458 47 23.5 36.458 0 23.5 0zm0 45.042c-11.878 0-21.542-9.664-21.542-21.542 0-11.878 9.664-21.542 21.542-21.542 11.878 0 21.542 9.664 21.542 21.542 0 11.878-9.664 21.542-21.542 21.542z" fill="#fff"/><path d="M23.499 1.959c-11.878 0-21.542 9.664-21.542 21.542 0 11.878 9.664 21.541 21.542 21.541 11.878 0 21.541-9.663 21.541-21.541S35.377 1.959 23.5 1.959zm0 41.288c-10.889 0-19.747-8.858-19.747-19.746 0-10.889 8.858-19.747 19.747-19.747 10.888 0 19.746 8.858 19.746 19.747 0 10.888-8.858 19.746-19.746 19.746z" fill="#fff"/></svg>