<svg width="28" height="28" fill="none" xmlns="http://www.w3.org/2000/svg"><g opacity=".6"><mask id="path-1-inside-1_351_1897" fill="#fff"><path fill-rule="evenodd" clip-rule="evenodd" d="M3.936.085c-.866.231-1.548 1-1.697 1.914-.033.2-.053 4.64-.053 11.65v11.329l-.192.03c-.3.05-.87.355-1.135.608-.51.488-.785 1.056-.845 1.736-.03.34-.022.374.11.506L.266 28h27.467l.134-.134c.15-.15.168-.328.08-.802-.17-.917-1-1.829-1.848-2.03l-.284-.068-.014-9.635c-.014-9.387-.017-9.637-.119-9.75-.142-.156-.47-.156-.612 0-.102.113-.105.363-.118 9.736l-.014 9.62H3.06l.001-11.472V1.993l.128-.273a1.84 1.84 0 01.794-.785c.182-.083 1.003-.09 10.016-.09 9.014 0 9.835.007 10.017.09.306.139.652.482.794.785.12.258.128.336.129 1.394.001 1.212.029 1.355.28 1.443.23.08.428 0 .516-.212.094-.225.108-1.696.021-2.297-.138-.963-.808-1.73-1.718-1.966C23.75.007 22.607-.003 13.974 0 5.583.004 4.194.015 3.936.085zm.896 3.61c-.323.115-.672.436-.821.756l-.129.277V9.46c-.001 5.15-.015 4.92.3 4.998.148.038.34-.04.45-.181.05-.066.066-.86.068-3.3V7.763h2.384l.062.233c.086.32.354.672.612.804l.215.11.018.628c.025.842.05.87.813.897l.545.019v.7c0 .98-.03.952 1.008.975l.798.018.164-.164.163-.164v-1.376h.434c.466 0 .691-.058.805-.207.048-.063.071-.29.072-.702l.002-.609.157-.064c.255-.106.56-.462.667-.779l.099-.291 4.79-.014 4.789-.014v11.482l-.164.187c-.09.103-.214.2-.274.216-.101.026-.11.001-.11-.352 0-.603-.086-.852-.406-1.17-.174-.173-.36-.3-.502-.342-.152-.045-.698-.066-1.682-.066h-1.457v-2.076c0-1.426-.019-2.118-.061-2.211a.447.447 0 00-.206-.196c-.1-.041-1.415-.054-4.346-.044l-4.202.014-.105.13c-.085.105-.104.218-.104.615v.486l-1.3.002c-1.428.002-1.453.007-1.547.333-.029.101-.052.805-.052 1.565v1.382h-.205c-.34 0-.588.098-.862.34-.338.297-.424.507-.462 1.12l-.03.504-.167-.082c-.347-.168-.353-.203-.353-2.208V15.58l-.134-.135c-.172-.172-.41-.175-.567-.007-.118.125-.12.15-.119 2.037.001 1.895.002 1.913.13 2.184.15.318.345.513.69.693l.246.128 8.97.014c8.356.013 8.988.008 9.231-.08a1.48 1.48 0 00.792-.663l.15-.256.015-7.381.015-7.382-.141-.288a1.774 1.774 0 00-.363-.477c-.451-.387.25-.36-9.64-.356-7.67.004-8.95.015-9.144.084zm18.104.815c.21.1.362.337.362.568v.17H4.7V5.08c0-.242.132-.46.34-.562.164-.081.962-.09 8.95-.09 7.726-.002 8.791.008 8.945.081zM7.108 6.533v.41H4.7v-.82h2.407v.41zM12.85 7c0 .859-.003.88-.134 1.012l-.135.134h-4.37l-.142-.168c-.139-.165-.142-.184-.142-1.012v-.843h4.923V7zm10.447-.467v.41h-9.572v-.82h9.572v.41zM11.965 9.28l.017.287H8.857v-.603l1.545.014 1.545.015.017.287zm-1.313 1.586l-.016.424-.233.017-.232.017v-.882h.497l-.016.424zm7.204 4.991v1.832l-5.1.014-5.101.014v-2.461H8.95c1.255 0 1.3-.003 1.423-.119.113-.106.126-.168.126-.592 0-.26.017-.49.037-.51.02-.02 1.675-.031 3.678-.023l3.641.014v1.832zm3.922 2.832c.104.104.128.195.144.56l.02.437H6.057l.02-.443c.019-.406.033-.454.174-.575l.153-.132 7.625.014 7.625.014.124.125zm-4.099 2.4c-.31.11-.754.518-.934.86-.127.244-.146.344-.146.772 0 .428.019.529.146.772.187.354.626.751.956.864.141.048.43.087.643.086.666 0 1.232-.357 1.536-.967.21-.422.225-1.052.034-1.446-.19-.392-.47-.68-.838-.864-.29-.145-.392-.167-.75-.163-.229.002-.52.04-.647.086zm3.998.041a1.81 1.81 0 00-.877.844c-.125.258-.15.382-.15.747s.025.49.15.747c.291.604.878.974 1.544.975.507.001.836-.117 1.175-.422.553-.497.74-1.224.488-1.902-.157-.425-.62-.898-1.009-1.03-.403-.137-.977-.12-1.322.041zm-2.924.802c.378.231.539.606.436 1.014-.154.604-.904.878-1.413.515-.202-.143-.383-.494-.383-.74 0-.343.276-.742.6-.863.194-.073.58-.035.76.074zm4.158.048c.203.145.384.494.384.741 0 .246-.18.596-.383.74a.962.962 0 01-.466.151c-.974.081-1.361-1.179-.517-1.682.261-.156.726-.133.982.05zm3.24 3.956c.435.214.797.643.945 1.12l.038.123H.865l.036-.123c.119-.404.432-.82.782-1.037.433-.267-.13-.256 12.399-.245l11.759.01.31.152z"/></mask><path clip-rule="evenodd" d="M3.936.085c-.866.231-1.548 1-1.697 1.914-.033.2-.053 4.64-.053 11.65v11.329l-.192.03c-.3.05-.87.355-1.135.608-.51.488-.785 1.056-.845 1.736-.03.34-.022.374.11.506L.266 28h27.467l.134-.134c.15-.15.168-.328.08-.802-.17-.917-1-1.829-1.848-2.03l-.284-.068-.014-9.635c-.014-9.387-.017-9.637-.119-9.75-.142-.156-.47-.156-.612 0-.102.113-.105.363-.118 9.736l-.014 9.62H3.06l.001-11.472V1.993l.128-.273a1.84 1.84 0 01.794-.785c.182-.083 1.003-.09 10.016-.09 9.014 0 9.835.007 10.017.09.306.139.652.482.794.785.12.258.128.336.129 1.394.001 1.212.029 1.355.28 1.443.23.08.428 0 .516-.212.094-.225.108-1.696.021-2.297-.138-.963-.808-1.73-1.718-1.966C23.75.007 22.607-.003 13.974 0 5.583.004 4.194.015 3.936.085zm.896 3.61c-.323.115-.672.436-.821.756l-.129.277V9.46c-.001 5.15-.015 4.92.3 4.998.148.038.34-.04.45-.181.05-.066.066-.86.068-3.3V7.763h2.384l.062.233c.086.32.354.672.612.804l.215.11.018.628c.025.842.05.87.813.897l.545.019v.7c0 .98-.03.952 1.008.975l.798.018.164-.164.163-.164v-1.376h.434c.466 0 .691-.058.805-.207.048-.063.071-.29.072-.702l.002-.609.157-.064c.255-.106.56-.462.667-.779l.099-.291 4.79-.014 4.789-.014v11.482l-.164.187c-.09.103-.214.2-.274.216-.101.026-.11.001-.11-.352 0-.603-.086-.852-.406-1.17-.174-.173-.36-.3-.502-.342-.152-.045-.698-.066-1.682-.066h-1.457v-2.076c0-1.426-.019-2.118-.061-2.211a.447.447 0 00-.206-.196c-.1-.041-1.415-.054-4.346-.044l-4.202.014-.105.13c-.085.105-.104.218-.104.615v.486l-1.3.002c-1.428.002-1.453.007-1.547.333-.029.101-.052.805-.052 1.565v1.382h-.205c-.34 0-.588.098-.862.34-.338.297-.424.507-.462 1.12l-.03.504-.167-.082c-.347-.168-.353-.203-.353-2.208V15.58l-.134-.135c-.172-.172-.41-.175-.567-.007-.118.125-.12.15-.119 2.037.001 1.895.002 1.913.13 2.184.15.318.345.513.69.693l.246.128 8.97.014c8.356.013 8.988.008 9.231-.08a1.48 1.48 0 00.792-.663l.15-.256.015-7.381.015-7.382-.141-.288a1.774 1.774 0 00-.363-.477c-.451-.387.25-.36-9.64-.356-7.67.004-8.95.015-9.144.084zm18.104.815c.21.1.362.337.362.568v.17H4.7V5.08c0-.242.132-.46.34-.562.164-.081.962-.09 8.95-.09 7.726-.002 8.791.008 8.945.081zM7.108 6.533v.41H4.7v-.82h2.407v.41zM12.85 7c0 .859-.003.88-.134 1.012l-.135.134h-4.37l-.142-.168c-.139-.165-.142-.184-.142-1.012v-.843h4.923V7zm10.447-.467v.41h-9.572v-.82h9.572v.41zM11.965 9.28l.017.287H8.857v-.603l1.545.014 1.545.015.017.287zm-1.313 1.586l-.016.424-.233.017-.232.017v-.882h.497l-.016.424zm7.204 4.991v1.832l-5.1.014-5.101.014v-2.461H8.95c1.255 0 1.3-.003 1.423-.119.113-.106.126-.168.126-.592 0-.26.017-.49.037-.51.02-.02 1.675-.031 3.678-.023l3.641.014v1.832zm3.922 2.832c.104.104.128.195.144.56l.02.437H6.057l.02-.443c.019-.406.033-.454.174-.575l.153-.132 7.625.014 7.625.014.124.125zm-4.099 2.4c-.31.11-.754.518-.934.86-.127.244-.146.344-.146.772 0 .428.019.529.146.772.187.354.626.751.956.864.141.048.43.087.643.086.666 0 1.232-.357 1.536-.967.21-.422.225-1.052.034-1.446-.19-.392-.47-.68-.838-.864-.29-.145-.392-.167-.75-.163-.229.002-.52.04-.647.086zm3.998.041a1.81 1.81 0 00-.877.844c-.125.258-.15.382-.15.747s.025.49.15.747c.291.604.878.974 1.544.975.507.001.836-.117 1.175-.422.553-.497.74-1.224.488-1.902-.157-.425-.62-.898-1.009-1.03-.403-.137-.977-.12-1.322.041zm-2.924.802c.378.231.539.606.436 1.014-.154.604-.904.878-1.413.515-.202-.143-.383-.494-.383-.74 0-.343.276-.742.6-.863.194-.073.58-.035.76.074zm4.158.048c.203.145.384.494.384.741 0 .246-.18.596-.383.74a.962.962 0 01-.466.151c-.974.081-1.361-1.179-.517-1.682.261-.156.726-.133.982.05zm3.24 3.956c.435.214.797.643.945 1.12l.038.123H.865l.036-.123c.119-.404.432-.82.782-1.037.433-.267-.13-.256 12.399-.245l11.759.01.31.152z" stroke="#fff" stroke-width="4" mask="url(#path-1-inside-1_351_1897)"/></g></svg>