<svg width="28" height="21" fill="none" xmlns="http://www.w3.org/2000/svg"><path opacity=".6" fill-rule="evenodd" clip-rule="evenodd" d="M1.975.085a2.666 2.666 0 00-1.893 1.89C.01 2.244 0 3.386 0 10.452c0 5.329.02 8.267.056 8.456.192.998 1.071 1.85 2.1 2.035.227.041 3.81.059 11.868.058 12.588-.001 11.96.014 12.57-.306.655-.345 1.215-1.085 1.35-1.787.036-.19.056-3.127.056-8.456 0-8.988.02-8.454-.337-9.112a2.925 2.925 0 00-.48-.604C26.62.205 26.039 0 25.098 0c-.506 0-.601.015-.727.112a.387.387 0 00-.03.58c.094.087.217.106.778.125.57.02.711.043.97.16.43.196.68.433.885.844l.18.358V18.82l-.147.308c-.19.4-.566.756-.963.914l-.313.124-11.484.015c-7.243.01-11.612-.004-11.83-.037-.666-.101-1.152-.45-1.424-1.02l-.144-.304V2.18l.142-.298c.203-.426.443-.67.86-.871l.362-.176L12.704.808C23.011.78 23.198.779 23.274.676c.129-.173.098-.437-.067-.564L23.063 0 12.666.004C3.768.007 2.227.018 1.975.085zm2.751 2.069c-.634.248-1.01.77-1.051 1.459l-.024.413-.42.023c-.895.052-1.482.632-1.48 1.467 0 .516.372 1.068.864 1.282.13.057.42.117.643.134l.406.03v3.025c0 2.969.002 3.026.112 3.142.151.16.433.157.59-.007l.118-.124V6.946h1.643l-.015 5.318-.014 5.317-.128.176c-.348.481-.978.477-1.346-.008-.107-.14-.113-.23-.128-1.772-.016-1.572-.02-1.628-.133-1.747a.418.418 0 00-.59-.001c-.112.118-.114.16-.098 1.844l.016 1.724.163.288c.309.55.812.84 1.45.838.336 0 .462-.027.694-.145.348-.177.63-.456.795-.786l.125-.249.015-5.39.014-5.391.4-.03c.483-.036.717-.127 1.018-.394.566-.503.647-1.246.206-1.884-.26-.377-.647-.573-1.189-.604l-.423-.024-.025-.384c-.03-.438-.165-.783-.422-1.071-.402-.451-1.214-.64-1.786-.417zm8.399-.06a1.873 1.873 0 00-.81.518c-.416.466-.393.112-.393 6.094v5.348h-.318c-.946 0-1.596.595-1.596 1.459 0 .84.68 1.45 1.617 1.45h.285l.02.417c.046.92.688 1.538 1.605 1.543.905.005 1.57-.632 1.652-1.581l.03-.365.405-.03c.49-.037.812-.179 1.087-.479.546-.595.526-1.398-.049-1.963-.318-.314-.673-.45-1.165-.45h-.29l-.015-5.372-.014-5.371-.144-.301c-.175-.37-.476-.674-.808-.818-.27-.118-.874-.172-1.1-.1zm8.138.037c-.347.106-.813.531-.98.897l-.13.284-.017 2.779-.017 2.779-.397.03c-.468.034-.706.122-.986.364a1.416 1.416 0 00.009 2.153c.282.245.66.376 1.086.376h.289l.016 2.948c.016 2.89.018 2.953.134 3.2.065.139.22.36.343.492.64.683 1.77.66 2.404-.05.42-.469.41-.388.431-3.661l.019-2.914.397-.03c.477-.035.716-.127 1.006-.384.606-.539.61-1.568.007-2.103-.284-.253-.547-.355-1.017-.39l-.393-.031-.017-2.78-.017-2.778-.13-.284c-.347-.756-1.227-1.143-2.04-.897zm-15.529.87c.25.184.344.361.376.706l.03.332H4.484v-.253c0-.144.048-.35.113-.48.205-.417.776-.57 1.137-.305zm8.261.003c.078.057.19.186.251.286.107.18.11.294.124 5.474l.015 5.29h-1.642V8.763c0-5.017.004-5.301.099-5.48.207-.389.806-.534 1.153-.28zm8.139-.044c.133.06.277.178.341.281.107.173.11.266.11 2.911v2.733H21V6.163c0-2.967-.005-2.914.314-3.137.274-.192.498-.21.82-.066zm-12.992.88a.464.464 0 00-.119.272c0 .187.224.411.41.411.078 0 .203-.06.276-.132a.46.46 0 00.135-.272c0-.187-.228-.403-.426-.403a.412.412 0 00-.276.124zm8.248-.017c-.15.148-.145.448.01.59.208.19.492.137.626-.117.207-.394-.319-.785-.636-.473zm8.153.034a.532.532 0 00-.113.272c0 .171.232.394.41.394.193 0 .41-.224.41-.424 0-.343-.492-.51-.707-.242zM7.656 4.941c.276.135.418.44.334.715a.738.738 0 01-.206.318c-.139.108-.205.11-2.48.11-2.24 0-2.342-.003-2.473-.105-.397-.308-.302-.884.177-1.072.082-.032.998-.055 2.297-.057 1.95-.003 2.178.006 2.351.09zm1.477.713c-.26.256-.01.748.344.678.22-.043.3-.123.344-.339.071-.349-.428-.595-.688-.339zm8.254.003c-.264.26.026.787.367.667a.66.66 0 00.254-.195c.097-.128.102-.164.04-.312-.12-.285-.452-.365-.66-.16zm8.156.031a.532.532 0 00-.113.272c0 .171.232.394.41.394.19 0 .41-.224.41-.419 0-.354-.486-.523-.707-.247zM9.133 7.485c-.198.195-.116.552.15.651a.408.408 0 00.499-.2c.086-.186.078-.255-.052-.417a.416.416 0 00-.597-.034zm8.239-.01c-.145.158-.117.466.053.598.198.153.328.14.522-.05.133-.132.159-.193.13-.31-.074-.308-.507-.453-.705-.237zm8.176.027c-.197.206-.15.475.106.605.19.097.404.055.515-.102.283-.398-.283-.857-.62-.503zm-7.993 1.691c-.284.1-.378.498-.164.689.253.225.674.04.674-.297 0-.252-.286-.472-.51-.392zm8.114.041c-.344.143-.32.585.04.72.197.074.472-.053.52-.239.089-.351-.224-.62-.56-.481zm-16.56.094c-.16.224-.1.488.137.609.185.094.38.039.51-.145.117-.164.11-.272-.026-.442-.15-.19-.494-.202-.621-.022zm15.067.464c.292.148.408.554.246.861-.159.303-.175.305-2.63.305-2.453 0-2.47-.002-2.629-.305-.155-.296-.053-.711.205-.838.222-.109.302-.112 2.507-.104 1.681.007 2.191.025 2.301.08zm-14.88 1.231c-.434.158-.314.77.15.77.174 0 .398-.2.398-.355a.463.463 0 00-.29-.396 1.44 1.44 0 00-.17-.053 1.186 1.186 0 01-.087.034zm8.133.07c-.196.152-.21.489-.026.616.398.274.896-.177.58-.526-.181-.199-.372-.23-.554-.09zm8.237-.054c-.387.154-.247.754.175.754.433 0 .569-.534.186-.73-.175-.088-.195-.09-.361-.024zm-3.08 3.613c0 3.184.008 3.112-.369 3.342a.826.826 0 01-1.111-.257c-.101-.16-.106-.296-.106-3.056v-2.888h1.586v2.86zM9.167 12.928a.373.373 0 00-.017.579c.168.155.393.149.56-.015.21-.208.172-.464-.089-.597-.206-.105-.283-.1-.454.033zm8.258 0a.328.328 0 00-.144.296c0 .488.681.544.796.065.029-.118.003-.18-.13-.31-.194-.192-.324-.204-.522-.051zm8.139.02c-.164.162-.172.346-.021.534.224.28.707.107.707-.255 0-.187-.224-.411-.41-.411a.474.474 0 00-.276.132zM9.142 14.771c-.364.383.19.922.567.551a.46.46 0 00.135-.271c0-.188-.228-.404-.426-.404a.411.411 0 00-.276.124zm8.248-.017a.425.425 0 00-.109.297c0 .456.585.565.763.141.16-.38-.359-.728-.654-.438zm8.174.025a.46.46 0 00-.134.272c0 .175.226.403.4.403.205 0 .42-.195.42-.383 0-.2-.217-.424-.41-.424a.474.474 0 00-.276.132zm-9.558.223a.614.614 0 01.061.94l-.162.159H11.2l-.186-.183c-.253-.25-.26-.538-.02-.808.092-.103.222-.198.288-.211.066-.014 1.121-.021 2.345-.017 2.166.007 2.228.01 2.379.12zm-6.873 1.583c-.235.231-.033.7.3.7.183 0 .41-.224.41-.404 0-.328-.476-.527-.71-.296zm8.258 0a.401.401 0 00.034.589c.237.183.468.128.617-.15.054-.099.055-.159.002-.284-.116-.275-.451-.354-.654-.155zm8.152.034a.532.532 0 00-.113.272c0 .171.232.394.41.394.193 0 .41-.224.41-.424 0-.343-.492-.51-.707-.242zm-11.182.651c-.066.553-.358.843-.84.836-.447-.006-.779-.371-.779-.856v-.288h1.656l-.037.308z" fill="#fff"/></svg>