<svg width="26" height="28" fill="none" xmlns="http://www.w3.org/2000/svg"><path opacity=".6" fill-rule="evenodd" clip-rule="evenodd" d="M2.367.032C1.377.202.53.914.16 1.887l-.124.324-.014 9.525c-.014 9.038-.01 9.532.082 9.643a.54.54 0 00.271.15c.141.027.202.006.316-.107l.14-.14v-9.32c0-10.359-.024-9.69.372-10.27a2.23 2.23 0 01.506-.506C2.28.8 2.08.811 7.857.828l5.175.015.364.172c.628.297 1.014.794 1.139 1.468.084.454.084 22.58 0 23.035a1.97 1.97 0 01-1.138 1.467l-.365.173-5.175.015c-5.777.017-5.579.028-6.148-.359a2.21 2.21 0 01-.506-.505c-.328-.48-.372-.755-.372-2.311v-1.359l-.134-.134c-.173-.173-.382-.171-.558.004L0 22.65l.022 1.57c.02 1.446.03 1.596.14 1.891.153.411.304.655.613.986.321.345.625.55 1.084.734l.37.148 5.304.016c5.844.017 5.67.025 6.36-.322.43-.217.949-.735 1.185-1.183.352-.668.337-.25.338-9.411l.001-8.33h.458c.373 0 .502-.023.699-.127.3-.158.587-.524.632-.807l.035-.215h.674c.663 0 .676.003.788.145l.114.144v8.459c.002 9.423-.021 8.847.385 9.665 1.047 2.11 3.876 2.645 5.608 1.062.408-.374.62-.654.864-1.145.346-.694.324.176.325-13.36L26 .221l-.145-.114c-.18-.141-.353-.144-.52-.009l-.13.105-.027 12.41c-.03 13.677.003 12.44-.359 13.152-.442.87-1.627 1.498-2.638 1.396-1.222-.122-2.271-1.07-2.483-2.244-.04-.22-.059-3.01-.06-8.753V7.736l-.13-.28c-.254-.543-.682-.732-1.66-.732h-.621v-.831l.808.022c.68.018.86.042 1.126.147.444.174.91.617 1.114 1.057l.16.344.027 1.544c.026 1.498.03 1.547.148 1.664a.418.418 0 00.581 0c.119-.118.12-.149.12-1.61-.002-1.277-.017-1.536-.102-1.817-.318-1.052-1.126-1.842-2.123-2.077-.223-.052-.627-.083-1.105-.083-.745-.001-.754-.003-.756-.124-.003-.365-.463-.913-.858-1.022a2.775 2.775 0 00-.58-.058h-.37v-.644a6.24 6.24 0 00-.079-1.005c-.2-.94-.862-1.7-1.813-2.078l-.329-.13L7.85.014C4.91.011 2.442.02 2.367.032zm21.31.076l-.144.113-.014 12.237-.014 12.238-.124.232a1.26 1.26 0 01-.353.383c-.195.13-.284.15-.62.15-.446 0-.675-.114-.91-.455l-.132-.193-.027-6.432c-.021-5.083-.042-6.458-.097-6.555-.141-.246-.576-.22-.71.042-.055.107-.067 1.455-.056 6.536l.013 6.401.132.327c.159.393.6.858.967 1.02.528.233 1.21.228 1.685-.014a2.15 2.15 0 00.897-.937l.158-.341.014-12.298.014-12.298L24.22.13c-.165-.165-.352-.172-.544-.022zM3.971 2.158c-.908.244-1.558.9-1.797 1.814-.123.473-.123 19.584 0 20.057.242.924.894 1.575 1.82 1.816.263.068.873.082 3.668.082 2.015 0 3.471-.022 3.649-.055.97-.181 1.782-1.005 1.963-1.993.083-.456.083-19.302 0-19.757-.181-.989-.992-1.812-1.963-1.993-.18-.034-1.626-.054-3.674-.052-2.726.003-3.434.019-3.666.081zm7.565.917c.384.188.716.553.848.932.094.268.1.775.1 9.993s-.006 9.726-.1 9.994c-.132.378-.464.743-.848.931l-.314.154H4.204l-.286-.13c-.356-.16-.732-.554-.87-.911-.103-.265-.106-.543-.106-10.038 0-9.473.004-9.773.105-10.036a1.723 1.723 0 011.17-1.011c.113-.027 1.728-.045 3.606-.04l3.4.009.313.153zm-5.883 1.15A2.06 2.06 0 004.348 5.35l-.144.307-.018 2.572c-.018 2.77 0 3.026.254 3.494.185.341.613.714.997.87.293.118.36.122 2.276.121 1.73 0 2.003-.011 2.208-.093a2.1 2.1 0 001.204-1.22c.088-.247.097-.525.097-2.954 0-2.414-.01-2.707-.096-2.954-.19-.538-.718-1.068-1.237-1.24-.297-.097-3.896-.12-4.236-.027zm10.648.633c.095.117.103.238.103 1.472 0 1.305-.003 1.348-.12 1.471-.101.108-.172.127-.493.127h-.374v-3.24l.39.022c.328.018.408.042.494.148zm-6.556.235c.255.139.514.428.577.644.036.125.05 1.131.04 2.828l-.017 2.635-.168.207c-.372.458-.224.432-2.458.432H5.73l-.197-.134a1.224 1.224 0 01-.508-.843c-.02-.154-.027-1.352-.017-2.66l.017-2.38.15-.256c.157-.266.427-.47.72-.542.094-.024.962-.038 1.927-.033 1.527.008 1.776.022 1.922.102zM6.88 7.178c-.566.565-.62.635-.62.82 0 .252.157.422.386.422.118 0 .236-.065.411-.226l.246-.226v1.065c0 1.041.002 1.066.127 1.183.18.168.438.157.582-.025.105-.135.113-.215.113-1.184V7.968l.246.226c.287.264.493.294.677.1.242-.258.178-.392-.526-1.092-.858-.854-.81-.853-1.642-.024zm-1.221 8.166a1.982 1.982 0 00-1.255.994c-.214.418-.235.748-.217 3.434l.018 2.571.145.31c.205.436.542.779.97.99l.363.177h1.975c1.435 0 2.038-.018 2.203-.069.534-.161 1.071-.69 1.266-1.244.087-.246.096-.539.096-2.954 0-2.428-.009-2.706-.097-2.954a2.089 2.089 0 00-1.204-1.217c-.338-.132-3.808-.162-4.263-.038zm4.2.93c.083.062.227.206.32.32l.167.206.017 2.635c.01 1.697-.004 2.704-.04 2.828-.063.216-.322.506-.577.645-.148.081-.39.092-2.032.092H5.849l-.26-.152a1.169 1.169 0 01-.41-.41l-.153-.259v-2.626c0-2.883-.013-2.76.338-3.113.3-.303.32-.305 2.414-.291 1.853.012 1.934.017 2.08.125zm-2.437 1.518c-.114.121-.12.174-.12 1.184v1.056l-.245-.226c-.175-.16-.293-.225-.411-.225-.23 0-.385.17-.385.421 0 .185.053.256.62.82.83.83.783.83 1.64-.023.547-.543.646-.668.646-.811a.427.427 0 00-.402-.407c-.098 0-.233.077-.394.225l-.246.226v-1.039c0-.968-.008-1.049-.113-1.183a.384.384 0 00-.59-.018z" fill="#fff"/></svg>