<svg width="20" height="28" fill="none" xmlns="http://www.w3.org/2000/svg"><path opacity=".6" fill-rule="evenodd" clip-rule="evenodd" d="M9.503.045c-.397.122-.804.49-.962.869-.044.108-.097.453-.117.768l-.035.572-.477.099c-1.17.243-2.687.912-3.68 1.622-.625.446-1.632 1.413-2.097 2.011C-.357 9.192-.7 13.616 1.274 17.13a10.088 10.088 0 006.6 4.916l.542.123v1.28l-1.672.023c-1.63.024-1.682.028-2.11.17a3.26 3.26 0 00-1.817 1.523c-.16.302-.707 2.189-.707 2.44 0 .07.06.187.134.26l.133.135h7.609c4.184 0 7.648-.015 7.696-.034.048-.019.125-.106.17-.193.076-.15.065-.221-.192-1.202-.165-.627-.344-1.178-.45-1.38-.237-.457-.896-1.12-1.333-1.341-.638-.324-.807-.348-2.637-.376l-1.671-.026v-1.286l.475-.093c1.05-.206 2.413-.763 3.316-1.355a9.279 9.279 0 001.583-1.271c1.674-1.631 2.652-3.568 2.998-5.938.088-.607.075-2.065-.025-2.735-.103-.691-.354-1.658-.574-2.216-.54-1.367-1.641-3.035-2.004-3.035-.068 0-.198.074-.289.165-.214.216-.186.324.223.865a9.38 9.38 0 011.756 3.906c.107.531.124.778.122 1.792-.002 1.01-.02 1.257-.126 1.75-.57 2.663-2.078 4.795-4.367 6.175-.842.508-1.79.872-2.883 1.109-.768.166-2.563.18-3.385.026a9.25 9.25 0 01-4.702-2.423c-1.481-1.429-2.384-3.131-2.75-5.188-.14-.794-.131-2.25.02-3.091.233-1.29.83-2.722 1.574-3.773.473-.668 1.477-1.677 2.135-2.145 2.15-1.53 4.814-2.074 7.34-1.498 1.41.322 2.348.777 3.852 1.868.234.17.41.17.578 0 .295-.297.134-.54-.765-1.158-1.18-.81-2.316-1.28-3.953-1.632l-.15-.032v-.509c0-.331-.03-.602-.09-.776-.12-.355-.506-.744-.858-.864-.274-.094-.871-.116-1.117-.04zm1.05.98c.163.165.174.202.192.639l.02.464h-1.48v-.453c0-.33.025-.487.09-.58.132-.192.387-.285.716-.263.239.016.32.05.462.194zm-1.6 3.893c-3.257.516-5.725 3.042-6.194 6.34-.088.618-.034 1.91.105 2.52.669 2.921 2.905 5.087 5.853 5.668.64.126 1.88.129 2.556.005 2.999-.548 5.333-2.882 5.93-5.931.14-.711.127-2.003-.027-2.733-.278-1.318-.779-2.353-1.632-3.373-.997-1.19-2.447-2.056-4.057-2.42-.446-.1-2.071-.15-2.535-.076zm2.398.9A6.879 6.879 0 0114.165 7.2l.122.098-.83.835-.832.835-.188-.142c-.422-.318-1.062-.594-1.63-.702l-.353-.067-.027-.853c-.023-.738-.04-.868-.13-.967-.136-.15-.43-.153-.576-.006-.1.1-.11.182-.11.959 0 .633-.016.854-.067.868-.037.01-.225.048-.418.085a3.85 3.85 0 00-1.395.582l-.37.245-.804-.808c-.443-.445-.805-.826-.805-.847 0-.06.582-.493.998-.744.673-.406 1.488-.694 2.345-.83.462-.072 1.831-.025 2.256.078zM5.986 8.735l.803.81-.243.372a4.098 4.098 0 00-.6 1.47c-.147.72-.109.955.175 1.074.196.082.427.002.5-.172.028-.068.077-.305.109-.526.113-.784.351-1.278.897-1.858.496-.528 1.113-.869 1.762-.973l.223-.036v1.3l-.231.072c-.857.263-1.453 1.16-1.388 2.085.057.8.603 1.516 1.347 1.769l.245.082.014.348c.02.508.05.592.24.672.364.154.55-.038.588-.606l.027-.408.31-.126c.79-.323 1.252-1.02 1.252-1.892 0-.545-.153-.946-.508-1.337-.251-.276-.818-.632-1.008-.632-.057 0-.073-.144-.073-.656 0-.75-.023-.722.493-.57a3.411 3.411 0 012.306 2.4c.105.416.104 1.16-.001 1.61-.099.422-.4 1.015-.676 1.332-.233.268-.328.432-.328.568 0 .052.467.568 1.037 1.145l1.038 1.048-.236.19a6.297 6.297 0 01-4.011 1.418c-1.037 0-1.898-.18-2.763-.583-.382-.178-1.127-.651-1.42-.902l-.132-.113 1.015-1.026c1.185-1.2 1.182-1.193.77-1.667a4.016 4.016 0 01-.434-.644c-.131-.252-.237-.383-.344-.428a.394.394 0 00-.554.377c0 .136.26.663.459.93l.141.19-.828.835-.829.835-.122-.15a6.604 6.604 0 01-1.467-4.389c.042-1.029.216-1.726.662-2.657.224-.468.847-1.39.938-1.39.023 0 .403.364.845.81zm9.135-.54c1.834 2.42 1.809 5.746-.062 8.091l-.19.238-.807-.812c-.445-.446-.808-.831-.808-.856 0-.025.07-.149.156-.275.5-.734.72-1.461.72-2.389.001-.9-.204-1.585-.701-2.343l-.192-.292.81-.815c.445-.45.823-.816.84-.816.016 0 .122.121.234.27zm-4.5 2.985c.671.395.77 1.378.19 1.905-.266.242-.534.329-.929.3-.73-.053-1.228-.785-1.027-1.508.086-.308.468-.723.757-.82.289-.097.728-.043 1.01.123zm.132 11.678v.602H9.286v-1.203h1.467v.601zm4.636 1.68c.434.207.89.64 1.088 1.032.105.211.474 1.438.474 1.58 0 .016-3.12.03-6.931.03-6.09 0-6.931-.01-6.931-.082 0-.16.33-1.298.44-1.514.247-.488.82-.974 1.349-1.146.284-.092.617-.097 5.223-.087l4.92.012.368.175z" fill="#fff"/></svg>