<svg width="28" height="28" fill="none" xmlns="http://www.w3.org/2000/svg"><path opacity=".6" fill-rule="evenodd" clip-rule="evenodd" d="M12.93.013C9.339.382 6.485 1.698 4.088 4.092 1.865 6.31.512 9.054.07 12.239c-.095.681-.095 2.82 0 3.502.578 4.17 2.8 7.704 6.287 9.996 2.56 1.683 5.808 2.49 8.874 2.207 3.368-.311 6.367-1.724 8.727-4.11 2.18-2.204 3.456-4.77 3.942-7.929.131-.852.132-2.942.002-3.792-.23-1.495-.643-2.883-1.215-4.072-.288-.599-.372-.73-.49-.759-.234-.059-.41.018-.507.22-.089.185-.088.187.219.833a13.165 13.165 0 011.051 8.083c-.876 4.74-4.351 8.67-8.951 10.124-3.276 1.036-6.843.764-9.875-.753-4.008-2.005-6.626-5.696-7.24-10.212-.092-.67-.092-2.504 0-3.174.548-4.026 2.66-7.362 6.034-9.535 1.595-1.026 3.45-1.691 5.48-1.963.678-.091 2.515-.092 3.18-.002 2.505.342 4.713 1.263 6.592 2.75l.373.294-.263.015c-.425.023-.51.059-.589.244-.092.218-.021.442.167.527.084.039.473.063 1.004.063.794 0 .88-.01 1.011-.114l.145-.113v-.956c0-.943-.002-.959-.135-1.09-.171-.172-.381-.172-.553 0-.115.114-.134.184-.134.492 0 .197-.012.358-.026.358a5.58 5.58 0 01-.464-.353C20.789 1.466 18.336.43 15.781.09c-.462-.06-2.476-.116-2.85-.077zm-.465 2.517c-5.728.763-10.03 5.679-10.03 11.46 0 6.383 5.17 11.547 11.562 11.547a11.565 11.565 0 0011.486-10.124c.114-.89.087-2.532-.054-3.311-.3-1.664-.885-3.149-1.754-4.451-.475-.713-.576-.824-.78-.864-.14-.027-.201-.006-.315.107-.218.218-.183.386.189.905 3.026 4.218 2.52 10.068-1.193 13.775a10.73 10.73 0 01-14.368.716c-3.13-2.554-4.57-6.678-3.698-10.59a10.736 10.736 0 0110.928-8.42c2.502.103 4.762 1.002 6.631 2.64.226.199.466.387.532.419.265.128.63-.21.54-.497-.044-.136-.557-.614-1.117-1.04a11.535 11.535 0 00-5.561-2.277c-.792-.102-2.211-.1-2.998.004zm-1.946 3.325c-.686.227-1.864 1.004-2.617 1.725-.837.802-1.464 1.656-1.917 2.611-.165.35-.18.42-.18.927 0 .508.014.575.178.909.214.434.606.818 1.044 1.023l.313.146 1.7.017 1.698.016v1.527H9.546c-1.119 0-1.198.007-1.301.11a.412.412 0 00.034.598c.138.107.213.113 1.494.114l1.349.002.137.223c.157.256.82.9 1.02.99l.135.062-.016 1.814-.015 1.815-.166.268c-.296.477-.896.721-1.424.579-.12-.033-.441-.186-.712-.34a8.164 8.164 0 01-3.187-3.252c-.247-.457-.266-.52-.265-.876.002-.453.088-.642.445-.984.218-.209.244-.259.229-.441-.022-.26-.235-.441-.456-.386-.24.06-.67.508-.864.901-.164.334-.177.401-.177.909 0 .506.014.578.18.927.452.955 1.08 1.809 1.918 2.612.606.58 1.546 1.238 2.233 1.562.413.195.466.206.986.207.51.002.575-.011.91-.176.435-.213.82-.605 1.025-1.042l.147-.313.016-1.696.017-1.697h1.522l.017 1.697.016 1.696.147.313c.205.437.59.829 1.025 1.042.335.165.399.178.91.175.499-.002.583-.018.922-.176 1.717-.798 3.37-2.435 4.186-4.145.199-.417.209-.464.209-.986 0-.508-.013-.575-.178-.909a2.284 2.284 0 00-1.043-1.023l-.314-.146-1.699-.017-1.699-.016V13.23l1.7-.017 1.698-.017.314-.146c.437-.205.83-.59 1.043-1.023.165-.334.178-.401.178-.91 0-.505-.014-.577-.18-.925-.842-1.777-2.43-3.363-4.21-4.205-.349-.165-.421-.179-.926-.179-.48 0-.587.018-.862.147-.437.205-.83.589-1.043 1.023l-.178.36-.017 1.698-.016 1.698h-1.522l-.017-1.697-.016-1.696-.147-.313a2.286 2.286 0 00-1.019-1.04c-.302-.148-.426-.177-.828-.19-.29-.01-.558.012-.692.057zm1.278.949c.152.094.32.264.42.424l.165.268.014 1.81.014 1.81-.225.138c-.257.156-.902.817-.994 1.019l-.061.134-1.817-.016-1.817-.015-.268-.166a1.418 1.418 0 01-.434-.434c-.144-.232-.166-.32-.166-.655 0-.36.02-.423.266-.88a8.193 8.193 0 013.142-3.228c.618-.355.808-.417 1.187-.39.227.017.394.07.574.18zm5.97.1c.967.52 1.97 1.364 2.6 2.19.594.778 1.03 1.636 1.027 2.023a1.298 1.298 0 01-.724 1.146l-.28.14h-3.523l-.06-.133c-.091-.198-.737-.86-.992-1.016l-.223-.137-.002-1.754-.001-1.755.142-.286c.244-.487.691-.74 1.241-.7.243.019.424.083.795.282zm-3.203 4.705a2.48 2.48 0 011.863 2.024c.268 1.563-1.22 3.049-2.785 2.78a2.495 2.495 0 01-2.07-2.066c-.285-1.66 1.359-3.163 2.992-2.738zm-1.305.6c-.441.184-.897.65-1.06 1.085a2.104 2.104 0 000 1.392c.163.444.664.94 1.115 1.107.466.172 1.082.146 1.512-.065a2.06 2.06 0 00.916-.917c.13-.263.148-.367.148-.821 0-.448-.02-.562-.144-.821a2.047 2.047 0 00-.925-.924c-.445-.21-1.108-.225-1.562-.036zm1.166.771c.27.113.444.28.567.545.19.41.086.977-.233 1.27-.41.377-1.109.377-1.52 0-.416-.383-.438-1.138-.046-1.564.283-.307.83-.419 1.232-.25zm6.346 2.79c.166.103.331.268.434.433.14.228.165.323.166.63 0 .31-.03.425-.203.771-.73 1.471-1.911 2.665-3.47 3.51-.4.216-.472.237-.826.237-.336 0-.423-.022-.656-.166a1.417 1.417 0 01-.434-.433l-.166-.268-.016-1.815-.015-1.814.134-.061c.202-.092.864-.736 1.02-.993l.138-.224 1.813.014 1.813.013.268.166z" fill="#fff"/></svg>