<svg width="105" height="106" fill="none" xmlns="http://www.w3.org/2000/svg"><g opacity=".6"><mask id="path-1-inside-1_240_2120" fill="#fff"><path fill-rule="evenodd" clip-rule="evenodd" d="M14.759.32c-3.245.877-5.803 3.79-6.364 7.25-.122.754-.198 17.565-.199 44.103v42.885l-.718.117c-1.124.184-3.266 1.342-4.257 2.301-1.91 1.847-2.945 3.995-3.167 6.572-.111 1.286-.084 1.414.412 1.915l.532.537h103.001l.503-.508c.562-.568.629-1.239.298-3.036-.637-3.471-3.75-6.923-6.93-7.686l-1.064-.255-.054-36.475c-.052-35.537-.063-36.486-.444-36.91-.531-.593-1.764-.593-2.295 0-.381.424-.392 1.371-.444 36.855l-.053 36.42h-82.04l.003-43.43.002-43.43.479-1.034c.53-1.148 1.83-2.446 2.975-2.971.685-.314 3.762-.342 37.563-.342s36.878.028 37.563.342c1.145.525 2.445 1.823 2.976 2.97.452.978.479 1.273.483 5.28.006 4.587.11 5.128 1.052 5.462.862.306 1.603-.002 1.935-.803.353-.853.404-6.422.08-8.696-.52-3.644-3.033-6.547-6.444-7.443-1.083-.285-5.369-.32-37.74-.308C20.937.014 15.732.058 14.76.32zm3.36 13.669c-1.21.433-2.52 1.65-3.079 2.863l-.482 1.047-.002 17.915c-.003 19.492-.054 18.623 1.125 18.922.558.14 1.28-.153 1.686-.688.19-.25.252-3.258.256-12.494l.007-12.164h8.94l.233.88c.32 1.21 1.327 2.546 2.293 3.043l.805.415.069 2.381c.092 3.185.19 3.295 3.048 3.394l2.046.071v2.65c0 3.715-.11 3.607 3.776 3.694l2.994.067.615-.62.614-.621v-5.208h1.628c1.745 0 2.59-.22 3.015-.785.181-.24.269-1.097.273-2.658l.007-2.305.586-.245c.956-.4 2.1-1.747 2.502-2.947l.37-1.102 17.961-.053 17.961-.053v43.469l-.615.708c-.339.39-.8.756-1.026.816-.38.1-.41.006-.41-1.334 0-2.28-.325-3.224-1.524-4.426-.652-.654-1.355-1.137-1.884-1.295-.57-.17-2.617-.252-6.307-.252h-5.463v-7.858c0-5.4-.072-8.02-.231-8.372-.128-.282-.474-.615-.77-.738-.375-.157-5.307-.209-16.297-.17l-15.76.056-.392.489c-.32.399-.392.825-.392 2.33v1.84l-4.872.006c-5.358.008-5.45.028-5.802 1.263-.108.382-.197 3.048-.197 5.924v5.23l-.769.001c-1.274.002-2.203.372-3.233 1.286-1.266 1.126-1.59 1.92-1.73 4.242l-.113 1.906-.626-.307c-1.302-.639-1.323-.77-1.323-8.36V58.98l-.503-.508c-.646-.652-1.536-.665-2.128-.03-.44.474-.446.57-.444 7.713.002 7.173.007 7.243.487 8.27.563 1.2 1.294 1.942 2.588 2.62l.923.485 33.638.054c31.335.05 33.704.03 34.615-.301 1.27-.46 2.268-1.305 2.97-2.512l.564-.968.054-27.944.055-27.944-.529-1.09c-.29-.6-.902-1.413-1.36-1.809-1.692-1.462.935-1.364-36.15-1.346-28.764.014-33.565.059-34.29.319zm67.892 3.085c.789.377 1.355 1.276 1.355 2.15v.642H17.63v-.632c0-.914.495-1.742 1.271-2.128.617-.307 3.609-.337 33.566-.341 28.972-.005 32.967.032 33.544.309zM26.655 24.73v1.553H17.63v-3.106h9.025v1.553zm21.536 1.77c0 3.251-.01 3.333-.504 3.83l-.503.508H30.793l-.53-.637c-.522-.625-.532-.697-.532-3.83v-3.194h18.46V26.5zm39.175-1.77v1.553H51.473v-3.106h35.893v1.553zM44.87 35.136l.062 1.087H33.218v-2.284l5.794.055 5.795.055.062 1.087zm-4.925 6.004l-.06 1.605-.872.064-.871.063v-3.336h1.863l-.06 1.604zm27.014 18.894v6.936l-19.126.053-19.126.053v-9.32h4.858c4.706 0 4.873-.014 5.333-.45.425-.403.474-.636.474-2.243 0-.986.063-1.855.139-1.932.076-.077 6.283-.116 13.793-.087l13.655.054v6.936zm14.71 10.72c.39.393.477.74.54 2.122l.074 1.652H22.714l.076-1.677c.069-1.534.124-1.718.65-2.176l.576-.5 28.593.054 28.593.054.466.47zM66.297 79.84c-1.165.416-2.827 1.962-3.502 3.258-.479.92-.55 1.3-.55 2.921 0 1.622.071 2.001.55 2.921.7 1.342 2.347 2.846 3.586 3.272.527.181 1.61.329 2.408.327 2.5-.003 4.62-1.35 5.762-3.662.789-1.596.844-3.982.126-5.474-.712-1.482-1.76-2.575-3.14-3.27-1.09-.55-1.471-.634-2.817-.62-.856.01-1.947.156-2.423.327zm14.99.157c-1.47.69-2.63 1.817-3.289 3.194-.467.977-.56 1.447-.56 2.828 0 1.381.093 1.852.56 2.829 1.093 2.284 3.296 3.688 5.794 3.691 1.9.003 3.133-.445 4.405-1.599 2.073-1.881 2.772-4.632 1.83-7.198-.59-1.61-2.327-3.4-3.783-3.9-1.512-.52-3.664-.453-4.957.155zm-10.965 3.037c1.418.872 2.023 2.292 1.635 3.837-.575 2.286-3.389 3.322-5.298 1.95-.756-.544-1.435-1.87-1.435-2.802 0-1.3 1.037-2.808 2.247-3.267.73-.277 2.176-.134 2.852.282zm15.595.18c.76.547 1.44 1.87 1.44 2.805 0 .933-.679 2.258-1.435 2.802-.428.307-1.062.515-1.748.573-3.653.305-5.106-4.464-1.941-6.37.98-.59 2.722-.501 3.684.19zM98.065 98.19c1.633.81 2.991 2.434 3.544 4.238l.142.466H3.245l.135-.466c.444-1.528 1.619-3.1 2.933-3.922 1.62-1.014-.488-.972 46.493-.93l44.098.038 1.16.576z"/></mask><path clip-rule="evenodd" d="M14.759.32c-3.245.877-5.803 3.79-6.364 7.25-.122.754-.198 17.565-.199 44.103v42.885l-.718.117c-1.124.184-3.266 1.342-4.257 2.301-1.91 1.847-2.945 3.995-3.167 6.572-.111 1.286-.084 1.414.412 1.915l.532.537h103.001l.503-.508c.562-.568.629-1.239.298-3.036-.637-3.471-3.75-6.923-6.93-7.686l-1.064-.255-.054-36.475c-.052-35.537-.063-36.486-.444-36.91-.531-.593-1.764-.593-2.295 0-.381.424-.392 1.371-.444 36.855l-.053 36.42h-82.04l.003-43.43.002-43.43.479-1.034c.53-1.148 1.83-2.446 2.975-2.971.685-.314 3.762-.342 37.563-.342s36.878.028 37.563.342c1.145.525 2.445 1.823 2.976 2.97.452.978.479 1.273.483 5.28.006 4.587.11 5.128 1.052 5.462.862.306 1.603-.002 1.935-.803.353-.853.404-6.422.08-8.696-.52-3.644-3.033-6.547-6.444-7.443-1.083-.285-5.369-.32-37.74-.308C20.937.014 15.732.058 14.76.32zm3.36 13.669c-1.21.433-2.52 1.65-3.079 2.863l-.482 1.047-.002 17.915c-.003 19.492-.054 18.623 1.125 18.922.558.14 1.28-.153 1.686-.688.19-.25.252-3.258.256-12.494l.007-12.164h8.94l.233.88c.32 1.21 1.327 2.546 2.293 3.043l.805.415.069 2.381c.092 3.185.19 3.295 3.048 3.394l2.046.071v2.65c0 3.715-.11 3.607 3.776 3.694l2.994.067.615-.62.614-.621v-5.208h1.628c1.745 0 2.59-.22 3.015-.785.181-.24.269-1.097.273-2.658l.007-2.305.586-.245c.956-.4 2.1-1.747 2.502-2.947l.37-1.102 17.961-.053 17.961-.053v43.469l-.615.708c-.339.39-.8.756-1.026.816-.38.1-.41.006-.41-1.334 0-2.28-.325-3.224-1.524-4.426-.652-.654-1.355-1.137-1.884-1.295-.57-.17-2.617-.252-6.307-.252h-5.463v-7.858c0-5.4-.072-8.02-.231-8.372-.128-.282-.474-.615-.77-.738-.375-.157-5.307-.209-16.297-.17l-15.76.056-.392.489c-.32.399-.392.825-.392 2.33v1.84l-4.872.006c-5.358.008-5.45.028-5.802 1.263-.108.382-.197 3.048-.197 5.924v5.23l-.769.001c-1.274.002-2.203.372-3.233 1.286-1.266 1.126-1.59 1.92-1.73 4.242l-.113 1.906-.626-.307c-1.302-.639-1.323-.77-1.323-8.36V58.98l-.503-.508c-.646-.652-1.536-.665-2.128-.03-.44.474-.446.57-.444 7.713.002 7.173.007 7.243.487 8.27.563 1.2 1.294 1.942 2.588 2.62l.923.485 33.638.054c31.335.05 33.704.03 34.615-.301 1.27-.46 2.268-1.305 2.97-2.512l.564-.968.054-27.944.055-27.944-.529-1.09c-.29-.6-.902-1.413-1.36-1.809-1.692-1.462.935-1.364-36.15-1.346-28.764.014-33.565.059-34.29.319zm67.892 3.085c.789.377 1.355 1.276 1.355 2.15v.642H17.63v-.632c0-.914.495-1.742 1.271-2.128.617-.307 3.609-.337 33.566-.341 28.972-.005 32.967.032 33.544.309zM26.655 24.73v1.553H17.63v-3.106h9.025v1.553zm21.536 1.77c0 3.251-.01 3.333-.504 3.83l-.503.508H30.793l-.53-.637c-.522-.625-.532-.697-.532-3.83v-3.194h18.46V26.5zm39.175-1.77v1.553H51.473v-3.106h35.893v1.553zM44.87 35.136l.062 1.087H33.218v-2.284l5.794.055 5.795.055.062 1.087zm-4.925 6.004l-.06 1.605-.872.064-.871.063v-3.336h1.863l-.06 1.604zm27.014 18.894v6.936l-19.126.053-19.126.053v-9.32h4.858c4.706 0 4.873-.014 5.333-.45.425-.403.474-.636.474-2.243 0-.986.063-1.855.139-1.932.076-.077 6.283-.116 13.793-.087l13.655.054v6.936zm14.71 10.72c.39.393.477.74.54 2.122l.074 1.652H22.714l.076-1.677c.069-1.534.124-1.718.65-2.176l.576-.5 28.593.054 28.593.054.466.47zM66.297 79.84c-1.165.416-2.827 1.962-3.502 3.258-.479.92-.55 1.3-.55 2.921 0 1.622.071 2.001.55 2.921.7 1.342 2.347 2.846 3.586 3.272.527.181 1.61.329 2.408.327 2.5-.003 4.62-1.35 5.762-3.662.789-1.596.844-3.982.126-5.474-.712-1.482-1.76-2.575-3.14-3.27-1.09-.55-1.471-.634-2.817-.62-.856.01-1.947.156-2.423.327zm14.99.157c-1.47.69-2.63 1.817-3.289 3.194-.467.977-.56 1.447-.56 2.828 0 1.381.093 1.852.56 2.829 1.093 2.284 3.296 3.688 5.794 3.691 1.9.003 3.133-.445 4.405-1.599 2.073-1.881 2.772-4.632 1.83-7.198-.59-1.61-2.327-3.4-3.783-3.9-1.512-.52-3.664-.453-4.957.155zm-10.965 3.037c1.418.872 2.023 2.292 1.635 3.837-.575 2.286-3.389 3.322-5.298 1.95-.756-.544-1.435-1.87-1.435-2.802 0-1.3 1.037-2.808 2.247-3.267.73-.277 2.176-.134 2.852.282zm15.595.18c.76.547 1.44 1.87 1.44 2.805 0 .933-.679 2.258-1.435 2.802-.428.307-1.062.515-1.748.573-3.653.305-5.106-4.464-1.941-6.37.98-.59 2.722-.501 3.684.19zM98.065 98.19c1.633.81 2.991 2.434 3.544 4.238l.142.466H3.245l.135-.466c.444-1.528 1.619-3.1 2.933-3.922 1.62-1.014-.488-.972 46.493-.93l44.098.038 1.16.576z" stroke="#000" stroke-width="4" mask="url(#path-1-inside-1_240_2120)"/></g></svg>