<svg width="104" height="103" fill="none" xmlns="http://www.w3.org/2000/svg"><path opacity=".6" fill-rule="evenodd" clip-rule="evenodd" d="M21.423.294c-7.25 1.339-13 6.668-14.976 13.881-.637 2.325-.631 6.98.011 9.385.917 3.43 3.185 7.151 5.67 9.299 1.29 1.114 3.326 2.48 4.3 2.883.345.143.624.318.62.388-.005.07-.482.356-1.061.635-3.326 1.605-6.622 5.034-8.314 8.649l-.61 1.306H4.226c-2.138 0-2.982.076-3.431.308-1.061.549-1.061 2.085 0 2.634.513.266 2.283.309 12.745.312l12.148.003.809.458c2.147 1.216 2.29 4.42.262 5.867l-.664.474-12.563.102-12.563.101-.49.57c-.626.728-.623 1.449.009 2.08.485.485.582.499 3.536.499h3.037l.611 1.306c1.726 3.688 5.002 7.051 8.671 8.901 1.465.74 4.014 1.502 5.978 1.79 4.42.645 9.51-.636 13.32-3.354 1.24-.886 4.573-4.233 4.573-4.593 0-.105.091-.19.203-.19.129 0 .203 1.498.203 4.088 0 2.645.111 4.836.315 6.208.776 5.227 2.987 10.537 6.217 14.937 1.655 2.254 5.322 5.838 7.693 7.522 2.066 1.466 5.908 3.466 8.232 4.285 2.277.802 5.871 1.527 8.706 1.755 3.783.304 30.692.282 31.27-.026.926-.493.938-.583.945-6.796.006-5.673-.01-5.936-.413-6.448l-.419-.533-8.451-.053-8.451-.053 1.1-.73c3.809-2.533 7.166-6.668 8.669-10.68l.556-1.486 3.007-.002c3.736-.002 4.423-.267 4.402-1.695-.008-.53-.345-1.001-.945-1.321-.325-.173-4.304-.236-14.919-.236-14.335 0-14.483-.005-15.365-.431-1.352-.655-1.98-1.742-1.98-3.43 0-1.686.628-2.773 1.98-3.428.791-.383 1.245-.431 4.066-.431 3.005 0 3.202-.025 3.686-.457.839-.75.883-1.454.137-2.2l-.634-.634-3.5.074c-3.325.07-3.562.102-4.72.64-5.637 2.619-5.637 10.245 0 12.877l1.22.569 10.106.06c5.56.032 10.107.109 10.107.17 0 .061-.429.942-.953 1.957-3.743 7.248-11.086 11.276-19.477 10.685-7.623-.537-14.608-5.989-17.144-13.38-1.667-4.862-1.293-10.833.962-15.338 2.523-5.042 7.206-8.897 12.763-10.506 1.416-.41 2.033-.464 5.26-.454 3.38.01 3.793.053 5.443.56 5.435 1.671 9.672 5.16 12.193 10.04.524 1.015.953 1.9.953 1.966 0 .066-1.687.12-3.748.12-2.354 0-3.937.086-4.253.23-1.128.514-1.128 2.277 0 2.791.349.159 3.102.23 8.935.23 7.142 0 8.523-.047 9.028-.309 1.061-.548 1.061-2.085 0-2.633-.454-.235-1.315-.31-3.603-.311l-3.006-.002-.557-1.486c-.306-.817-1.01-2.24-1.565-3.163-3.744-6.23-9.695-10.15-16.975-11.186-5.543-.788-12.153.965-16.77 4.447-1.7 1.281-4.118 3.814-5.22 5.468l-.858 1.287-.054-15.335c-.053-14.752-.07-15.35-.442-15.761-.58-.642-1.795-.586-2.34.107-.42.534-.422.593-.422 21.949 0 22.595.047 23.955.936 27.06.64 2.238 2.412 5.841 3.713 7.553 1.28 1.682 3.844 4.14 5.48 5.252 2.853 1.937 6.846 3.448 10.234 3.873.998.125 7.205.21 15.438.21h13.769v7.737l-15.49-.072c-15.029-.07-15.547-.086-17.374-.512-6.515-1.52-11.418-4.266-15.901-8.906-3.972-4.111-6.586-9.049-7.945-15.009l-.464-2.032-.063-35.094-.062-35.095h7.729l.004 8.99c.002 6.808.064 9.111.258 9.493.532 1.051 2.14 1.058 2.68.01.264-.508.309-2.027.309-10.37 0-10.014-.022-10.317-.795-10.91-.236-.181-1.908-.25-6.237-.254-5.682-.006-5.936.01-6.45.415l-.536.42V4.58c0 2.06-.069 3.743-.152 3.742-.084 0-.374-.327-.645-.725-1.225-1.798-3.732-3.976-6.11-5.308C30.259.353 25.385-.438 21.423.294zm7.009 3.287c3.2.75 6.739 3.06 8.743 5.705 2.042 2.696 2.988 5.314 3.18 8.798.314 5.745-2.326 10.892-7.182 14.005l-1.592 1.02-.108-7.77c-.102-7.34-.132-7.832-.543-8.85-.666-1.647-1.696-2.763-3.262-3.533-1.2-.591-1.556-.67-2.992-.668-1.363.002-1.817.094-2.775.563-1.335.653-2.667 2.014-3.29 3.36-.42.909-.443 1.295-.54 8.923l-.102 7.972-1.259-.76c-2.638-1.594-4.654-3.775-6.053-6.551-2.935-5.82-1.865-12.869 2.685-17.692 2.684-2.846 5.776-4.356 10.113-4.938.988-.132 3.555.082 4.977.416zM26.44 15.766c1.624.822 2.274 3.171 1.324 4.791-1.234 2.106-4.153 2.406-5.686.584-1.18-1.403-1.133-3.257.118-4.614 1.121-1.217 2.762-1.511 4.244-.761zm34.822 7.439c-.5.448-3.983 8.453-3.983 9.153 0 .177.214.57.476.875.578.672 1.595.75 2.15.163.354-.374 3.875-8.542 3.875-8.989 0-.492-.482-1.222-.946-1.434-.714-.325-1-.283-1.572.232zm-39.002 1.81c1.314.583 3.417.589 4.901.014l1.067-.414v23.098l-.965-.429c-.764-.339-1.507-.448-3.555-.523l-2.59-.095V35.621c0-6.075.033-11.045.075-11.045.042 0 .522.198 1.067.44zm45.14 7.027c-3.592 3.58-3.882 4.074-2.941 5.015.347.346.744.52 1.184.52.584 0 1.04-.377 3.869-3.206 2.966-2.966 3.207-3.262 3.207-3.947 0-.557-.132-.843-.536-1.16-1.05-.827-1.328-.665-4.783 2.778zm-26.79 4.165l-.009 6.958-.547-.711c-1.823-2.367-4.527-4.708-6.595-5.709-.53-.257-.965-.523-.965-.592 0-.069.338-.286.752-.483 2.074-.99 5.05-3.484 6.48-5.433.399-.543.764-.988.81-.988.046 0 .08 3.13.075 6.958zm32.007 3.512c-2.25.95-4.222 1.907-4.418 2.146-.779.943-.08 2.417 1.147 2.417.786 0 8.678-3.365 9.112-3.885.818-.98.148-2.422-1.118-2.403-.363.005-2.488.781-4.723 1.725zM18.071 42.96v3.759h-3.758c-2.068 0-3.759-.04-3.759-.087 0-.048.341-.665.758-1.371.986-1.67 3.665-4.332 5.332-5.297.724-.419 1.341-.762 1.372-.762.03 0 .055 1.691.055 3.758zm15.44-2.519c3.11 2.147 5.145 4.95 6.33 8.724.621 1.98.672 6.242.099 8.321-1.508 5.468-5.913 9.786-11.406 11.18-2.196.557-5.508.563-7.646.014-2.952-.758-5.503-2.283-7.641-4.569-1.032-1.103-2.693-3.476-2.693-3.847 0-.063 3.543-.143 7.873-.177l7.872-.062 1.147-.538c2.115-.99 3.444-2.785 3.836-5.178.107-.655.195-4.325.196-8.156l.001-6.965.457.241c.252.133.96.588 1.575 1.012z" fill="#231F20"/></svg>