<svg width="98" height="106" fill="none" xmlns="http://www.w3.org/2000/svg"><path opacity=".6" fill-rule="evenodd" clip-rule="evenodd" d="M8.92.12C5.19.769 2.002 3.46.602 7.144L.136 8.369.081 44.43C.03 78.645.045 80.515.391 80.933c.201.243.662.499 1.024.569.53.102.76.024 1.188-.405l.53-.531V45.287c0-39.217-.091-36.684 1.403-38.884.442-.65 1.257-1.468 1.906-1.912 2.146-1.464 1.398-1.42 23.171-1.357l19.507.057 1.375.652c2.366 1.124 3.82 3.007 4.29 5.556.317 1.72.317 85.485 0 87.205-.464 2.515-1.956 4.446-4.289 5.554l-1.376.654-19.506.057c-21.774.063-21.026.107-23.172-1.358-.65-.443-1.464-1.261-1.906-1.912-1.236-1.82-1.403-2.86-1.403-8.75v-5.143l-.507-.508c-.652-.654-1.44-.648-2.102.016L0 85.74l.081 5.948c.075 5.474.117 6.043.53 7.159.575 1.556 1.146 2.479 2.309 3.732 1.213 1.307 2.356 2.084 4.087 2.779l1.397.561 19.99.058c22.028.064 21.372.097 23.974-1.219 1.62-.82 3.574-2.779 4.465-4.478 1.327-2.528 1.27-.947 1.274-35.628l.004-31.532h1.724c1.406 0 1.892-.09 2.635-.482 1.133-.6 2.213-1.984 2.384-3.056l.13-.812h2.542c2.5 0 2.55.01 2.97.546l.429.546.003 32.022c.004 35.677-.082 33.493 1.45 36.593 3.947 7.983 14.61 10.01 21.136 4.018 1.54-1.414 2.338-2.475 3.258-4.333 1.301-2.63 1.222.665 1.225-50.581L98 .84l-.545-.43c-.679-.535-1.332-.546-1.964-.033l-.488.395-.103 46.981c-.114 51.775.013 47.095-1.35 49.79-1.666 3.295-6.134 5.67-9.944 5.286-4.607-.464-8.56-4.053-9.36-8.495-.15-.838-.222-11.393-.223-33.138l-.002-31.91-.493-1.059c-.955-2.056-2.57-2.772-6.253-2.772h-2.344v-3.144l3.049.082c2.558.069 3.24.158 4.244.554 1.671.66 3.431 2.338 4.198 4.003l.6 1.301.103 5.846c.1 5.673.117 5.86.557 6.3a1.57 1.57 0 002.193-.002c.445-.446.454-.56.448-6.092-.005-4.833-.06-5.815-.38-6.88-1.2-3.983-4.245-6.974-8.004-7.862-.84-.198-2.364-.314-4.166-.316-2.807-.003-2.842-.009-2.847-.469-.013-1.381-1.748-3.454-3.236-3.868-.434-.121-1.417-.22-2.184-.221l-1.395-.002-.004-2.433c-.002-1.339-.134-3.05-.294-3.805C57.06 4.886 54.563 2.01 50.98.58L49.74.084 29.588.058C18.505.043 9.206.072 8.92.12zm80.326.288l-.543.428-.053 46.328-.054 46.328-.47.88c-.257.484-.855 1.136-1.328 1.45-.736.487-1.07.57-2.336.57-1.682 0-2.545-.435-3.428-1.727l-.499-.729-.103-24.35c-.082-19.242-.159-24.449-.368-24.815-.531-.932-2.17-.836-2.675.156-.208.409-.252 5.51-.211 24.747l.05 24.232.497 1.236c.598 1.487 2.26 3.249 3.644 3.862 1.99.883 4.564.862 6.351-.052 1.357-.693 2.73-2.134 3.381-3.548l.595-1.291.054-46.556L91.803 1l-.509-.51c-.621-.623-1.327-.651-2.048-.083zM14.969 8.17c-3.423.924-5.875 3.41-6.774 6.866-.465 1.79-.465 74.14 0 75.93.91 3.5 3.369 5.965 6.862 6.877.987.257 3.287.309 13.823.309 7.595 0 13.084-.084 13.753-.209 3.66-.684 6.717-3.802 7.4-7.544.314-1.726.314-73.07 0-74.795-.683-3.742-3.74-6.86-7.4-7.545-.675-.126-6.128-.203-13.848-.194-10.275.01-12.943.07-13.816.305zm28.511 3.472c1.448.713 2.702 2.094 3.2 3.526.354 1.017.373 2.936.373 37.833s-.019 36.817-.373 37.834c-.498 1.431-1.752 2.813-3.2 3.525l-1.18.581H15.843l-1.077-.488c-1.343-.608-2.76-2.1-3.28-3.453-.386-1-.396-2.056-.396-37.999 0-35.864.011-37 .394-37.993.706-1.836 2.46-3.36 4.408-3.829.43-.103 6.516-.172 13.592-.153l12.814.035 1.181.581zm-22.173 4.356c-2.135.59-3.93 2.145-4.918 4.255l-.545 1.164-.065 9.734c-.07 10.491 0 11.458.956 13.228.698 1.292 2.31 2.704 3.76 3.293 1.103.448 1.355.462 8.577.46 6.523 0 7.549-.044 8.321-.353 2.13-.854 3.813-2.564 4.54-4.616.332-.938.366-1.991.366-11.184 0-9.142-.036-10.25-.362-11.184-.714-2.038-2.708-4.045-4.665-4.693-1.116-.37-14.685-.458-15.965-.104zm40.135 2.395c.357.441.389.898.389 5.57 0 4.941-.014 5.104-.45 5.57-.384.41-.652.479-1.86.479h-1.41V17.745l1.471.084c1.233.07 1.535.161 1.86.564zm-24.71.886c.96.527 1.936 1.623 2.174 2.441.137.472.19 4.281.15 10.706l-.063 9.974-.633.783c-1.402 1.735-.846 1.637-9.267 1.637h-7.492l-.742-.509c-1.031-.709-1.763-1.926-1.917-3.19-.07-.585-.1-5.119-.063-10.074l.065-9.009.567-.966c.592-1.009 1.608-1.779 2.711-2.053.357-.09 3.626-.145 7.263-.125 5.756.033 6.696.083 7.247.385zM25.93 27.174c-2.135 2.139-2.335 2.405-2.335 3.107 0 .95.587 1.595 1.451 1.595.445 0 .892-.247 1.55-.855l.926-.855v4.029c0 3.944.01 4.038.478 4.48.677.637 1.652.594 2.193-.096.4-.508.429-.813.429-4.48v-3.933l.925.855c1.082 1 1.86 1.114 2.552.375.914-.974.672-1.48-1.982-4.132-3.233-3.23-3.055-3.228-6.187-.09zM21.326 58.09c-2.091.576-3.8 1.935-4.73 3.761-.806 1.583-.884 2.833-.817 13l.065 9.735.55 1.175a7.842 7.842 0 003.657 3.744l1.365.673h7.445c5.407 0 7.68-.072 8.304-.262 2.011-.613 4.038-2.613 4.772-4.709.326-.933.362-2.042.362-11.184 0-9.192-.034-10.246-.367-11.184-.728-2.056-2.427-3.78-4.539-4.607-1.274-.5-14.353-.615-16.067-.142zm15.831 3.52c.314.235.856.78 1.204 1.21l.632.782.063 9.974c.04 6.425-.013 10.235-.15 10.706-.238.818-1.215 1.914-2.174 2.442-.558.306-1.472.347-7.66.347h-7.027l-.977-.575a4.412 4.412 0 01-1.55-1.553l-.574-.979v-9.941c0-10.913-.05-10.45 1.273-11.786 1.132-1.145 1.208-1.154 9.098-1.102 6.986.045 7.293.064 7.842.475zm-9.186 5.747c-.43.458-.45.657-.45 4.48v4l-.925-.856c-.659-.608-1.105-.854-1.55-.854-.864 0-1.451.645-1.451 1.595 0 .7.2.967 2.335 3.106 3.131 3.139 2.954 3.141 6.187-.09 2.057-2.056 2.432-2.529 2.432-3.07 0-.791-.738-1.541-1.517-1.541-.368 0-.875.291-1.485.854l-.925.855v-3.933c0-3.666-.03-3.971-.429-4.48-.56-.713-1.587-.743-2.222-.066z" fill="#231F20"/></svg>