<svg width="76" height="106" fill="none" xmlns="http://www.w3.org/2000/svg"><path opacity=".6" fill-rule="evenodd" clip-rule="evenodd" d="M36.11.172c-1.506.46-3.055 1.853-3.653 3.287-.17.408-.37 1.717-.444 2.908l-.136 2.166-1.81.374c-4.445.92-10.214 3.452-13.986 6.14-2.374 1.691-6.202 5.349-7.97 7.614-9.467 12.136-10.765 28.885-3.27 42.187 5.349 9.492 14.379 16.194 25.08 18.613l2.06.465v4.843l-6.352.091c-6.197.089-6.393.105-8.021.641-2.907.958-5.495 3.119-6.905 5.766-.61 1.145-2.684 8.286-2.684 9.239 0 .263.228.706.507.986l.507.508h28.912c15.901 0 29.062-.058 29.246-.129.184-.07.474-.399.645-.73.292-.565.248-.837-.73-4.551-.625-2.375-1.305-4.459-1.705-5.224-.905-1.73-3.407-4.239-5.067-5.078-2.427-1.225-3.068-1.317-10.02-1.422l-6.352-.097V83.9l1.807-.354c3.992-.78 9.169-2.889 12.597-5.13 2.474-1.618 3.912-2.768 6.016-4.81 6.362-6.175 10.078-13.508 11.393-22.48.337-2.298.287-7.816-.094-10.354-.392-2.616-1.343-6.275-2.182-8.39-2.05-5.172-6.237-11.489-7.616-11.489-.259 0-.751.282-1.095.626-.814.816-.709 1.225.844 3.273 3.401 4.485 5.557 9.262 6.675 14.788.406 2.01.47 2.944.462 6.783-.007 3.825-.074 4.758-.476 6.626-2.17 10.082-7.898 18.152-16.594 23.376-3.201 1.923-6.804 3.303-10.958 4.198-2.917.629-9.74.682-12.864.1a35.194 35.194 0 01-17.865-9.175C8.382 66.08 4.953 59.635 3.562 51.85c-.536-3.009-.5-8.518.076-11.704.885-4.88 3.156-10.303 5.98-14.28 1.797-2.53 5.612-6.35 8.112-8.123 8.171-5.793 18.295-7.85 27.894-5.669 5.36 1.218 8.923 2.94 14.635 7.07.89.643 1.557.642 2.2-.002 1.119-1.122.506-2.046-2.909-4.383-4.482-3.068-8.8-4.843-15.02-6.177l-.568-.121V6.534c0-1.255-.12-2.28-.345-2.94-.456-1.341-1.924-2.813-3.263-3.27-1.04-.356-3.31-.437-4.243-.152zm3.993 3.711c.618.62.661.762.73 2.415l.072 1.756h-5.62V6.341c0-1.25.092-1.845.337-2.196.506-.725 1.473-1.077 2.725-.994.907.06 1.213.189 1.756.732zm-6.085 14.735c-12.372 1.954-21.75 11.517-23.535 24-.335 2.34-.129 7.233.402 9.543 2.54 11.057 11.037 19.255 22.24 21.455 2.433.478 7.146.488 9.712.02 11.395-2.073 20.265-10.912 22.537-22.454.53-2.69.48-7.58-.105-10.345-1.056-4.991-2.96-8.91-6.2-12.768-3.789-4.51-9.3-7.786-15.417-9.163-1.695-.382-7.873-.567-9.634-.288zm9.117 3.41c4.128 1 7.401 2.6 10.691 5.226l.466.372-3.157 3.16-3.158 3.16-.716-.538c-1.604-1.203-4.036-2.247-6.191-2.655l-1.343-.255-.103-3.228c-.09-2.796-.157-3.287-.497-3.664-.514-.568-1.632-.579-2.189-.021-.377.378-.413.69-.413 3.63 0 2.397-.066 3.234-.258 3.287-.142.04-.856.183-1.587.32-1.795.337-3.61 1.092-5.302 2.206l-1.406.925-3.056-3.059c-1.682-1.682-3.057-3.124-3.057-3.205 0-.224 2.212-1.869 3.791-2.818 2.557-1.537 5.653-2.628 8.913-3.14 1.753-.275 6.957-.096 8.572.296zm-20.388 11.04l3.051 3.065-.923 1.41c-1.13 1.724-1.847 3.474-2.277 5.563-.562 2.726-.416 3.619.66 4.066.748.31 1.626.01 1.9-.65.107-.258.294-1.154.415-1.99.43-2.968 1.336-4.838 3.41-7.035 1.883-1.997 4.23-3.288 6.694-3.682l.848-.136V38.6l-.878.27c-3.257 1-5.522 4.392-5.272 7.895.216 3.028 2.29 5.74 5.118 6.695l.929.314.053 1.316c.077 1.922.191 2.24.913 2.544 1.384.584 2.092-.142 2.236-2.296l.103-1.544 1.173-.477c3.008-1.223 4.762-3.861 4.76-7.161-.002-2.064-.58-3.58-1.93-5.062-.954-1.046-3.11-2.393-3.83-2.393-.216 0-.276-.546-.276-2.485 0-2.835-.09-2.732 1.873-2.154 4.255 1.254 7.684 4.808 8.763 9.083.398 1.574.395 4.392-.006 6.096-.375 1.597-1.518 3.84-2.568 5.042-.887 1.016-1.246 1.634-1.246 2.15 0 .2 1.774 2.15 3.942 4.333l3.942 3.97-.895.721c-4.379 3.524-9.607 5.365-15.243 5.367-3.942.002-7.211-.686-10.499-2.208-1.453-.673-4.284-2.465-5.398-3.416l-.5-.427 3.856-3.885c4.505-4.54 4.494-4.514 2.928-6.308-.51-.585-1.253-1.683-1.65-2.44-.5-.953-.901-1.45-1.305-1.619-1.041-.432-2.107.29-2.107 1.425 0 .516.988 2.51 1.744 3.522l.536.718-3.148 3.161-3.149 3.162-.465-.567c-3.783-4.61-5.82-10.68-5.574-16.614.16-3.896.821-6.536 2.517-10.061.852-1.77 3.217-5.263 3.565-5.263.087 0 1.531 1.38 3.21 3.064zm34.713-2.043c6.97 9.162 6.873 21.752-.237 30.63l-.72.899-3.069-3.072c-1.688-1.689-3.069-3.148-3.069-3.243 0-.095.267-.562.592-1.038 1.903-2.781 2.737-5.534 2.74-9.045.002-3.408-.777-6-2.668-8.87l-.727-1.105 3.076-3.088c1.692-1.699 3.128-3.089 3.19-3.089.064 0 .465.46.892 1.02zM40.361 42.323c2.55 1.498 2.924 5.219.724 7.212-1.013.916-2.034 1.245-3.532 1.136-2.774-.201-4.67-2.97-3.905-5.706.326-1.17 1.78-2.738 2.877-3.105 1.098-.367 2.766-.166 3.836.463zm.502 44.212v2.278h-5.577v-4.556h5.578v2.278zm17.615 6.36c1.648.782 3.386 2.425 4.133 3.908.402.797 1.8 5.44 1.8 5.977 0 .063-11.851.114-26.337.114-23.141 0-26.337-.037-26.337-.307 0-.61 1.255-4.916 1.67-5.733.94-1.847 3.117-3.689 5.128-4.337 1.081-.35 2.346-.37 19.85-.33l18.694.043 1.399.664z" fill="#231F20"/></svg>