<svg width="135" height="103" fill="none" xmlns="http://www.w3.org/2000/svg"><path opacity=".6" fill-rule="evenodd" clip-rule="evenodd" d="M9.522.418C5.065 1.618 1.569 5.17.393 9.69.053 11 0 16.606 0 51.258c0 26.14.094 40.547.27 41.475.927 4.898 5.166 9.077 10.128 9.985 1.092.2 18.366.285 57.216.282 60.695-.005 57.669.07 60.603-1.5 3.164-1.691 5.861-5.322 6.513-8.767.175-.928.269-15.336.269-41.475 0-44.082.095-41.463-1.621-44.69-.448-.84-1.489-2.174-2.313-2.961C128.341 1.004 125.54 0 121.005 0c-2.443 0-2.9.071-3.504.548-.88.693-.955 2.094-.152 2.844.458.427 1.049.524 3.758.617 2.744.094 3.427.209 4.676.785 2.076.957 3.276 2.12 4.267 4.137l.862 1.755v81.622l-.707 1.51c-.916 1.958-2.728 3.709-4.64 4.482l-1.508.61-55.37.074c-34.924.046-55.987-.022-57.038-.183-3.21-.495-5.554-2.203-6.864-5.002l-.698-1.491V10.697l.686-1.465c.978-2.09 2.136-3.285 4.143-4.274l1.751-.864 50.586-.132c49.691-.13 50.592-.141 50.96-.645.621-.851.471-2.145-.321-2.77L111.198 0 61.07.017C18.166.032 10.738.09 9.522.417zm13.265 10.145c-3.058 1.216-4.873 3.779-5.068 7.156l-.117 2.025-2.022.118c-4.319.25-7.148 3.099-7.14 7.19.005 2.535 1.798 5.24 4.169 6.291.63.28 2.025.574 3.101.656l1.956.148v14.834c0 14.564.01 14.846.537 15.413.732.787 2.09.77 2.845-.033l.573-.612V34.07h7.92l-.07 26.082-.072 26.081-.614.862c-1.679 2.359-4.714 2.34-6.488-.039-.517-.692-.548-1.125-.622-8.694-.074-7.712-.095-7.985-.639-8.565-.749-.799-2.106-.802-2.846-.007-.538.579-.549.782-.471 9.046l.079 8.454.782 1.414c1.491 2.697 3.918 4.123 6.996 4.11 1.62-.005 2.225-.135 3.345-.715 1.678-.868 3.037-2.234 3.832-3.851l.601-1.223.071-26.44.07-26.439L35.42 34c2.332-.176 3.462-.62 4.911-1.933 2.73-2.47 3.122-6.11.996-9.24-1.255-1.849-3.12-2.813-5.735-2.964l-2.04-.119-.122-1.882c-.139-2.146-.795-3.84-2.033-5.253-1.939-2.212-5.853-3.142-8.61-2.046zm40.494-.296c-1.511.499-2.9 1.405-3.903 2.546-2.008 2.285-1.898.549-1.898 29.888v26.233h-1.534c-4.558 0-7.694 2.916-7.694 7.152 0 4.124 3.275 7.11 7.798 7.11h1.374l.1 2.047c.22 4.517 3.312 7.544 7.734 7.57 4.365.026 7.573-3.099 7.963-7.756l.15-1.79 1.95-.148c2.358-.178 3.913-.875 5.24-2.345 2.633-2.92 2.538-6.86-.234-9.633-1.535-1.535-3.246-2.207-5.62-2.207H73.31l-.07-26.346-.072-26.345-.69-1.475c-.848-1.811-2.298-3.305-3.896-4.013-1.302-.576-4.218-.845-5.301-.488zm39.239.187c-1.675.516-3.92 2.603-4.73 4.397l-.628 1.392-.079 13.63-.079 13.632-1.915.145c-2.257.17-3.406.603-4.752 1.787-3.178 2.795-3.16 7.741.04 10.562 1.363 1.2 3.185 1.842 5.239 1.842h1.39l.078 14.46c.077 14.178.09 14.484.648 15.695.313.68 1.058 1.766 1.654 2.413 3.081 3.348 8.535 3.233 11.59-.244 2.022-2.301 1.977-1.905 2.078-17.959l.089-14.291 1.914-.145c2.304-.174 3.455-.622 4.852-1.886 2.92-2.643 2.937-7.69.035-10.316-1.371-1.24-2.641-1.737-4.903-1.914l-1.896-.15-.081-13.63-.081-13.631-.628-1.392c-1.673-3.707-5.918-5.605-9.835-4.397zM27.646 14.72c1.202.9 1.658 1.77 1.811 3.462l.147 1.625h-7.983V18.57c0-.707.231-1.716.54-2.356.99-2.046 3.743-2.796 5.485-1.494zm39.83.011c.376.28.92.913 1.21 1.407.516.878.529 1.438.598 26.845l.071 25.95h-7.92V42.98c0-24.606.025-26 .481-26.873 1-1.912 3.885-2.625 5.56-1.374zm39.239-.215c.644.292 1.34.876 1.647 1.38.515.846.532 1.303.533 14.278l.001 13.404h-7.647v-13.35c0-14.553-.025-14.293 1.512-15.386 1.324-.94 2.404-1.03 3.954-.325zm-62.636 4.318c-.316.336-.573.936-.573 1.333 0 .917 1.078 2.018 1.977 2.018.376 0 .974-.292 1.33-.649.356-.356.648-.956.648-1.332 0-.921-1.098-1.981-2.052-1.981-.45 0-.989.247-1.33.611zm39.768-.083c-.725.726-.7 2.196.05 2.895 1 .933 2.368.671 3.013-.577.997-1.933-1.535-3.849-3.063-2.318zm39.306.168c-.3.382-.546.982-.546 1.332 0 .84 1.118 1.934 1.977 1.934.933 0 1.978-1.1 1.978-2.082 0-1.681-2.372-2.505-3.409-1.184zm-86.24 5.313c1.33.665 2.015 2.158 1.61 3.51-.167.56-.613 1.261-.992 1.56-.67.527-.99.542-11.955.542-10.803 0-11.294-.021-11.926-.52-1.916-1.51-1.458-4.335.852-5.258.396-.158 4.811-.27 11.074-.28 9.408-.014 10.504.029 11.338.446zm7.12 3.499c-1.253 1.255-.047 3.667 1.662 3.325 1.054-.211 1.447-.604 1.657-1.66.342-1.712-2.066-2.92-3.32-1.665zm39.799.015c-1.274 1.276.121 3.859 1.767 3.272.385-.137.936-.57 1.227-.96.466-.627.488-.804.188-1.528-.577-1.396-2.178-1.79-3.182-.784zm39.321.153c-.3.382-.546.982-.546 1.332 0 .84 1.118 1.933 1.977 1.933.919 0 1.978-1.1 1.978-2.054 0-1.736-2.344-2.568-3.409-1.211zm-79.12 8.812c-.954.955-.557 2.706.724 3.194.904.344 2.008-.106 2.406-.98.417-.916.376-1.25-.249-2.047-.685-.872-2.096-.954-2.881-.167zm39.723-.045c-.698.772-.565 2.282.258 2.93.953.751 1.58.688 2.517-.25.64-.641.764-.943.627-1.52-.355-1.505-2.446-2.219-3.402-1.16zm39.424.128c-.95 1.013-.724 2.33.511 2.97.917.475 1.944.267 2.481-.501 1.365-1.952-1.365-4.204-2.992-2.47zm-38.542 8.294c-1.369.495-1.822 2.44-.788 3.38 1.218 1.103 3.249.193 3.249-1.457 0-1.236-1.38-2.314-2.46-1.923zm39.124.202c-1.661.7-1.541 2.87.196 3.532.944.36 2.273-.263 2.501-1.171.431-1.724-1.076-3.044-2.697-2.361zm-79.846.46c-.768 1.099-.482 2.395.661 2.987.893.462 1.83.192 2.462-.711.562-.805.532-1.332-.125-2.168-.729-.928-2.383-.988-2.998-.108zm72.649 2.274c1.405.728 1.964 2.718 1.186 4.226-.767 1.487-.848 1.496-12.678 1.496s-11.912-.01-12.68-1.496c-.748-1.45-.257-3.49.99-4.112 1.069-.533 1.453-.55 12.085-.508 8.106.033 10.566.12 11.097.394zm-71.741 6.041c-2.094.772-1.519 3.775.723 3.775.833 0 1.914-.983 1.914-1.74 0-.781-.647-1.684-1.394-1.944-.437-.153-.806-.268-.821-.257a5.74 5.74 0 01-.422.166zm39.21.346c-.946.745-1.016 2.395-.128 3.018 1.918 1.346 4.319-.869 2.795-2.58-.87-.976-1.792-1.128-2.667-.438zm39.71-.267c-1.865.753-1.189 3.696.849 3.696 2.084 0 2.74-2.62.895-3.575-.843-.437-.943-.444-1.744-.12zm-14.848 17.72c0 15.614.038 15.265-1.778 16.389-1.797 1.112-4.25.536-5.36-1.26-.486-.787-.509-1.453-.509-14.988V57.84h7.647v14.024zM44.2 63.407c-.908.715-.947 2.028-.084 2.84.81.761 1.893.731 2.697-.075 1.016-1.017.832-2.275-.426-2.926-.995-.516-1.363-.489-2.187.16zm39.814 0c-.509.4-.694.789-.694 1.452 0 2.397 3.283 2.669 3.839.318.136-.577.011-.879-.628-1.519-.938-.939-1.564-1.002-2.517-.251zm39.24.1c-.791.793-.826 1.695-.101 2.618 1.082 1.377 3.409.525 3.409-1.248 0-.918-1.079-2.018-1.978-2.018-.376 0-.974.292-1.33.648zM44.079 72.45c-1.759 1.875.919 4.521 2.734 2.702.356-.356.648-.956.648-1.332 0-.92-1.098-1.981-2.052-1.981-.45 0-.989.247-1.33.611zm39.768-.083c-.326.327-.527.88-.527 1.453 0 2.24 2.818 2.772 3.677.694.771-1.865-1.73-3.57-3.15-2.147zm39.407.12c-.356.357-.647.957-.647 1.333 0 .86 1.091 1.98 1.93 1.98.989 0 2.025-.96 2.025-1.88 0-.981-1.045-2.081-1.978-2.081-.376 0-.974.292-1.33.648zM77.17 73.581c1.486 1.104 1.626 3.277.297 4.608l-.78.781H54l-.897-.898c-1.22-1.222-1.253-2.638-.093-3.962.442-.504 1.065-.97 1.385-1.035.319-.066 5.407-.103 11.306-.083 10.444.034 10.745.05 11.47.588zm-33.137 7.766c-1.13 1.133-.16 3.434 1.45 3.434.88 0 1.978-1.1 1.978-1.981 0-1.612-2.297-2.585-3.428-1.453zm39.814 0c-.785.787-.703 2.2.168 2.886 1.141.9 2.253.627 2.975-.731.26-.489.262-.78.007-1.397-.557-1.347-2.174-1.736-3.15-.758zm39.306.168c-.3.382-.546.982-.546 1.332 0 .84 1.118 1.934 1.977 1.934.933 0 1.978-1.1 1.978-2.082 0-1.681-2.372-2.505-3.409-1.184zm-53.912 3.19c-.318 2.71-1.727 4.137-4.05 4.102-2.155-.033-3.756-1.822-3.756-4.198v-1.413h7.982l-.176 1.51z" fill="#231F20"/></svg>