<svg width="81" height="103" fill="none" xmlns="http://www.w3.org/2000/svg"><path opacity=".6" fill-rule="evenodd" clip-rule="evenodd" d="M21.374.216c-1.435.274-3.678 1.418-4.835 2.466-2.32 2.101-3.435 4.593-3.606 8.057l-.11 2.206-3.045 3.027c-2.788 2.772-3.114 3.172-3.859 4.738-1.35 2.844-1.425 3.566-1.425 13.953v9.14l-.9.254c-1.09.307-2.549 1.553-3.153 2.69L0 47.579v30.804l.51.999c.601 1.176 1.88 2.23 3.11 2.562.857.23.874.252.874 1.081 0 2.569 1.29 6.145 2.93 8.127 1.33 1.608 9.241 8.93 10.605 9.815.727.472 2.047 1.106 2.933 1.409l1.61.55 17.162.057c14.605.048 17.4.011 18.756-.246 1.694-.322 3.582-1.116 4.978-2.095 1.35-.947 9.457-8.674 10.326-9.843 1.55-2.087 2.612-5.147 2.612-7.528 0-1.048.044-1.175.406-1.175.657 0 2.293-.933 2.894-1.651 1.222-1.459 1.285-1.807 1.29-7.21.004-5.352-.05-5.65-1.092-5.913-.581-.147-1.59.304-1.776.795-.068.18-.124 2.41-.124 4.959v4.632l-.68.684c-.668.674-.706.685-2.416.685-1.712 0-1.749-.01-2.421-.688l-.683-.689.053-14.825.054-14.826.653-.587c.612-.55.757-.587 2.344-.587 1.586 0 1.732.036 2.343.587l.653.587.1 7.683.1 7.682.471.385c.611.498 1.243.487 1.899-.033l.526-.417-.009-7.684c-.01-8.375-.026-8.517-1.165-9.967-.626-.796-2.364-1.842-3.06-1.842-.342 0-.36-.476-.36-9.427 0-8.68-.031-9.548-.389-10.958-.82-3.233-1.998-4.98-5.587-8.294l-2.398-2.214-.011-1.711c-.022-3.386-1.003-5.878-3.18-8.071-.788-.794-1.828-1.59-2.568-1.967C59.8-.044 60.318-.016 40.45.006c-10.444.011-18.5.1-19.076.21zm37.493 3.01c2.417.516 4.338 2.063 5.419 4.362l.634 1.348v37.636l-.634 1.349c-1.11 2.36-3.06 3.894-5.565 4.379-.856.166-6.205.214-18.97.17-17.727-.061-17.781-.063-18.837-.499a8.235 8.235 0 01-4.496-4.533c-.41-1.013-.434-1.437-.497-8.413-.065-7.148-.078-7.358-.488-7.799-.567-.61-1.435-.587-2.072.054l-.503.507.068 7.594.067 7.594.53 1.384c1.377 3.603 4.503 6.307 8.037 6.953.79.144 7.165.215 19.077.213 19.651-.003 19.17.024 21.636-1.23 1.626-.827 3.699-2.915 4.52-4.553 1.222-2.441 1.217-2.36 1.22-18.113.002-7.887.077-14.34.168-14.34.273 0 3.132 3.058 3.668 3.924.275.443.715 1.349.979 2.013l.48 1.207.06 9.711c.06 9.35.049 9.711-.308 9.711-.706 0-2.441 1.041-3.07 1.843-1.195 1.52-1.157.944-1.162 17.377-.005 16.704-.075 15.751 1.28 17.369.613.731 2.242 1.65 2.924 1.65.42 0 .431.057.314 1.46-.147 1.739-.71 3.485-1.55 4.805-.543.852-3.631 3.917-8.436 8.374-1.841 1.708-3.745 2.736-5.667 3.06-.966.163-6.212.213-18.042.172l-16.68-.059-1.354-.53c-1.991-.78-2.476-1.162-7.365-5.78-4.634-4.375-5.38-5.286-6.158-7.517-.215-.617-.416-1.731-.447-2.477l-.056-1.356.975-.29c1.254-.375 2.926-2.01 3.276-3.206.181-.618.243-4.66.243-15.926V47.725l-.558-1.076c-.65-1.255-1.905-2.303-3.163-2.642l-.873-.235.001-8.764c.001-5.143.088-9.304.211-10.071.353-2.202 1.388-4.058 3.361-6.03l1.72-1.719.1 4.73c.055 2.601.172 4.876.26 5.054.392.79 1.617.906 2.387.224.322-.285.35-.951.35-8.502 0-4.69.086-8.657.202-9.277.407-2.179 1.82-4.214 3.697-5.323 1.823-1.079 1.606-1.067 20.51-1.081 12.258-.01 17.837.054 18.578.212zM25.514 6.218c-2.367.357-4.653 2.079-5.75 4.33l-.588 1.205-.062 15.397c-.044 10.825.004 15.706.161 16.44.475 2.215 2.385 4.343 4.795 5.343l1.099.456H40.35c14.048 0 15.258-.027 16.201-.359 2.285-.803 3.999-2.453 4.908-4.723l.464-1.157V12.358l-.466-1.164c-.878-2.191-2.396-3.72-4.57-4.605l-1.156-.47-14.582-.03c-8.02-.016-15.056.042-15.635.13zM56.131 9.62c.44.205 1.086.679 1.438 1.052 1.134 1.205 1.258 1.778 1.258 5.822v3.647l-1.448-1.26c-3.805-3.315-7.908-5.262-12.934-6.139-2.917-.51-7.163-.305-10.245.492-3.902 1.009-7.974 3.191-10.636 5.7-.683.645-1.299 1.171-1.367 1.171-.068 0-.124-1.633-.124-3.629 0-4.005.09-4.426 1.221-5.725 1.384-1.588.44-1.505 17.156-1.505 14.076 0 14.925.02 15.68.374zm-17.12 7.123c.05.941.148 1.204.577 1.544.59.468.847.5 1.53.186.623-.286.93-.975.93-2.088v-.883l.75.101c1.147.155 3.912.697 4.075.798.08.05.016.402-.143.784-.641 1.546-.15 2.786 1.103 2.786.775 0 1.164-.356 1.679-1.533l.426-.976 1.787 1.087c.983.598 1.817 1.177 1.853 1.287.037.11-.206.546-.538.967-.706.895-.78 1.742-.205 2.321.673.678 1.592.531 2.494-.4.903-.932.85-.954 2.528 1.065l.97 1.168v8.851c0 9.755.009 9.681-1.258 11.027-.352.373-.999.846-1.438 1.052-.756.353-1.605.373-15.68.373-16.718 0-15.773.083-17.157-1.504-1.241-1.425-1.221-1.25-1.221-10.89v-8.792l.785-1.026c.432-.563 1.053-1.282 1.38-1.598l.596-.574.74.825c.589.657.878.826 1.416.826 1.502 0 1.934-1.471.84-2.862l-.633-.807.484-.375c.583-.452 3.066-1.793 3.32-1.793.099 0 .3.34.445.755.332.942.575 1.253 1.156 1.475.611.235 1.352-.07 1.784-.735.33-.51.33-.585 0-1.522-.19-.543-.296-1.07-.234-1.17.16-.261 4.028-1.038 4.6-.924.11.022.227.55.26 1.174zm.54 6.9c-.371.282-.406.603-.5 4.556l-.1 4.252-.898.478c-4.41 2.345-4.364 8.358.08 10.443 1.138.534 2.847.64 4.122.255 1.268-.383 2.617-1.567 3.285-2.884 1.47-2.895.234-6.528-2.669-7.846l-.8-.365-.062-4.219c-.06-4.156-.068-4.224-.532-4.603-.563-.458-1.374-.487-1.926-.068zm2.402 12.246c1.137.75 1.536 2.525.817 3.632-1.493 2.294-4.915 1.318-4.915-1.403 0-2.13 2.329-3.397 4.098-2.229zM8.41 47.558l.679.685v14.624c0 10.375-.065 14.753-.223 15.065-.475.934-.97 1.134-2.82 1.14-1.649.004-1.781-.029-2.397-.584l-.653-.587-.051-14.658c-.05-14.385-.044-14.67.35-15.32.524-.859.972-1.02 2.867-1.036 1.524-.013 1.588.006 2.248.671zm9.812 10.033c-.527.4-2.741 5.315-2.741 6.085 0 .92.749 1.513 1.91 1.513h.859l-.582 1.604c-.582 1.609-.587 2.017-.028 2.672.401.472 1.67.468 2.095-.005.489-.544 2.352-5.806 2.205-6.225-.268-.759-.717-1.065-1.563-1.065-.459 0-.886-.052-.948-.115-.063-.063.194-.786.57-1.607.747-1.628.75-2.289.009-2.811-.515-.364-1.34-.385-1.786-.046zm43.547 0c-.454.346-2.738 5.358-2.74 6.016-.003.897.593 1.42 1.748 1.532l1.025.099-.489 1.307c-.567 1.519-.61 2.203-.177 2.825.396.57 1.667.623 2.147.089.527-.587 2.36-5.685 2.216-6.163-.243-.806-.7-1.126-1.609-1.126-1.056 0-1.073-.118-.26-1.869.672-1.445.652-2.15-.076-2.664-.515-.364-1.34-.385-1.785-.046zm-24.93 1.044c-11.244 2.363-17.812 13.67-14.326 24.667 1.308 4.127 4.453 8.137 8.112 10.34 1.881 1.134 4.87 2.221 7.029 2.558 2.014.313 5.694.125 7.63-.39 6.777-1.807 12.16-7.458 13.688-14.37.49-2.22.44-6.234-.105-8.457-1.7-6.92-6.764-12.176-13.529-14.041-2.032-.56-6.52-.722-8.498-.306zm7.706 3.239c2.77.748 6.25 2.931 7.918 4.967 1.713 2.09 2.823 4.3 3.47 6.901.453 1.823.463 5.333.021 7.209-.338 1.435-1.08 3.357-1.297 3.357-.069 0-4.885-4.795-10.701-10.657L33.38 62.995l.888-.38c.831-.356 2.85-.93 3.985-1.133 1.002-.18 5.126.077 6.292.392zm-2.517 14.062l11.066 11.15-.741.912c-.408.5-1.06 1.156-1.45 1.456l-.71.544-11.161-11.244L27.87 67.509l1.34-1.362c.738-.748 1.434-1.36 1.547-1.36.113 0 5.185 5.017 11.271 11.15zm-5.083 5.142L47.52 91.735l-.988.433c-1.39.61-4.33 1.193-5.982 1.188-6.488-.02-12.4-4.035-14.816-10.06-1.418-3.539-1.442-8.015-.062-11.731.233-.629.486-1.144.56-1.144.076 0 4.896 4.796 10.713 10.657z" fill="#231F20"/></svg>