<svg width="116" height="103" fill="none" xmlns="http://www.w3.org/2000/svg"><path opacity=".6" fill-rule="evenodd" clip-rule="evenodd" d="M19.565.366c-5.08.918-9.1 2.995-12.674 6.547-3.052 3.035-5.028 6.438-6.196 10.67l-.598 2.168-.073 17.236C-.053 55.36 0 56.557 1.03 59.824c1.045 3.316 3.564 7.59 4.732 8.032.635.24 1.44.007 1.908-.555.546-.654.351-1.557-.65-3.023-1.288-1.886-2.397-4.26-3.012-6.451-.5-1.778-.507-2.027-.583-18.475-.051-11.311.005-17.277.175-18.554C4.657 12.849 10.525 6.24 18.443 4.076c1.68-.459 2.44-.502 10.368-.598l8.555-.103v69.468l-8.668-.085-8.668-.085-2.04-.62c-1.121-.342-2.985-1.122-4.141-1.735-1.156-.612-2.29-1.113-2.519-1.113-.78 0-1.611.87-1.611 1.686 0 .929.747 1.606 3.037 2.754 3.046 1.526 6.966 2.544 9.796 2.544h1.217V86.3l-5.835.07-5.836.07-1.36.663c-.747.365-1.875 1.176-2.505 1.803-2.164 2.15-2.799 4.32-2.813 9.61-.007 2.773.234 3.905.909 4.263.266.142 17.031.221 46.958.221h46.544l.511-.54c.499-.528.508-.634.436-5.013l-.074-4.473-.727-1.526c-.88-1.848-2.494-3.483-4.312-4.37l-1.306-.638-5.892-.112-5.892-.113v-9.913l3.852-.113c3.598-.106 3.94-.154 5.175-.729 1.83-.852 2.918-1.764 3.971-3.333 1.46-2.174 1.618-3.302 1.618-11.584v-7.11h4.263c3.318 0 4.359-.07 4.702-.318.39-.283.453-.688.553-3.549l.113-3.23 4.123-.06 4.124-.062.465-.589c.447-.565.466-.868.466-7.512 0-6.644-.019-6.947-.466-7.512l-.465-.589-4.124-.061-4.123-.061-.063-3.087c-.085-4.196.165-4.01-5.406-4.01h-4.162V15.85c0-7.557-.14-8.901-1.136-10.862-.85-1.675-2.98-3.629-4.691-4.302-1.198-.472-1.745-.524-6.345-.601L79.986 0l-.576.572c-.732.728-.753 1.698-.05 2.355.5.467.721.49 4.831.49 4.86 0 5.992.211 7.42 1.385.484.398 1.12 1.237 1.415 1.866l.535 1.142.002 30.367c.002 25.258-.05 30.491-.31 31.108-.444 1.057-1.645 2.344-2.725 2.918l-.928.494-24.304.06-24.305.06v-69.4h16.606c18.051 0 17.381.047 17.705-1.236.166-.656-.342-1.793-.896-2.004-.2-.077-12.264-.13-26.805-.12C27.168.073 20.8.143 19.565.367zm27.318 7.557c-.675.67-.604 1.876.144 2.462.593.463.728.467 18.82.467h18.221l.556-.553c.687-.683.734-1.75.104-2.376-.446-.443-.756-.45-18.923-.45-18.166 0-18.476.007-18.922.45zm.04 12.462c-.627.664-.646 1.805-.04 2.408.446.443.756.45 18.883.45h18.43l.492-.521c.697-.738.65-1.8-.104-2.391-.593-.464-.727-.467-18.883-.467H47.416l-.493.521zm56.387 17.728v11.941h-6.119V26.172h6.119v11.941zm9.291 0v4.731h-5.892v-9.462h5.892v4.731zm-65.718-1.802c-.675.67-.604 1.877.144 2.462.593.463.728.467 18.778.467 18.05 0 18.186-.004 18.779-.467.748-.586.818-1.791.144-2.462-.446-.443-.756-.45-18.923-.45-18.166 0-18.476.007-18.922.45zm.144 15.787c-.748.585-.819 1.791-.144 2.462.446.443.756.45 18.922.45 18.167 0 18.477-.007 18.922-.45.675-.67.605-1.877-.143-2.462-.593-.463-.728-.467-18.779-.467-18.05 0-18.185.004-18.778.467zm-.144 12.6c-.675.672-.604 1.878.144 2.463.593.463.728.467 18.778.467 18.05 0 18.186-.004 18.779-.467.748-.585.818-1.791.144-2.462-.446-.443-.756-.45-18.923-.45-18.166 0-18.476.007-18.922.45zm32.18 16.56v5.07H27.394V76.189h51.667v5.07zm14.535 8.71c1.243.371 2.658 1.661 3.282 2.993.468 1 .534 1.477.535 3.9l.003 2.76H9.039l.001-2.648c.001-1.456.112-3.043.247-3.527.307-1.1 2.337-3.174 3.406-3.48 1.178-.336 79.774-.334 80.905.003z" fill="#231F20"/></svg>