<svg width="105" height="103" fill="none" xmlns="http://www.w3.org/2000/svg"><path opacity=".6" fill-rule="evenodd" clip-rule="evenodd" d="M13.973.73C8.8 1.66 8.375 1.777 7.14 2.598 5.443 3.725 4.973 4.71 2.377 12.592.927 16.995 0 20.133 0 20.639c0 .457.92 6.165 2.046 12.686 1.501 8.7 2.164 12.09 2.49 12.733.757 1.492 9.431 12.495 10.334 13.107 1.25.848 2.45 1.245 3.762 1.245 1.976 0 10.436-1.575 11.656-2.17 1.823-.89 3.173-2.75 3.575-4.929.181-.985.07-1.9-.947-7.827-.634-3.69-1.111-6.819-1.06-6.951.068-.18 8.26-1.81 8.975-1.787.062.002-2.45 14.192-5.584 31.534a67847.4 67847.4 0 00-5.704 31.581c-.003.028-6.367.052-14.142.052-7.775 0-14.286.057-14.469.127-.5.193-.96 1.231-.81 1.83.303 1.214-3.661 1.129 52.444 1.129h51.449l.504-.505c.641-.644.641-1.433 0-2.076-.445-.447-.682-.505-2.044-.505h-1.541l-.058-7.694c-.066-8.587-.028-8.373-1.508-8.652l-.705-.132v-36.44l.955-1.06c.525-.582 1.194-1.568 1.487-2.19.463-.983.533-1.401.533-3.189 0-1.824-.066-2.2-.58-3.316-.319-.692-.988-1.66-1.487-2.152l-.908-.892v-7.888l1.898-.361c2.073-.395 2.82-.851 2.82-1.721 0-.684-2.294-6.73-3.25-8.563-.896-1.72-3.463-4.397-5.195-5.417-2.359-1.388-5.884-2.252-8.272-2.027-.677.064-5.015.778-9.64 1.586l-8.41 1.47-11.106-.028-11.105-.029-.535.473c-.433.381-.583.78-.778 2.065-.17 1.127-.336 1.619-.564 1.683-.177.05-1.615.3-3.194.555-2.568.415-2.934.526-3.457 1.048-.469.468-.557.696-.445 1.145.347 1.395 1.04 1.53 4.517.878 1.128-.211 2.09-.345 2.14-.297.115.115-2.454 14.34-2.624 14.526-.15.164-10.14 2.013-10.26 1.9-.075-.073-2.463-13.741-2.41-13.804.014-.018 1.081-.222 2.37-.453 2.586-.464 3.16-.802 3.16-1.858 0-.693-.356-1.22-.986-1.461-.245-.093-1.404.006-2.752.236-1.281.218-2.347.37-2.368.336-.021-.033-.554-3.072-1.183-6.754-.774-4.523-1.292-7.007-1.598-7.66C24.409 1.584 22.186.12 19.71.004c-.913-.043-2.78.193-5.738.725zm6.697 2.597c.99.414 1.56.967 1.966 1.904.393.909 8.132 45.723 8.132 47.094 0 1.328-.758 2.573-1.894 3.109-1.2.566-9.846 2.009-10.869 1.814-.42-.08-1.023-.366-1.341-.634-.836-.706-9.041-11.297-9.37-12.094-.152-.37-1.176-5.903-2.276-12.296l-2-11.625 2.399-7.24c2.21-6.672 2.454-7.29 3.11-7.867.845-.744.711-.707 6.037-1.676 4.908-.893 5.105-.908 6.106-.49zm69.409 8.329c2.923.57 6.067 3.005 7.47 5.783.525 1.038 2.18 5.35 2.088 5.441-.104.105-28.731 5.23-28.804 5.158-.209-.21-2.462-13.421-2.306-13.518.166-.103 16.64-2.963 18.137-3.148.724-.09 2.08.023 3.415.284zM65.09 14.478c.05.085 2.88 15.662 6.29 34.616 4.417 24.564 6.3 34.61 6.555 34.976.798 1.145 2.677.57 2.677-.82 0-.338-2.082-12.153-4.626-26.255-2.544-14.103-4.59-25.678-4.544-25.724.046-.045 4.066-.804 8.934-1.686l8.85-1.603v6.154l-.937 1.005c-2.468 2.647-2.824 6.605-.87 9.684.34.537.887 1.202 1.214 1.478l.594.502v36.629l-.723.137c-1.342.252-1.328.161-1.328 8.672v7.67h-1.744c-.959 0-1.745-.07-1.746-.155-.002-.085-.46-2.654-1.019-5.709-.861-4.712-1.082-5.61-1.456-5.915-.584-.478-1.244-.455-1.905.066-.722.57-.704.918.35 6.775l.871 4.835-23.785.052c-13.082.029-23.832.006-23.889-.051-.086-.087 15.016-84.453 15.257-85.23.062-.2 1.94-.257 8.484-.257 4.622 0 8.445.07 8.496.154zm-55.963.439c-1.444.379-2.758 1.466-3.51 2.905-.547 1.046-.516 3.332.06 4.426 1.694 3.218 5.75 3.95 8.258 1.49 1.115-1.093 1.538-2.127 1.54-3.756 0-2.06-.994-3.712-2.795-4.644-.863-.446-2.65-.658-3.553-.421zm2.504 3.432c.25.162.56.65.69 1.084.613 2.056-1.889 3.523-3.408 1.998-.668-.669-.797-1.354-.424-2.25.52-1.25 1.924-1.622 3.142-.832zm40.42.31a1.724 1.724 0 00-.55.571c-.243.456-13.555 74.196-13.555 75.088 0 .383.172.829.41 1.068.405.405.684.412 18.234.412 17.205 0 17.84-.014 18.304-.391.369-.3.474-.576.45-1.183-.018-.436-3.045-17.457-6.726-37.824-5.784-31.997-6.753-37.095-7.129-37.496-.425-.455-.531-.465-4.758-.459-2.534.004-4.47.093-4.68.215zm7.865 7.084c.407 2.263.719 4.14.694 4.173-.075.096-8.133 1.52-8.198 1.448-.033-.036.34-2.242.83-4.901l.9-4.893c.005-.032 1.14-.032 2.522 0l2.513.058.739 4.115zm35.624 4.034l-.057 2.902h-3.077V27.4l1.231-.237c2.162-.416 1.968-.683 1.903 2.612zM62.473 39.938c.684 3.79 1.211 6.892 1.172 6.892-.079 0-12.838-5.787-12.939-5.869-.057-.045.979-6.13 1.054-6.195.042-.036 8.985-1.68 9.264-1.703.112-.01.764 3.085 1.449 6.875zm32.96-3.924c1.227.44 2.21 1.321 2.738 2.46 1.495 3.22-.7 6.701-4.225 6.701-1.447 0-2.593-.523-3.517-1.607-1.306-1.53-1.545-3.371-.667-5.139.807-1.625 2.465-2.69 4.184-2.69.395 0 1.064.123 1.487.275zm-83.15 1.721c-3.722 1.95-3.722 7.188 0 9.138 2.808 1.471 6.285.091 7.3-2.897 1.5-4.415-3.168-8.406-7.3-6.24zm80.637 1.689c-.61.612-.547 1.713.13 2.248.618.487.878.52 1.59.194.679-.31 1.028-1.172.76-1.878-.378-1-1.738-1.309-2.48-.564zm-76.877 1.419c.55.493.665.745.665 1.461 0 .716-.115.968-.665 1.461-.463.415-.882.596-1.377.596s-.914-.18-1.376-.596c-.55-.493-.666-.745-.666-1.461 0-.716.115-.968.666-1.461.462-.415.881-.596 1.376-.596.495 0 .914.18 1.377.596zm40.436 6.188c4.67 2.13 6.02 2.827 5.824 3.009-.609.567-14.971 10.387-15.06 10.297-.084-.084 2.392-14.282 2.741-15.727.063-.26.183-.445.266-.412.083.033 2.886 1.308 6.23 2.833zM95.587 65.89v17.563h-3.282V48.326h3.282v17.563zm-28.972-2.978c1.045 5.788 1.862 10.562 1.816 10.608-.062.062-20.07-9.47-20.381-9.71-.07-.054 16.4-11.424 16.548-11.424.065 0 .973 4.737 2.017 10.526zm-9.749 8.635l10.388 5.009-.551.343C64.664 78.168 41.638 91.21 41.633 91.1c-.005-.075.983-5.672 2.195-12.436 1.435-8.008 2.282-12.269 2.427-12.213.123.048 4.898 2.34 10.611 5.096zM70.67 85.415c.634 3.504 1.202 6.579 1.263 6.834l.11.463-13.304-.005-13.304-.004 1.129-.661c3.216-1.885 22.877-13.072 22.912-13.038.022.022.56 2.907 1.194 6.41zm26.969 7.914v6.584h-7.384V86.745h7.384v6.584z" fill="#231F20"/></svg>