<svg width="105" height="106" fill="none" xmlns="http://www.w3.org/2000/svg"><path opacity=".6" fill-rule="evenodd" clip-rule="evenodd" d="M45.421.239c-3.25.622-6.179 2.153-8.642 4.517-3.176 3.047-4.926 6.794-5.302 11.352l-.146 1.763-1.013.243c-2.124.51-3.053 1.8-3.21 4.454-.052.883-.182 1.606-.288 1.606-.572 0-3.554 1.472-5.105 2.52-4.33 2.926-7.381 7.695-8.29 12.956-.396 2.297-.414 8.495-.026 9.012.657.873 2.112.862 2.58-.02.124-.236.219-1.721.221-3.48.002-1.688.095-3.702.205-4.476.786-5.486 4.192-10.19 9.107-12.574 3.22-1.562 3.162-1.556 13.86-1.556h9.536l1.903.654c5.51 1.891 9.502 6.193 10.91 11.757.408 1.61.415 2.199.415 32.782v31.144h-45.94V53.455l-.475-.45c-.63-.598-1.472-.575-2.098.058l-.503.508v18.662h-.986a4.276 4.276 0 00-4.23 3.574l-.135.777H.844l-.425.546c-.53.68-.541 1.335-.033 1.969.38.474.497.49 3.896.554l3.505.066v9.294H4.724C.932 89.013.02 89.32 0 90.602c-.02 1.47.66 1.726 4.594 1.726H7.78l.117.57c.458 2.21 1.774 3.4 3.914 3.537l1.309.084v6.374h-3.6c-3.547 0-3.605.007-4.101.508-.642.648-.642 1.442 0 2.09l.503.509h93.689l.541-.429c.706-.562.736-1.591.066-2.228l-.475-.45H65.418L65.416 72.7c-.001-18.762-.08-30.877-.207-32-.6-5.295-3.377-10.19-7.603-13.408-1.652-1.257-4.08-2.564-5.61-3.018l-.832-.248-.106-1.76c-.092-1.524-.184-1.862-.69-2.532-.716-.948-1.622-1.531-2.64-1.7-.422-.07-.769-.242-.769-.381 0-.642.479-1.523.943-1.737.712-.327 20.977-.332 21.688-.005.915.421 1.326 2.048.517 2.048-.921 0-2.145.538-2.853 1.253-1.252 1.264-1.538 3.27-.716 5.02.316.673.318.78.024 1.234-.847 1.306-.561 3.598.612 4.91.746.835 1.336 1.141 2.602 1.353l.769.129v23.097c0 25.395-.038 24.546 1.26 27.844 1.267 3.22 3.903 6.635 6.65 8.614 1.645 1.186 4.312 2.459 6.344 3.027 1.552.434 2.11.463 10.405.532l8.765.073.516-.52c.614-.622.659-1.35.123-2.019l-.391-.489-8.684-.119c-8.217-.112-8.766-.143-10.216-.583-4.835-1.465-8.711-4.977-10.556-9.564-1.162-2.887-1.14-2.359-1.14-27.117V31.84h9.434v17.09c0 16.814.007 17.097.41 17.504.519.524 1.452.532 2.08.019l.484-.396.103-17.152.102-17.152.616-.13c.8-.167 1.756-.676 2.197-1.168.993-1.108 1.291-3.507.605-4.866-.362-.718-.362-.771-.008-1.442.51-.966.501-2.864-.017-3.89-.53-1.05-1.483-1.834-2.562-2.108l-.877-.224-.14-1.691c-.387-4.728-2.137-8.455-5.43-11.566-2.286-2.16-4.275-3.284-7.522-4.248C72.004.095 70.583.053 59.367.011 49.67-.026 46.535.026 45.422.239zm27.072 3.288c6.054 1.78 9.895 6.579 10.43 13.034l.117 1.398h-9.362l-.12-1.021c-.228-1.95-1.583-3.701-3.218-4.16-.957-.27-22.218-.27-23.175 0-1.635.459-2.99 2.21-3.22 4.16l-.119 1.021h-9.172l.003-1.398C34.67 11.295 38.398 6 43.463 4.057c2.446-.939 3.3-.989 15.904-.939 10.622.042 12.027.086 13.126.41zm-24.83 17.865c.184.186.322.676.322 1.142v.816l-8.87-.054-8.87-.054-.064-.661c-.043-.453.07-.795.36-1.088.412-.416.617-.426 8.61-.426 7.171 0 8.23.04 8.512.325zm38.967 0c.177.18.322.546.322.814 0 1.148.069 1.14-8.924 1.14h-8.28l-.32-.461c-.421-.609-.402-.905.091-1.404.397-.4.684-.414 8.6-.414 7.17 0 8.228.04 8.51.325zm.076 5.31c.135.136.246.49.246.786 0 .297-.11.65-.246.788-.184.185-2.4.248-8.71.248-8.304 0-8.466-.008-8.686-.422-.24-.452-.087-1.241.288-1.49.126-.084 3.971-.154 8.546-.156 6.198-.003 8.379.06 8.562.245zm-58.307 9.522c-1.82.348-3.97 1.552-5.451 3.052-2.982 3.02-3.934 7.193-2.562 11.228 1.518 4.466 5.506 7.287 10.283 7.274 4.076-.01 7.662-2.247 9.515-5.934 4.05-8.058-2.934-17.313-11.785-15.62zm3.63 3.098c4.857 1.041 7.526 6.264 5.53 10.823-.582 1.327-2.165 2.957-3.62 3.725-1.155.61-1.37.652-3.387.652-2.021 0-2.228-.04-3.384-.655a8.426 8.426 0 01-3.524-3.592c-.525-1.035-.577-1.337-.577-3.314 0-1.966.055-2.29.578-3.364 1.03-2.119 2.782-3.554 5.113-4.188 1.344-.365 1.902-.38 3.271-.087zm-2.42 1.286c-1.104.96-.505 2.624.943 2.624.842 0 1.324-.403 1.543-1.29.113-.456.022-.683-.48-1.19-.745-.753-1.263-.79-2.006-.144zm-3.774 1.588c-.938.948-.226 2.57 1.128 2.57.902 0 1.538-.63 1.538-1.52 0-1.243-1.78-1.944-2.666-1.05zm7.193.132c-.776.997-.344 2.159.921 2.48 1.295.328 2.296-1.626 1.332-2.6-.622-.628-1.715-.57-2.253.12zm-8.546 3.459c-1.118.97-.464 2.624 1.037 2.624 1.559 0 2.016-2.222.592-2.877-.723-.333-1.006-.29-1.63.253zm10.252.002c-1.117.97-.521 2.622.946 2.622.927 0 1.504-.569 1.504-1.485 0-.725-.832-1.622-1.504-1.622-.213 0-.64.218-.946.485zm-8.863 3.723c-.923.993-.22 2.628 1.13 2.628.651 0 1.5-.879 1.5-1.554 0-.722-.854-1.553-1.595-1.553-.35 0-.77.194-1.035.479zm7.236.03c-.277.279-.504.749-.504 1.044 0 .722.854 1.554 1.596 1.554 1.347 0 1.994-1.841.94-2.678-.717-.57-1.417-.542-2.032.08zm-3.617 1.567c-.502.508-.594.735-.48 1.191.209.848.706 1.29 1.449 1.29 1.522 0 2.171-1.638 1.039-2.622-.745-.648-1.263-.612-2.008.141zm54.59 18.995c-.966.353-1.025.581-1.024 3.975 0 3.123.02 3.272.586 4.481.715 1.527 2.099 2.818 3.646 3.403 1.05.397 1.575.421 8.91.421h7.795l.504-.508c.276-.28.503-.75.503-1.045 0-.296-.227-.766-.503-1.045l-.504-.509h-7.565c-7.522 0-7.57-.003-8.47-.482-1.525-.812-1.819-1.593-1.823-4.84-.003-2.543-.035-2.77-.465-3.246-.498-.555-1.1-.783-1.59-.605zm-56.376 4.93c-2.925.828-5.426 2.952-6.787 5.763-1.61 3.327-1.56 6.514.156 9.977.694 1.4 3.145 3.83 4.557 4.516 3.525 1.714 7.72 1.497 10.767-.558 2.635-1.778 4.42-4.609 4.862-7.71.703-4.945-2.222-9.855-6.967-11.695-1.544-.6-4.968-.751-6.588-.292zM13.12 84.353v9.012h-.78c-.428 0-.89-.112-1.025-.249-.184-.185-.246-2.424-.246-8.794 0-9.502-.084-8.96 1.384-8.974l.667-.006v9.011zm20.783-5.728c3.928 1.953 5.44 6.733 3.37 10.656-1.1 2.084-3.022 3.462-5.47 3.922-3.243.609-6.75-1.253-8.185-4.347-.49-1.054-.551-1.434-.55-3.363.001-1.976.054-2.276.571-3.27 1.556-2.99 4.005-4.451 7.253-4.328 1.391.053 1.897.176 3.011.73zm-4.225.498c-.499.382-.744 1.213-.53 1.793.33.89 1.21 1.276 2.113.926.5-.194.96-1.239.81-1.842-.243-.981-1.606-1.48-2.393-.877zm-3.75 1.7c-.994 1.003-.328 2.598 1.085 2.598.743 0 1.488-.797 1.488-1.59 0-.66-.87-1.517-1.538-1.517-.292 0-.758.229-1.034.508zm7.179 0c-.615.62-.643 1.328-.079 2.052.533.684 1.63.749 2.241.132.611-.617.547-1.726-.13-2.264-.717-.57-1.417-.542-2.032.08zM24.55 84.3c-.911.698-.772 2.02.276 2.615 1.557.882 3.019-1.532 1.554-2.568-.528-.374-1.376-.396-1.83-.047zm10.284-.05c-.183.107-.444.467-.58.8-.72 1.753 1.895 2.955 2.758 1.268.38-.742.227-1.544-.377-1.971-.488-.346-1.306-.39-1.801-.098zm-8.586 3.579c-1.659.847-.49 3.559 1.225 2.842 1.283-.537 1.252-2.43-.048-2.888a12.53 12.53 0 00-.647-.218c-.012.002-.25.12-.53.264zm6.78.486c-.694.891-.533 1.767.418 2.263 1.092.57 2.233-.147 2.233-1.405 0-1.343-1.816-1.93-2.652-.858zm-3.433 1.21c-.597.422-.758 1.23-.389 1.95.92 1.796 3.458.515 2.68-1.353-.388-.933-1.432-1.205-2.291-.597z" fill="#231F20"/></svg>