<svg width="145" height="146" fill="none" xmlns="http://www.w3.org/2000/svg"><path opacity=".6" fill-rule="evenodd" clip-rule="evenodd" d="M66.962.067C48.358 1.99 33.575 8.854 21.163 21.334 9.658 32.902 2.653 47.211.367 63.816c-.49 3.554-.49 14.71 0 18.263 2.994 21.743 14.503 40.168 32.557 52.12 13.257 8.776 30.078 12.989 45.958 11.51 17.44-1.623 32.971-8.989 45.192-21.433 11.289-11.494 17.896-24.874 20.413-41.34.68-4.444.685-15.342.01-19.778-1.186-7.796-3.33-15.028-6.293-21.232-1.49-3.12-1.926-3.802-2.534-3.955-1.214-.306-2.129.093-2.629 1.146-.458.967-.456.975 1.135 4.344 6.198 13.119 8.088 27.755 5.445 42.149-4.54 24.712-22.534 45.203-46.358 52.788-16.962 5.4-35.434 3.982-51.135-3.925-20.758-10.455-34.313-29.704-37.497-53.25-.473-3.492-.473-13.059 0-16.551 2.84-20.993 13.774-38.388 31.253-49.716 8.26-5.353 17.865-8.819 28.382-10.24 3.507-.474 13.02-.477 16.461-.005 12.974 1.779 24.41 6.58 34.141 14.336l1.928 1.536-1.36.075c-2.2.12-2.645.306-3.049 1.27-.477 1.142-.111 2.307.865 2.754.434.199 2.447.324 5.198.324 4.112 0 4.552-.05 5.237-.591l.748-.591v-4.987c0-4.913-.01-4.996-.697-5.686-.888-.893-1.976-.893-2.864 0-.598.6-.696.965-.696 2.568 0 1.028-.061 1.868-.135 1.868-.074 0-1.155-.828-2.402-1.84C107.656 7.642 94.952 2.239 81.721.47c-2.39-.32-12.819-.604-14.76-.403zm-2.413 13.127c-29.66 3.978-51.938 29.608-51.938 59.753 0 33.284 26.777 60.212 59.874 60.212 30.249 0 55.648-22.542 59.482-52.792.588-4.64.45-13.201-.279-17.265-1.556-8.673-4.588-16.418-9.085-23.21-2.458-3.713-2.981-4.296-4.039-4.501-.728-.142-1.044-.034-1.632.557-1.13 1.136-.948 2.012.978 4.716 15.673 21.998 13.05 52.5-6.176 71.831-20.167 20.277-52.306 21.889-74.407 3.731-16.208-13.317-23.666-34.823-19.148-55.22 5.887-26.582 29.644-45.01 56.588-43.897 12.96.536 24.66 5.226 34.342 13.767 1.17 1.033 2.41 2.015 2.754 2.182 1.37.665 3.265-1.093 2.793-2.59-.225-.713-2.88-3.203-5.783-5.425-8.469-6.482-18.178-10.483-28.799-11.87-4.101-.535-11.45-.525-15.525.021zM54.474 30.528c-3.552 1.186-9.654 5.238-13.552 8.998-4.334 4.18-7.582 8.636-9.927 13.614-.857 1.82-.93 2.193-.93 4.832 0 2.648.069 2.998.92 4.738 1.109 2.263 3.139 4.267 5.405 5.335l1.623.765 8.798.086 8.798.086v7.96h-6.173c-5.794 0-6.208.036-6.74.571-.846.85-.757 2.377.18 3.118.71.562 1.102.592 7.734.6l6.986.007.71 1.163c.814 1.335 4.248 4.693 5.284 5.167l.697.32-.082 9.46-.081 9.461-.859 1.396c-1.532 2.491-4.637 3.763-7.372 3.019-.624-.169-2.285-.967-3.69-1.772-7.077-4.058-12.64-9.773-16.5-16.957-1.28-2.384-1.38-2.712-1.373-4.566.01-2.36.452-3.347 2.302-5.13 1.132-1.09 1.267-1.351 1.187-2.302-.114-1.36-1.217-2.299-2.36-2.01-1.248.314-3.47 2.648-4.473 4.698-.852 1.74-.92 2.09-.92 4.738 0 2.638.072 3.012.929 4.832 2.346 4.982 5.593 9.433 9.937 13.623 3.137 3.026 8.005 6.455 11.562 8.143 2.143 1.017 2.416 1.075 5.108 1.081 2.64.007 2.978-.059 4.713-.918 2.25-1.114 4.243-3.155 5.305-5.433l.761-1.632.085-8.846.086-8.846h7.889l.085 8.846.086 8.846.76 1.632c1.063 2.279 3.056 4.319 5.307 5.433 1.74.861 2.068.924 4.713.913 2.584-.011 3.019-.094 4.776-.917 8.892-4.164 17.45-12.698 21.677-21.614 1.03-2.175 1.082-2.42 1.082-5.143 0-2.648-.068-2.999-.92-4.738-1.108-2.263-3.138-4.267-5.404-5.335l-1.623-.765L98.182 77l-8.799-.086v-7.931l8.799-.086 8.798-.086 1.623-.765c2.266-1.068 4.296-3.072 5.404-5.335.852-1.74.92-2.09.92-4.738 0-2.637-.072-3.013-.926-4.827-4.367-9.27-12.591-17.538-21.81-21.928-1.803-.858-2.178-.931-4.794-.931-2.486 0-3.04.095-4.461.764-2.265 1.068-4.296 3.072-5.404 5.334l-.92 1.877-.086 8.854-.085 8.853h-7.889l-.086-8.846-.085-8.846-.76-1.632c-1.057-2.266-3.057-4.32-5.276-5.419-1.562-.773-2.207-.922-4.287-.993-1.5-.051-2.889.063-3.584.296zm6.618 4.948c.787.49 1.658 1.377 2.173 2.214l.859 1.396.071 9.44.072 9.44-1.165.713c-1.33.815-4.672 4.264-5.147 5.313l-.318.701-9.41-.082-9.409-.082-1.388-.863a7.365 7.365 0 01-2.248-2.26c-.744-1.211-.859-1.667-.859-3.418 0-1.874.1-2.205 1.38-4.588 3.807-7.084 9.363-12.832 16.267-16.83 3.205-1.855 4.184-2.18 6.15-2.033 1.177.087 2.038.359 2.972.94zm30.914.522c5.011 2.708 10.205 7.112 13.464 11.416 3.077 4.062 5.333 8.534 5.322 10.552-.012 2.508-1.473 4.838-3.749 5.978l-1.452.728H87.346l-.313-.69c-.468-1.033-3.813-4.488-5.134-5.303l-1.157-.713-.007-9.147-.008-9.147.739-1.491c1.26-2.542 3.577-3.857 6.425-3.647 1.259.093 2.194.426 4.115 1.464zM75.422 60.532c5.134 1.345 8.75 5.302 9.645 10.556 1.388 8.15-6.314 15.894-14.42 14.498-5.588-.962-9.764-5.161-10.72-10.78-1.474-8.648 7.037-16.49 15.495-14.274zm-6.757 3.127c-2.288.959-4.65 3.393-5.49 5.66-.819 2.209-.821 5.036-.006 7.256.85 2.314 3.442 4.905 5.78 5.775 2.41.898 5.604.758 7.83-.34 1.998-.987 3.753-2.756 4.741-4.78.671-1.373.768-1.914.768-4.283 0-2.337-.103-2.927-.745-4.28-.955-2.013-2.81-3.878-4.79-4.816-2.308-1.094-5.74-1.175-8.088-.192zm6.036 4.023c1.403.589 2.301 1.458 2.935 2.84.984 2.143.448 5.095-1.204 6.62-2.13 1.97-5.742 1.97-7.872 0-2.155-1.991-2.27-5.929-.236-8.152 1.464-1.601 4.296-2.182 6.377-1.308zm32.862 14.547a7.359 7.359 0 012.247 2.26c.729 1.185.858 1.68.859 3.287.001 1.608-.157 2.21-1.049 4.019-3.785 7.668-9.897 13.892-17.966 18.295-2.07 1.13-2.447 1.239-4.28 1.239-1.74 0-2.194-.115-3.398-.864a7.363 7.363 0 01-2.248-2.26l-.859-1.396-.082-9.46-.081-9.461.697-.32c1.043-.478 4.474-3.838 5.284-5.175l.71-1.171 9.389.072 9.388.072 1.389.863z" fill="#231F20"/></svg>